<svg width="390" height="513" viewBox="0 0 390 513" fill="none" xmlns="http://www.w3.org/2000/svg">
<g opacity="0.26">
<path d="M2.49215 245.122C3.12619 243.378 3.28471 242.269 3.91876 241.476C6.29644 238.227 8.9119 235.057 11.3688 231.807C15.9657 225.704 19.6115 219.205 17.0753 211.121C16.362 208.981 14.9354 206.841 13.4295 205.177C8.43636 199.47 6.13793 192.813 5.18686 185.442C3.52248 172.127 5.18686 158.891 5.34537 145.576C5.34537 143.595 6.53421 141.613 7.089 139.553C8.04008 135.907 9.38743 132.261 9.86297 128.457C12.1614 107.533 13.8258 86.5304 16.5997 65.6861C17.8678 55.9375 21.1173 46.4268 23.7328 36.9161C25.5557 30.1 31.3414 27.1676 36.9686 24.1558C42.1202 21.3819 47.4304 18.6079 52.0273 14.9621C55.039 12.5052 56.7034 8.4631 59.3188 5.45136C61.3002 3.15293 63.5194 0.220453 66.1348 -0.492852C71.9998 -2.23649 78.261 -3.34607 84.3638 -3.6631C101.087 -4.53492 117.255 -8.41847 133.344 -12.619C142.459 -14.9967 151.652 -15.9478 161.163 -13.8079C171.308 -11.5095 181.532 -8.97326 191.835 -8.02219C202.455 -7.07111 213.155 -7.94293 223.855 -7.78442C230.829 -7.70516 237.883 -7.78442 244.778 -6.99186C248.266 -6.59558 252.308 -5.01045 254.685 -2.63277C261.66 4.73806 270.695 6.6402 279.889 8.54235C285.833 9.7312 291.856 10.2067 297.88 11.0786C299.703 11.3163 301.684 11.3956 303.269 12.1089C313.81 16.7057 325.144 16.7057 336.161 18.2116C341.312 18.9249 346.305 20.5893 351.299 22.1744C357.164 24.0766 362.711 27.1676 368.656 28.5149C376.027 30.1793 379.514 35.8065 384.031 40.7204C392.67 50.0726 396.475 62.0403 402.498 72.8191C406.144 79.3181 410.978 84.232 417.16 87.957C426.037 93.188 435.072 98.3396 441.571 106.582C444.9 110.783 447.833 115.3 450.924 119.739C459.483 132.261 470.104 142.802 482.071 152.075C484.449 153.977 486.43 156.593 488.015 159.288C493.563 168.402 498.24 177.992 507.671 184.253C511.951 187.107 512.426 190.99 510.841 195.825C508.701 202.165 507.592 208.426 512.823 214.054C516.706 218.333 515.834 222.613 512.981 227.052C511.792 228.795 510.762 230.697 509.969 232.6C507.671 238.782 508.384 240.763 513.694 244.726C522.413 251.304 527.881 260.022 530.576 270.722C532.082 276.507 534.856 281.897 536.837 287.603C540.008 296.639 543.257 305.674 545.952 314.867C546.744 317.483 546.427 320.653 545.714 323.348C544.604 327.786 545.238 331.828 546.348 336.187C548.25 343.796 550.311 351.563 550.945 359.33C551.341 363.769 549.518 368.603 548.092 373.042C546.824 376.925 545.714 380.412 547.458 384.454C549.36 388.972 549.281 393.648 547.854 398.404C544.842 408.707 540.959 418.535 535.648 427.808C532.24 433.672 531.527 440.251 532.24 446.988C533.112 455.389 531.21 458.638 523.443 462.046C519.005 464.028 514.487 465.93 509.969 467.832C505.214 469.893 502.995 473.459 503.867 478.531C505.927 489.707 502.044 499.931 498.794 510.234C498.477 511.185 498.002 512.295 497.288 513.008C490.314 520.696 483.577 528.621 476.206 535.992C468.598 543.601 459.008 548.039 448.387 550.1C440.541 551.606 434.201 555.965 427.86 560.562C420.727 565.713 412.96 569.914 405.431 574.511C404.559 575.065 403.449 575.383 402.657 575.937C386.726 588.064 367.308 592.026 349.159 598.763C343.769 600.745 337.904 602.171 332.198 602.409C324.193 602.726 316.109 602.171 308.104 601.22C302.16 600.507 296.453 597.495 290.509 597.178C283.614 596.782 276.639 597.971 269.744 599.001C262.849 600.031 256.27 602.013 249.058 601.062C241.212 600.11 236.615 595.434 232.018 590.045C229.957 587.667 227.817 585.29 225.281 583.546C219.892 579.979 216.484 575.462 214.423 569.121C212.363 562.702 208.162 557.312 200.395 556.203C195.481 555.489 190.488 554.38 185.812 552.715C176.856 549.704 174.24 542.808 178.203 534.328C181.77 526.64 179.471 520.775 171.229 518.873C161.084 516.495 150.701 515.306 140.556 512.77C133.582 511.026 127.004 508.015 120.267 505.399C114.085 503.022 108.141 499.376 101.721 498.108C91.5761 496.126 83.3334 491.371 75.6456 484.872C67.4822 477.897 62.0928 468.941 56.3863 459.986C51.8687 452.852 46.0038 446.195 39.4255 440.964C28.9637 432.563 21.9892 422.339 19.0567 409.42C18.3434 406.25 18.6604 402.842 18.4226 399.592C17.6301 390.795 13.905 382.869 10.8933 374.706C8.67413 368.762 7.16826 362.659 5.02834 356.715C3.76025 353.227 2.49215 349.265 -0.0440521 346.728C-5.1957 341.656 -6.4638 335.553 -6.4638 329.054C-6.54306 319.702 -6.06752 310.35 -5.82975 300.918C-5.82975 299.333 -5.67124 297.59 -6.22603 296.242C-9.87182 287.366 -8.52446 278.013 -9 268.82C-9 268.186 -8.92074 267.472 -8.68298 266.838C-6.62231 261.924 -6.38455 256.931 -7.17711 251.7C-7.81116 247.183 -5.35422 243.695 -1.07438 242.348C-0.123308 242.031 1.06553 242.586 2.09587 242.744C1.69958 243.775 1.54107 245.36 0.907022 245.598C-4.08612 247.579 -3.53132 251.304 -2.97653 255.505C-2.58025 258.279 -2.89727 261.37 -3.68984 264.064C-6.22603 273.654 -4.64091 283.007 -3.13504 292.596C-2.02546 299.254 -2.34248 306.149 -2.18397 312.965C-1.9462 320.336 -2.26322 327.707 -1.54992 335.078C-1.31215 337.772 0.74851 340.546 2.5714 342.766C5.90016 346.966 8.9119 351.008 9.6252 356.635C10.1007 360.519 11.6066 364.323 12.954 367.969C15.0939 373.755 17.8678 379.382 19.6115 385.326C21.1966 390.557 22.544 396.105 22.7025 401.494C23.0195 416.078 28.9637 427.491 40.2181 436.288C49.0155 443.183 56.3863 451.109 61.6173 461.254C68.354 474.252 78.4196 484.476 91.1798 491.767C93.9538 493.352 97.2825 494.303 100.532 494.938C111.628 497.077 120.901 503.339 130.649 508.332C132.393 509.204 134.295 509.917 136.197 510.155C147.055 511.661 157.914 512.929 168.772 514.435C170.832 514.752 172.893 515.306 174.874 516.099C182.958 519.19 186.049 526.006 182.562 533.932C180.819 537.815 178.441 541.936 181.849 545.186C184.702 547.881 188.982 549.149 192.786 550.655C194.926 551.447 197.462 551.368 199.84 551.685C211.094 553.032 216.484 560.562 219.733 571.42C220.605 574.273 223.221 576.73 225.361 579.108C228.61 582.674 233.286 585.448 235.268 589.569C239.31 597.812 246.363 598.208 253.576 598.446C257.856 598.605 262.135 597.336 266.415 596.544C269.427 595.989 272.359 595.355 275.292 594.562C285.754 591.709 295.344 595.434 304.934 598.763C312.305 601.299 319.517 601.299 327.205 600.427C344.879 598.367 361.047 591.313 377.612 585.765C384.428 583.546 391.561 581.565 397.188 575.937C401.071 572.054 406.857 570.152 411.612 567.14C418.349 562.781 424.848 558.025 431.664 553.825C435.231 551.606 439.114 549.624 443.156 548.673C460.117 544.631 473.987 536.071 484.37 521.964C484.845 521.33 485.321 520.696 485.955 520.141C499.349 509.283 501.727 494.383 501.251 478.452C501.013 471.557 502.44 468.941 508.464 465.85C514.249 462.918 519.797 459.748 525.424 456.577C528.278 454.913 529.308 452.535 528.912 448.969C527.723 439.617 529.625 431.057 534.222 422.418C539.056 413.224 541.672 402.842 544.684 392.776C545.397 390.557 544.525 387.466 543.495 385.088C541.83 381.205 541.751 377.48 543.495 373.993C549.36 362.263 547.22 350.612 543.178 339.041C541.038 333.017 540.166 327.152 542.068 320.891C542.623 318.989 542.464 316.69 541.91 314.788C538.819 305.119 536.124 295.37 532.082 286.097C529.387 279.915 527.485 273.654 525.583 267.235C523.126 259.23 518.371 252.334 511.396 247.262C505.135 242.744 504.104 239.178 506.561 231.886C507.116 230.143 507.988 228.478 508.939 226.893C513.06 219.919 512.981 219.998 508.226 213.34C504.025 207.396 505.293 200.976 507.433 194.715C508.622 191.228 508.226 188.533 505.293 186.71C496.179 180.925 490.948 171.969 486.113 162.933C482.785 156.831 477.791 152.709 472.64 148.747C461.623 140.425 453.064 129.884 445.772 118.391C440.541 110.07 433.963 103.253 425.879 97.8641C421.599 95.0108 417.081 92.4746 412.801 89.7007C401.943 82.7261 396.95 71.551 392.195 60.3759C388.153 50.7859 380.94 43.5736 374.758 35.5687C373.49 33.9043 370.637 33.508 368.418 32.6362C362.157 30.1793 355.975 27.7224 349.634 25.5032C345.592 24.0766 341.392 22.65 337.191 22.0159C329.107 20.7478 320.626 21.1441 312.939 18.8457C297.801 14.2488 281.87 14.4073 266.891 9.49343C262.294 7.98756 257.935 5.13434 254.051 2.1226C250.088 -0.889132 246.126 -3.26682 241.212 -3.26682C226.391 -3.18756 211.649 -2.94979 196.828 -2.79128C195.56 -2.79128 194.213 -2.87054 192.945 -3.18756C185.178 -5.01045 177.411 -7.07111 169.564 -8.81475C164.254 -10.0036 159.023 -11.1924 153.634 -11.9057C145.867 -12.9361 138.496 -11.1132 131.125 -8.73549C116.225 -3.82161 100.928 -1.28541 85.3148 -0.175828C79.4499 0.220453 73.5849 1.33004 67.7992 2.67739C65.9763 3.15293 63.7572 5.05508 63.0439 6.79872C59.3188 15.8339 52.0273 21.0648 43.8639 25.3447C40.8521 26.9298 37.6819 28.2771 34.5909 29.8623C29.9148 32.1607 27.9334 36.282 26.903 41.1959C25.7935 46.5853 24.0498 51.8955 23.0988 57.3642C21.1173 69.1733 19.2945 81.0618 17.7093 92.8709C16.4412 102.382 15.4902 111.972 14.5391 121.562C14.2221 124.97 15.0939 128.695 13.905 131.786C10.2593 141.613 9.30818 151.758 8.99115 161.982C8.59487 173.871 7.72305 186.076 13.271 197.331C14.5391 199.867 16.5205 202.086 18.2641 204.464C21.4344 208.743 22.7817 213.34 21.5929 218.65C19.2152 229.112 12.3199 236.721 5.42462 244.409C4.79058 244.726 3.99801 244.726 2.49215 245.122Z" fill="#E3DECA"/>
<path d="M161.322 491.529C158.072 491.529 155.774 491.371 153.554 491.529C130.412 493.749 111.707 483.287 94.6671 469.655C85.7112 462.522 80.7973 452.377 79.5292 440.568C79.2914 438.269 77.5478 435.733 75.7249 434.227C72.7131 431.77 69.2259 429.551 65.6593 428.045C59.7151 425.509 57.4959 420.833 56.9412 415.047C56.3071 408.469 52.8991 403.555 47.5889 400.147C38.7122 394.441 32.2925 387.228 30.6281 376.529C30.4696 375.498 29.9941 374.468 29.36 373.675C21.5136 363.451 21.8307 351.563 22.7817 339.675C23.4158 331.828 22.1477 324.14 18.6604 317.483C12.954 306.625 10.2593 295.45 10.497 283.244C10.5763 281.342 9.70447 279.44 9.14968 277.538C8.04009 273.892 7.96084 270.405 9.86298 266.838C10.6555 265.332 10.18 263.272 10.4178 261.449C10.6555 259.547 10.5763 257.407 11.5274 255.901C13.0332 253.682 15.1731 251.859 17.1546 249.957C22.0684 245.28 25.4765 239.97 27.2993 233.313C28.4089 229.35 31.4207 226.021 33.1643 222.217C34.1154 220.236 34.8287 217.699 34.4324 215.639C32.2925 204.781 30.3111 194.002 24.9217 184.015C22.7025 179.973 23.178 174.346 22.9403 169.432C22.7025 166.024 23.0195 162.537 23.5743 159.208C24.4461 154.374 25.635 149.539 26.9031 144.784C29.5185 135.273 35.225 126.317 32.2132 115.776C31.4207 113.002 30.5488 110.228 29.36 107.612C27.5371 103.65 27.3786 99.4491 30.3903 96.4374C35.7005 91.1272 37.9989 84.7867 39.9803 77.8914C41.1692 73.6909 42.358 69.728 41.3277 65.5275C39.9011 59.6625 43.0713 55.6204 47.5889 52.6087C49.174 51.5784 51.2347 51.1028 53.2161 50.7858C63.7572 49.2007 72.6339 44.4453 80.8765 38.0256C87.8511 32.6361 95.3804 27.96 102.593 22.8876C112.5 15.9131 123.596 15.6753 134.929 16.9434C149.195 18.5285 163.303 17.4982 177.569 15.6753C187.08 14.4072 196.749 14.4072 206.418 14.4072C213.551 14.4072 219.733 18.053 224.726 22.8876C230.75 28.6733 238.042 30.8133 245.809 31.6851C251.277 32.3191 256.905 32.1606 262.373 32.5569C278.858 33.6665 295.265 34.8553 311.75 36.0442C316.584 36.3612 321.498 36.5197 326.333 37.233C333.307 38.2633 340.282 39.6107 347.177 41.1958C355.024 43.0187 360.334 48.0911 363.98 55.1449C366.674 60.2966 369.448 65.3689 372.46 70.2828C374.679 73.9286 374.917 77.6537 374.362 81.6957C372.856 92.316 373.015 92.4746 382.684 97.0714C385.22 98.2603 387.677 99.4491 390.213 100.559C397.109 103.65 403.608 107.137 408.839 112.923C412.881 117.361 417.478 121.562 422.391 124.97C426.909 128.061 432.219 130.042 437.133 132.42C440.303 133.926 442.522 136.145 442.681 139.949C442.76 140.821 443.236 141.693 443.791 142.406C448.308 148.033 452.905 153.66 457.423 159.288C458.136 160.239 459.087 161.11 459.483 162.141C464.001 176.09 476.444 184.887 482.547 197.806C482.705 198.123 482.943 198.519 483.26 198.757C490.948 203.909 493.96 212.151 495.862 220.394C497.606 227.765 498.953 235.611 498.16 242.982C497.051 253.999 499.508 263.272 505.927 271.911C507.354 273.892 508.543 276.349 508.939 278.647C510.128 286.177 512.664 293.151 516.786 299.571C519.877 304.326 520.669 309.478 518.608 314.709C513.695 327.548 517.816 338.961 523.522 350.295C526.693 356.556 529.704 362.817 532.637 369.158C534.46 373.041 534.38 377.083 532.558 381.046C531.448 383.424 530.735 386.039 529.387 388.338C523.998 397.215 522.571 407.042 521.145 417.029C520.828 419.486 519.639 422.101 518.133 424.162C511.238 433.831 503.153 442.708 497.368 453.011C491.899 462.68 484.29 469.655 476.365 476.788C472.878 479.879 470.262 484 467.488 487.804C459.8 498.187 452.747 509.124 444.504 519.031C437.529 527.512 427.543 530.92 416.526 530.603C407.808 530.365 404.163 532.505 401.547 540.906C399.407 547.722 395.048 552.953 390.61 558.184C389.421 559.61 387.36 560.72 385.537 560.958C379.276 561.909 373.015 563.098 366.754 562.781C357.798 562.305 349.872 563.256 343.135 569.993C334.338 578.79 323.4 580.376 311.274 578.949C293.6 576.809 276.402 572.529 259.916 566.189C253.576 563.732 248.266 558.263 243.193 553.428C240.023 550.337 238.2 545.741 235.743 541.936C234.792 540.51 233.762 539.083 232.494 538.053C225.995 532.901 219.258 528.066 212.917 522.756C207.211 517.922 204.754 511.502 206.339 504.052C206.894 501.357 205.15 501.04 203.724 500.01C190.488 490.341 175.508 490.341 161.322 491.529ZM158.31 486.695C175.588 485.427 192.311 486.378 207.29 496.76C211.094 499.376 211.887 500.644 210.46 504.844C208.954 509.283 211.411 516.812 215.216 519.745C221.873 524.896 228.61 529.969 235.109 535.358C237.011 536.943 238.359 539.162 239.785 541.223C242.242 544.948 244.065 549.307 247.156 552.319C251.119 556.282 255.557 560.482 260.63 562.305C277.194 568.487 294.393 572.846 311.908 575.224C322.37 576.651 332.198 575.541 340.282 567.774C341.709 566.427 343.214 565 344.958 564.128C348.525 562.384 352.25 560.165 356.054 559.61C361.76 558.897 367.705 560.007 373.411 559.373C378.246 558.897 384.031 558.342 387.598 555.489C391.878 552.081 395.048 546.533 397.188 541.302C402.181 529.255 404.876 527.115 417.636 526.957C427.226 526.878 435.786 523.707 441.888 516.257C449.576 506.826 456.789 497.077 463.367 486.933C467.33 480.83 471.768 475.52 477.237 470.844C483.181 465.85 489.363 461.095 492.375 453.486C493.563 450.554 496.179 448.176 498.16 445.482C500.3 442.47 502.44 439.537 504.58 436.526C507.592 432.325 510.366 427.966 513.615 424.003C516.072 420.991 517.261 417.821 517.974 414.096C519.163 407.28 520.669 400.385 522.73 393.807C524.156 389.21 526.613 384.851 528.832 380.492C530.735 376.766 530.655 373.121 528.912 369.475C525.9 363.134 522.73 356.952 519.718 350.612C514.249 339.041 510.287 327.311 515.359 314.471C517.499 309.082 515.597 304.406 513.219 299.412C510.366 293.547 508.701 287.128 506.403 281.025C505.214 277.855 504.025 274.685 502.282 271.831C497.606 264.143 494.198 256.218 494.99 246.866C495.386 241.555 495.386 236.087 494.673 230.777C493.722 224.436 492.058 218.254 490.235 212.151C489.442 209.536 487.461 207.158 485.796 204.86C482.864 200.897 479.614 197.093 476.603 193.13C473.274 188.692 470.024 184.253 466.775 179.736C464.635 176.803 461.861 174.029 460.514 170.78C456.868 161.586 450.29 154.611 444.504 147.003C442.522 144.387 441.096 141.296 439.352 138.443C438.718 137.492 438.084 136.382 437.133 135.828C434.518 134.243 431.981 132.34 429.128 131.627C421.678 129.725 416.289 124.653 411.296 119.58C403.766 111.892 395.603 105.552 385.537 101.748C382.446 100.559 379.593 98.8943 376.581 97.547C372.064 95.4863 370.003 92.0783 370.399 87.0851C370.558 85.0245 371.113 82.8846 370.954 80.8239C370.716 77.7329 370.637 74.4834 369.369 71.7887C366.595 65.8445 363.266 60.0588 359.858 54.4316C356.926 49.597 352.804 46.0304 347.177 44.2076C339.569 41.8299 331.96 40.2447 323.955 39.7692C299.703 38.5011 275.609 34.6968 251.277 35.1723C248.9 35.2516 246.522 34.9346 244.144 34.5383C236.773 33.2702 229.561 31.6851 223.934 26.2957C217.118 19.6381 209.034 16.3886 199.602 16.7849C193.103 17.0227 186.525 16.9434 180.264 18.1323C162.035 21.6195 143.727 20.9062 125.418 19.3211C119.633 18.8456 114.006 19.7966 109.012 22.8876C100.77 28.0393 92.2894 32.9532 84.6016 38.9766C74.9323 46.506 64.7875 52.2917 52.4236 54.1146C46.4793 54.9864 43.8639 58.8699 44.5772 64.8142C45.2112 69.8073 44.8942 74.4834 42.5165 79.001C42.041 79.8728 41.724 80.9824 41.6447 82.0127C41.1692 87.5607 38.7915 91.999 34.5909 95.7241C31.2622 98.6565 30.2318 102.382 32.451 106.741C35.0665 111.892 37.2064 117.44 36.0175 123.147C34.3531 131.072 32.134 138.919 29.36 146.527C25.5557 156.989 26.269 167.768 26.269 178.468C26.269 179.498 26.6653 180.607 27.2201 181.479C33.4813 191.545 35.1457 202.878 37.4441 213.974C38.1574 217.303 37.9989 220.315 36.2553 223.485C33.4021 228.637 31.0244 234.026 28.3297 239.257C26.0312 243.616 24.0498 247.896 20.087 251.383C17.3131 253.84 13.0332 256.376 14.6184 261.845C15.1731 263.826 14.2221 266.204 13.9843 268.423C13.6673 270.88 13.0332 273.416 13.1917 275.873C13.3503 278.964 14.6184 281.976 14.6976 285.067C14.8561 294.816 16.2035 304.168 21.3551 312.807C25.7142 320.098 26.7445 328.499 27.3786 336.742C27.8541 343.796 27.1408 350.929 27.6956 357.983C28.0126 361.629 29.9148 365.116 31.2622 368.603C32.3717 371.377 34.4324 373.913 35.0664 376.766C36.5723 384.534 40.6144 390.398 47.1926 394.52C55.356 399.592 60.6662 406.567 61.6173 416.474C61.9343 419.803 63.5987 422.18 66.8482 423.765C70.8902 425.747 74.6153 428.283 78.4196 430.661C81.7483 432.721 83.7297 435.575 83.9675 439.696C84.5223 449.207 88.4851 457.449 95.0634 463.948C106.318 475.123 120.505 481.622 135.484 486.457C136.197 486.695 137.069 486.695 137.862 486.695C144.598 486.695 151.494 486.695 158.31 486.695Z" fill="#E3DECA"/>
<path d="M337.984 101.827C343.215 103.729 347.811 105.631 352.567 106.978C357.005 108.246 361.126 109.911 363.663 113.953C368.497 121.482 376.344 124.811 383.794 128.774C390.689 132.419 397.426 136.303 404.163 140.107C405.351 140.821 406.461 141.851 407.412 142.961C412.405 148.588 417.081 154.453 422.233 159.842C425.879 163.646 430.317 166.579 434.201 170.145C437.846 173.474 441.492 176.882 444.742 180.607C447.119 183.381 449.022 186.631 450.924 189.801C453.539 194.16 455.838 198.757 458.453 203.195C462.654 210.328 467.25 217.144 471.055 224.436C476.365 234.739 483.577 244.408 484.608 256.535C484.766 258.12 484.845 259.705 484.449 261.211C482.864 268.027 481.358 274.764 479.456 281.5C478.029 286.652 479.456 290.615 483.022 294.419C489.918 301.711 495.386 309.953 496.813 320.177C497.051 322.079 496.337 324.061 495.466 325.963C497.843 332.383 498.24 339.12 496.892 346.015C496.496 348.155 496.258 350.691 496.972 352.672C498.398 356.556 497.13 359.171 494.435 361.866C489.442 366.859 489.363 368.127 494.277 373.596C499.349 379.223 504.025 385.009 504.897 393.014C505.69 400.305 504.58 402.683 497.843 405.695C486.351 410.926 474.859 416.236 463.208 421.308C460.038 422.656 458.294 424.637 458.136 428.124C457.66 435.812 454.49 442.549 450.686 449.127C448.546 452.773 447.199 457.132 446.485 461.333C445.217 469.1 441.73 475.044 435.231 479.562C430.793 482.573 426.909 486.378 422.946 490.023C421.916 490.895 421.44 492.48 420.886 493.748C418.112 499.772 413.911 504.369 407.491 506.509C389.342 512.453 373.094 521.805 357.401 532.505C351.219 536.705 344.403 540.034 337.667 543.363C335.606 544.393 332.673 544.789 330.454 544.155C316.981 540.51 303.349 540.193 289.558 540.272C276.639 540.272 264.989 536.23 253.972 529.731C249.93 527.353 245.492 525.53 241.291 523.469C232.731 519.269 225.202 513.642 220.05 505.558C214.265 496.522 206.894 489.786 196.749 486.219C187.952 483.128 178.996 480.275 170.357 476.708C162.986 473.617 155.853 469.813 148.72 466.167C144.519 464.027 140.239 461.808 136.277 459.193C129.778 455.071 125.339 449.127 122.248 442.073C121.059 439.458 119.633 437.001 118.365 434.385C117.414 432.404 116.066 430.264 116.066 428.204C116.066 424.954 114.719 423.052 112.103 421.467C105.604 417.504 99.1055 413.541 92.6065 409.499C89.991 407.835 87.5341 405.774 84.9979 403.951C82.2239 401.97 79.4499 400.068 76.676 398.086C71.7621 394.52 66.7689 391.112 62.0136 387.387C60.8247 386.515 60.1907 384.85 59.3189 383.503C57.4167 380.491 55.9108 377.242 53.6124 374.626C49.7289 370.03 47.9852 365.274 49.5703 359.33C50.4422 355.922 50.8384 352.276 50.8384 348.789C50.8384 346.887 49.8081 344.905 48.9363 343.082C47.906 340.942 46.5586 339.04 45.449 336.98C42.9128 332.383 41.724 327.707 42.9128 322.238C43.3884 320.177 41.8825 317.483 40.7729 315.263C37.2064 308.21 33.2436 301.394 29.677 294.34C27.2201 289.505 28.0919 285.305 32.2925 281.58C33.9569 280.074 35.225 277.775 35.9383 275.635C37.6027 270.959 36.4931 268.582 32.2925 265.966C23.5743 260.577 23.4158 254.553 31.8962 248.609C35.542 245.994 39.5841 244.012 43.0713 241.159C45.0527 239.495 46.1623 236.721 47.6682 234.422C50.7592 229.508 52.7406 224.198 51.7103 218.333C50.0459 208.822 51.2347 199.391 52.8198 190.039C53.2161 187.82 53.5332 185.521 53.2161 183.381C52.4236 177.199 52.2651 171.572 55.2768 165.469C57.0204 161.982 55.1183 156.751 54.8013 152.234C54.722 151.282 54.3257 150.173 54.722 149.539C60.2699 140.583 56.1486 130.993 56.3071 121.72C56.3864 115.934 58.0508 110.783 60.9832 106.027C61.9343 104.442 64.1535 103.015 66.0556 102.698C74.1398 101.351 76.993 96.1201 77.0722 88.7493C77.1515 84.8658 78.8951 82.1711 81.9861 79.7934C90.8628 73.0566 101.245 69.4901 111.232 65.0517C125.894 58.5527 141.032 54.2729 157.2 55.0654C165.601 55.4617 173.923 56.8883 182.324 57.9187C187.714 58.5527 193.024 59.3453 198.413 59.8208C204.833 60.2964 211.015 59.7416 217.356 57.2846C229.086 52.767 240.657 53.1633 250.643 62.2778C255.478 66.7161 261.422 67.9049 267.525 67.8257C278.462 67.8257 289.479 66.6368 300.337 67.2709C311.512 67.9049 321.419 72.5811 328.948 81.2992C329.899 82.3296 331.088 83.2014 332.356 83.9939C334.1 85.1828 336.081 86.0546 337.746 87.2435C342.66 90.81 343.056 93.1877 339.965 98.2601C339.489 99.2111 339.014 100.083 337.984 101.827ZM157.676 57.3639C149.433 58.2357 142.3 58.2357 135.563 59.9001C127.4 61.8815 119.474 64.8932 111.786 68.222C102.751 72.1055 93.9538 76.7024 85.1564 81.1407C81.5106 82.9636 79.8462 86.0546 79.767 90.0967C79.6877 98.7356 75.4871 103.808 66.9274 105.472C65.3423 105.789 63.6779 107.454 62.7269 108.96C57.813 116.727 58.5263 125.207 59.9529 133.846C60.4284 136.62 60.7455 139.87 59.6359 142.247C56.7827 148.667 57.5752 155.087 58.13 161.665C58.3678 164.597 57.0997 167.688 56.4656 170.621C56.0694 172.602 55.1975 174.584 55.1975 176.565C54.9598 183.223 55.039 189.959 54.8013 196.617C54.6427 202.244 53.7709 207.871 54.0879 213.499C54.405 219.76 55.356 225.942 52.1858 231.648C49.8081 236.007 47.5889 240.683 44.3394 244.329C41.6447 247.42 37.5234 249.243 34.1154 251.7C28.0919 255.901 28.1712 259.071 34.3532 262.875C38.2367 265.253 40.8522 268.344 40.3766 273.178C39.9803 277.538 38.4745 281.5 34.9872 284.274C31.8962 286.811 31.3414 289.664 33.0851 292.992C36.7308 299.967 40.5351 306.862 44.0224 313.995C45.2905 316.611 46.9549 319.86 46.4794 322.476C45.5283 327.39 46.4001 331.511 48.6985 335.632C49.8081 337.534 51.1555 339.357 52.0273 341.339C53.0576 343.637 54.405 346.173 54.405 348.551C54.405 352.435 53.8502 356.477 52.8991 360.281C51.7103 364.878 53.0576 368.524 55.8316 372.011C57.496 374.072 59.6359 375.974 60.587 378.351C63.9157 386.99 71.6036 390.715 78.5781 395.312C81.5106 397.294 84.3638 399.354 87.217 401.415C89.674 403.159 91.9724 405.14 94.5086 406.725C101.008 410.926 107.665 414.888 114.243 419.01C117.176 420.833 118.999 423.29 119.157 427.015C119.237 428.917 120.663 430.819 121.693 432.642C122.565 434.227 124.071 435.654 124.626 437.318C127.558 447.225 133.582 454.358 143.093 458.638C146.104 459.985 148.72 462.046 151.652 463.552C159.578 467.673 166.552 473.3 175.588 475.599C184.623 477.897 193.42 481.226 202.139 484.475C210.857 487.725 217.039 494.145 222.19 501.753C228.135 510.551 235.585 517.604 245.967 521.171C248.82 522.122 251.515 523.707 253.972 525.372C264.909 532.742 276.798 536.626 290.034 536.784C303.903 536.943 317.773 536.785 331.247 541.223C332.753 541.698 334.972 541.223 336.478 540.43C342.818 537.181 349.396 534.248 355.182 530.206C371.033 519.269 387.677 509.996 405.985 503.893C411.137 502.15 414.783 498.742 417.398 494.065C421.52 486.615 427.543 480.83 433.963 475.519C438.084 472.111 440.462 467.832 441.809 462.68C443.474 456.419 445.931 450.316 447.991 444.134C449.656 439.22 451.875 434.306 452.747 429.234C453.777 422.893 456.313 418.693 462.495 416.157C472.957 411.877 483.181 406.884 493.484 402.128C500.38 398.958 501.489 396.501 498.953 389.209C497.843 386.198 495.862 383.424 494.039 380.729C492.692 378.668 490.71 376.925 489.284 374.864C484.766 368.127 485.004 365.353 490.71 359.726C492.771 357.745 493.563 355.843 493.167 352.831C492.692 349.344 493.484 345.777 493.563 342.211C493.643 338.327 493.722 334.364 493.563 330.481C493.405 326.914 490.235 323.585 492.929 319.781C493.167 319.464 493.009 318.671 492.85 318.275C491.186 314.154 489.838 309.795 487.54 305.99C484.925 301.711 481.517 297.986 478.426 294.102C476.048 291.17 474.701 288.079 475.572 284.274C477.395 276.586 479.139 268.978 480.882 261.29C481.2 259.863 481.358 258.437 481.279 257.01C480.565 245.28 473.829 235.928 468.202 226.497C463.05 217.937 457.026 210.011 453.698 200.501C453.222 198.995 452.43 197.647 451.558 196.3C448.308 191.465 445.296 186.472 441.651 181.955C438.877 178.547 435.548 175.535 432.219 172.602C428.019 168.798 423.343 165.549 419.38 161.506C413.99 155.959 409.156 149.777 404.083 143.991C403.608 143.436 402.894 142.881 402.26 142.564C395.444 138.839 388.628 135.114 381.733 131.548C373.966 127.585 365.961 124.018 361.047 116.251C358.907 112.922 355.737 111.496 352.012 110.386C347.336 109.039 342.739 107.295 338.221 105.393C334.179 103.649 333.783 101.51 336.081 97.943C339.41 92.8706 339.093 91.8403 333.942 88.7493C331.485 87.2435 328.552 86.1339 326.729 83.9939C319.358 75.355 309.768 70.9959 298.831 70.5204C288.449 70.1241 277.987 71.1544 267.604 71.1544C259.599 71.1544 252.387 68.9353 246.363 62.9911C244.224 60.9304 240.974 59.5038 238.042 58.8697C230.829 57.2054 223.775 57.8394 216.722 60.6926C212.442 62.4363 207.528 63.0703 202.931 63.0703C196.987 63.0703 191.122 62.04 185.178 61.3267C175.825 59.9793 166.156 58.5527 157.676 57.3639Z" fill="#E3DECA"/>
<path d="M53.0576 262.241C54.8012 260.815 56.3864 260.022 57.0997 258.833C57.813 257.645 57.6545 255.98 57.8922 254.554C58.6055 251.066 58.6848 247.262 60.1114 244.171C61.9343 240.367 63.2816 236.959 62.4098 232.52C62.0135 230.46 63.9157 228.003 64.8668 225.704C65.9763 223.01 67.1652 220.315 68.354 217.62C69.1466 215.876 69.9392 214.054 71.0487 212.468C72.7924 210.012 73.3472 207.713 72.1583 204.701C70.2562 200.104 69.0673 195.349 69.8599 190.118C70.6525 184.491 70.4147 178.785 70.811 173.157C71.0487 170.542 71.2073 167.609 72.4754 165.549C76.9137 158.495 77.5478 150.807 77.944 142.802C78.2611 136.145 79.4499 129.487 80.5595 122.909C80.7973 121.562 81.9861 119.897 83.1749 119.184C86.583 117.282 90.3873 116.014 93.8745 114.191C97.6788 112.209 101.325 109.911 105.05 107.85C110.518 104.759 115.828 101.034 121.614 98.7358C134.057 93.822 146.818 90.0969 160.37 89.6214C164.096 89.4629 167.821 87.7985 171.546 87.2437C177.252 86.4511 183.038 85.4208 188.744 85.6586C196.749 86.0549 204.754 87.1644 212.68 88.5911C222.27 90.3347 232.018 91.9198 241.133 95.0901C250.802 98.3396 260.233 98.1018 269.982 97.3092C277.59 96.7544 285.278 96.5167 292.966 96.7544C299.861 96.9922 304.696 101.827 309.61 105.948C313.652 109.356 316.901 113.636 321.023 116.886C323.955 119.184 327.601 120.848 331.168 121.958C337.033 123.86 342.58 126 347.891 129.646C356.45 135.511 365.961 139.87 374.679 145.497C378.721 148.112 382.129 151.996 385.379 155.721C387.836 158.574 389.104 162.616 391.799 165.153C395.365 168.481 399.645 171.414 404.083 173.395C413.356 177.437 420.965 183.223 426.433 191.624C428.098 194.16 429.128 197.331 429.841 200.422C431.506 207.317 432.219 214.529 434.438 221.266C435.865 225.784 438.797 229.905 441.571 233.868C446.327 240.763 449.339 248.292 449.735 256.693C450.052 262.638 451.875 267.869 455.996 272.148C462.099 278.489 464.159 286.177 464.239 294.578C464.318 300.681 464.08 306.783 464.397 312.807C464.556 315.581 465.11 318.91 466.696 320.97C471.689 327.548 471.055 334.444 468.201 341.26C465.824 346.887 465.269 351.88 468.756 357.349C470.975 360.915 471.292 365.037 469.945 369.237C467.884 375.181 468.439 380.729 471.927 386.277C474.7 390.636 474.066 392.856 470.5 396.422C461.544 405.299 451.399 412.194 439.273 415.919C438.48 416.157 437.767 416.474 437.054 416.712C429.049 419.803 429.128 419.803 428.811 428.045C428.415 437.397 426.83 446.433 419.697 453.407C418.904 454.2 418.191 455.309 417.874 456.419C414.149 467.198 407.57 476.312 400.913 485.268C398.06 489.152 393.304 492.56 388.708 494.066C380.623 496.76 373.807 501.199 367.071 506.113C365.327 507.381 363.583 508.49 361.84 509.679C344.324 521.964 324.431 522.439 304.379 520.458C287.814 518.794 271.805 513.959 256.191 508.015C250.088 505.716 245.492 501.674 241.846 496.126C236.377 487.725 229.482 480.671 220.526 475.837C204.278 467.039 188.189 458.004 171.783 449.444C165.284 446.036 158.389 442.945 151.335 441.123C133.344 436.288 122.486 424.003 115.115 407.914C113.768 404.902 112.024 403.08 109.012 401.811C103.306 399.434 97.9166 396.264 92.2102 393.807C84.126 390.24 81.5898 382.711 81.035 375.498C80.401 367.335 76.5174 361.153 73.0302 354.416C71.128 350.612 69.0673 346.253 69.2259 342.211C69.4636 337.297 68.1955 333.176 66.0556 329.134C65.0253 327.231 63.8364 325.25 62.2513 323.744C56.3071 318.196 53.2161 311.459 54.722 303.534C55.8316 297.59 54.8805 292.042 52.1858 287.049C48.3815 280.074 48.3022 273.892 53.7709 267.789C54.8805 266.125 56.6241 264.064 53.0576 262.241ZM460.197 302.266C460.197 299.73 460.197 297.273 460.197 294.736C460.276 286.811 458.215 279.678 452.588 273.733C447.595 268.423 446.802 261.687 445.613 254.791C444.583 248.689 442.76 242.19 439.273 237.276C433.249 228.716 429.366 219.602 428.415 209.298C426.909 193.606 418.508 183.064 404.4 177.279C396.237 173.95 389.579 169.432 385.379 161.507C384.428 159.763 383.556 157.861 382.209 156.514C379.355 153.502 376.581 150.173 373.173 148.033C363.663 142.01 353.756 136.383 344.007 130.676C341.629 129.329 339.331 127.744 336.795 126.793C332.436 125.049 327.363 124.494 323.48 122.037C318.249 118.629 313.81 114.032 309.134 109.752C302.318 103.491 295.185 98.6566 285.199 99.7662C277.432 100.638 269.665 101.034 261.898 101.193C256.905 101.272 251.674 101.431 246.997 100.004C232.414 95.6448 217.831 91.6028 202.535 90.9687C200.712 90.8895 198.889 90.4932 197.145 89.9384C188.586 87.323 180.105 87.0852 171.466 89.8591C167.345 91.1272 162.986 92.0783 158.706 92.3954C143.093 93.4257 128.272 97.547 114.56 104.918C105.921 109.515 98.7884 116.806 88.5644 118.391C87.1378 118.629 85.7904 119.897 84.5223 120.848C83.809 121.403 82.9372 122.196 82.8579 122.988C82.0654 130.201 80.6387 137.413 80.8765 144.546C81.035 151.679 80.1632 158.178 76.5967 164.281C75.9626 165.39 75.0116 166.579 74.9323 167.847C73.6642 179.973 70.8902 192.179 75.0908 204.226C76.5174 208.268 75.6456 211.359 72.9509 214.45C71.9206 215.639 71.3658 217.303 70.6525 218.888C69.5429 221.504 68.9088 224.515 67.2444 226.655C65.263 229.271 65.0253 231.728 65.1838 234.739C65.3423 237.434 64.7083 240.287 63.9949 242.982C63.3609 245.281 61.9343 247.262 61.3002 249.56C60.904 250.987 60.904 253.285 61.7758 254.078C65.1045 257.327 63.3609 259.943 61.3795 262.717C59.2396 265.729 57.0997 268.74 54.8805 271.594C51.948 275.319 51.7102 279.123 54.0087 283.403C57.6545 290.06 59.5566 297.035 57.8922 304.723C56.7034 310.35 58.764 315.581 62.5683 319.227C69.3844 325.726 72.9509 333.017 72.6339 342.528C72.5546 345.698 74.4568 349.027 75.6456 352.197C76.0419 353.307 76.9137 354.179 77.4685 355.209C80.6387 361.232 83.809 366.86 84.2053 374.23C84.6808 382.156 88.1681 389.527 97.0448 392.301C99.8187 393.173 102.196 395.075 104.891 395.947C112.658 398.483 117.889 403.317 120.425 411.164C122.724 418.059 128.747 422.26 133.344 427.411C135.167 429.393 137.386 431.374 139.764 432.404C146.184 435.099 153.079 436.763 159.419 439.696C169.564 444.451 179.392 449.841 189.299 454.992C200.791 461.016 212.283 466.881 223.617 473.142C232.097 477.818 238.834 484.713 243.986 492.718C247.869 498.583 252.545 502.625 259.044 504.845C263.8 506.43 268.555 508.094 273.311 509.441C290.905 514.276 308.421 519.19 327.046 516.891C337.112 515.623 346.939 514.197 355.499 508.253C359.066 505.796 362.791 503.497 366.357 501.04C372.619 496.681 379.038 492.798 386.488 490.341C390.61 488.993 394.969 485.982 397.346 482.415C403.291 473.618 408.125 464.107 413.356 454.834C414.307 453.249 415.1 451.505 416.368 450.237C423.58 442.708 424.531 433.276 423.818 423.686C423.501 419.723 424.769 417.583 427.86 416.078C431.189 414.492 434.597 413.066 438.163 411.956C449.338 408.31 458.611 401.812 467.092 393.807C469.153 391.904 469.47 390.161 467.964 387.942C463.763 381.76 463.842 375.261 465.507 368.207C466.22 365.274 465.982 361.312 464.476 358.775C460.831 352.514 461.227 346.728 464.001 340.309C466.537 334.444 467.171 328.579 462.733 322.714C460.831 320.178 460.355 316.373 459.959 313.045C459.8 309.399 460.197 305.832 460.197 302.266Z" fill="#E3DECA"/>
<path d="M69.9392 240.842C71.6035 238.702 73.1887 236.879 74.4568 234.898C75.0116 234.105 75.3286 232.996 75.4078 232.045C75.5664 229.905 75.5664 227.844 75.5664 225.704C75.6456 215.401 78.1026 205.89 86.1867 198.995C94.5878 191.703 90.4665 183.302 89.5154 174.822C88.6436 167.293 88.4851 159.605 88.8814 152.075C89.1984 146.607 91.2591 141.296 92.1309 135.828C93.0027 130.914 95.4597 127.664 100.294 126.238C107.348 124.177 113.847 121.245 118.365 114.904C119.316 113.557 121.773 112.923 123.596 112.606C131.521 111.338 139.605 110.545 147.452 109.039C152.683 108.009 157.914 106.424 162.827 104.442C167.028 102.699 171.07 101.827 175.429 103.174C183.038 105.552 190.646 105.156 198.493 103.967C212.6 101.827 226.629 102.936 240.578 105.71C253.496 108.167 265.86 111.892 277.511 118.233C282.266 120.769 288.052 121.403 293.442 122.671C307.787 126.159 321.419 130.914 332.99 140.742C337.191 144.229 342.739 147.003 348.049 148.113C361.523 151.045 370.162 159.208 374.679 171.572C377.691 179.736 382.843 184.412 391.164 186.314C394.652 187.107 397.981 188.375 401.23 189.801C406.936 192.258 408.284 195.111 406.778 201.056C405.748 205.018 406.382 208.585 409.552 211.121C414.466 215.005 415.338 220.553 416.368 226.18C418.112 235.611 419.776 245.043 421.757 254.395C422.074 256.059 423.58 257.565 424.848 258.833C427.702 261.766 429.128 264.936 428.89 269.137C428.415 276.666 427.939 284.195 428.336 291.725C428.494 295.291 429.762 299.333 431.823 302.266C439.749 313.916 444.425 326.28 442.522 340.547C442.205 343.162 441.492 345.777 440.462 348.155C434.914 360.598 428.494 372.725 423.897 385.485C420.806 394.044 415.179 400.702 410.424 407.993C409.156 409.896 408.284 412.273 407.808 414.493C406.699 419.406 404.876 423.765 400.596 426.856C399.962 427.332 399.566 428.125 398.932 428.521C390.768 433.673 388.311 441.043 389.262 450.475C390.213 459.748 386.33 467.753 380.386 474.727C379.276 475.995 377.929 477.263 377.295 478.849C373.015 489.39 363.504 493.115 353.835 495.968C340.441 500.01 326.571 500.802 312.701 498.9C307.549 498.187 302.556 495.968 297.801 493.828C285.992 488.518 274.975 482.336 266.098 472.191C259.282 464.345 250.802 457.449 241.925 451.981C235.822 448.176 227.817 447.225 220.526 445.561C208.717 442.945 196.749 440.885 184.94 438.428C179.55 437.318 174.795 434.941 170.832 430.899C169.406 429.472 167.345 428.521 165.364 427.808C161.401 426.46 158.785 423.845 157.834 419.882C155.694 410.53 149.829 405.537 140.477 403.951C135.484 403.08 131.997 399.909 129.144 395.392C127.162 392.222 123.992 389.289 120.742 387.387C114.798 384.058 110.915 378.986 107.665 373.438C106.318 371.219 105.763 368.128 106.001 365.512C106.873 354.258 103.465 343.558 101.404 332.779C101.008 330.877 99.264 328.579 97.4411 327.707C81.9068 319.94 72.6339 306.149 63.5194 292.438C57.6545 283.72 60.1907 273.892 63.5987 264.619C65.4216 259.547 68.037 255.029 72.3168 251.304C76.5174 247.658 75.7249 244.25 69.9392 240.842ZM75.9626 240.05C77.8648 246.786 79.2121 248.689 71.9206 255.505C70.8902 256.456 69.7014 257.486 69.1466 258.754C66.0556 265.808 63.6779 272.941 63.7572 280.867C63.8364 285.226 65.1045 288.871 67.8785 292.121C68.9088 293.31 69.8599 294.578 70.811 295.846C78.7366 307.259 87.2963 318.038 100.136 324.616C102.513 325.805 104.891 328.975 105.367 331.511C107.19 341.577 111.152 351.325 110.201 361.866C109.25 372.408 115.353 378.589 123.437 383.82C127.004 386.119 130.57 389.051 132.869 392.539C135.405 396.422 138.258 399.038 142.617 399.83C153.079 401.653 159.657 407.597 162.193 417.98C162.907 420.912 164.73 422.577 167.583 423.686C170.357 424.796 172.734 426.777 175.271 428.362C177.728 429.868 180.026 432.008 182.641 432.642C188.903 434.227 195.322 434.861 201.584 436.209C213.076 438.666 224.489 441.281 235.902 444.055C239.31 444.927 242.955 446.116 245.65 448.176C253.893 454.596 262.611 460.62 269.427 468.387C277.194 477.263 286.626 483.049 296.85 488.042C306.043 492.56 315.713 495.651 326.174 495.096C332.753 494.7 339.41 494.462 345.83 493.115C357.243 490.737 368.656 487.963 374.045 475.599C374.521 474.569 375.392 473.618 376.185 472.746C382.129 466.088 386.488 458.321 385.22 449.444C383.397 437.081 389.738 429.789 398.377 422.894C400.596 421.15 402.577 418.218 403.132 415.444C404.797 407.439 409.631 401.495 414.545 395.392C415.575 394.124 416.606 392.618 417.24 391.112C418.904 387.308 420.331 383.266 422.074 379.461C424.373 374.389 427.464 369.634 428.97 364.403C430.793 358.221 433.329 352.593 436.42 347.046C437.846 344.509 438.401 341.26 438.718 338.327C439.828 325.646 435.627 314.55 428.336 304.326C426.275 301.473 424.69 297.669 424.452 294.261C423.977 286.256 424.294 278.172 424.611 270.167C424.769 266.283 424.214 262.955 420.886 260.339C419.617 259.388 418.508 257.645 418.191 256.059C416.209 246.39 414.307 236.721 412.564 227.052C411.692 221.979 410.82 217.065 406.54 213.34C402.815 210.091 401.547 205.732 402.736 200.739C403.925 195.745 403.291 194.398 398.218 192.496C393.542 190.752 388.708 189.246 383.952 187.741C378.721 185.997 375.313 182.351 373.094 177.437C372.222 175.535 371.509 173.554 370.637 171.652C366.04 161.507 359.303 153.977 347.574 152.075C340.441 150.886 334.734 146.844 329.028 142.723C323.955 139.077 318.566 135.432 312.859 133.054C305.092 129.884 296.929 127.506 288.686 125.683C279.572 123.702 271.884 118.708 263.404 115.617C242.163 107.85 220.13 104.918 197.621 107.296C189.854 108.088 182.166 108.326 174.557 105.79C172.021 104.918 168.613 105.076 166.156 106.107C156.883 110.149 147.055 110.941 137.228 112.051C129.223 113.002 121.376 112.844 115.194 120.056C111.866 123.939 105.763 125.525 100.691 127.664C97.2033 129.17 95.0634 131.152 94.4293 135.035C93.4782 140.583 91.4176 146.052 91.0213 151.679C90.5458 158.574 90.8628 165.628 91.4968 172.523C91.9724 177.596 93.7953 182.589 94.3501 187.661C94.5878 189.96 93.716 192.655 92.5272 194.715C91.0213 197.41 88.8021 199.867 86.6622 202.165C81.6691 207.396 79.2121 213.578 78.8159 220.711C78.5781 225.07 78.4196 229.429 78.0233 233.788C77.8648 235.691 76.9137 237.355 75.9626 240.05Z" fill="#E3DECA"/>
<path d="M224.806 118.074C237.09 118.233 248.107 122.513 258.49 128.536C264.672 132.103 270.854 134.005 277.987 133.926C283.852 133.846 289.875 134.56 295.661 135.432C301.843 136.383 307.311 139.236 312.542 142.802C318.962 147.161 325.778 150.966 332.673 154.612C338.935 158.02 344.403 161.982 348.525 167.927C350.11 170.225 353.201 171.572 355.499 173.395C358.035 175.377 361.285 177.041 362.712 179.657C367.308 188.058 374.283 193.13 382.922 196.221C385.379 197.093 387.994 197.648 390.451 198.678C393.938 200.184 394.414 202.562 392.036 205.573C391.957 205.653 391.878 205.811 391.799 205.89C390.055 207.951 386.488 210.646 386.964 211.993C387.915 215.005 390.768 217.541 393.146 219.919C396.078 222.93 399.407 225.625 402.577 228.32C406.699 231.807 408.442 236.245 408.363 241.635C408.284 245.756 408.442 249.798 408.759 253.92C409.235 260.102 409.473 266.284 413.99 271.356C415.338 272.941 415.813 275.715 415.813 278.013C415.892 283.403 415.1 288.872 415.338 294.261C415.496 298.62 416.526 303.058 417.478 307.338C420.252 319.068 423.66 330.719 425.958 342.607C426.671 346.174 425.324 350.454 424.056 354.099C422.391 358.775 420.172 363.372 417.795 367.731C415.338 372.249 413.99 377.163 412.326 381.998C410.345 387.863 406.619 393.252 402.894 398.245C399.407 402.921 395.682 407.201 394.018 412.987C392.274 419.169 387.836 423.528 383.16 427.728C381.337 429.393 379.276 431.929 379.197 434.227C378.642 444.293 371.667 450.396 366.199 457.608C355.975 471.24 340.361 473.38 325.699 477.739C323.083 478.532 320.151 479.324 317.536 479.007C312.542 478.452 306.836 478.452 302.794 475.916C292.253 469.496 281.236 464.265 269.665 460.144C262.532 457.608 255.953 454.279 251.277 447.701C249.851 445.64 246.918 444.214 244.461 443.263C232.018 438.586 219.575 433.752 206.894 429.868C199.127 427.491 190.805 427.015 182.879 425.351C174.795 423.686 172.1 420.833 170.912 412.828C170.198 408.073 168.296 404.586 163.858 402.129C161.005 400.623 159.023 397.611 156.328 395.788C153.792 394.124 150.781 392.539 147.927 392.222C141.983 391.588 137.465 389.685 134.295 384.217C132.789 381.681 129.936 379.699 127.321 378.035C123.913 375.816 121.614 373.042 120.901 369C120.822 368.445 120.742 367.89 120.505 367.494C115.591 358.696 116.938 349.661 118.127 340.23C118.999 333.334 114.798 327.073 109.884 322.001C106.318 318.355 102.276 315.105 98.4714 311.618C92.448 306.07 86.1867 300.76 80.6388 294.895C71.8414 285.543 67.5615 270.246 80.1633 257.248C80.7181 256.694 81.1936 256.059 81.8276 255.505C88.6437 249.56 89.5155 242.507 86.4245 234.343C85.7112 232.441 85.7904 229.746 86.6623 227.924C88.2474 224.516 90.6251 221.504 92.6065 218.254C97.8374 209.774 102.276 201.61 103.385 190.832C104.891 176.962 101.562 163.805 101.879 150.252C102.117 142.327 104.653 138.047 112.183 135.907C121.059 133.45 130.095 131.627 139.13 129.487C140.398 129.17 141.825 129.012 142.855 128.299C151.811 121.958 162.273 122.196 172.497 121.403C184.623 120.531 196.67 119.501 208.796 118.55C214.027 118.709 219.416 118.471 224.806 118.074ZM389.421 203.909C389.183 203.433 388.866 202.879 388.628 202.403C386.171 201.61 383.635 200.976 381.178 200.025C371.747 196.538 364.138 190.911 359.224 181.796C358.194 179.815 355.658 178.626 353.756 177.12C350.902 174.901 347.415 173.158 345.275 170.384C341.392 165.232 336.716 161.507 331.247 158.495C323.718 154.374 316.267 150.094 309.055 145.497C303.507 141.851 297.563 139.553 291.064 138.76C286.467 138.126 281.87 137.889 277.273 138.047C269.744 138.285 263.166 136.066 256.667 132.341C244.461 125.287 231.543 121.086 217.039 122.592C200.157 124.336 183.117 125.128 166.156 126.396C158.468 126.951 150.939 127.744 144.361 132.42C142.934 133.45 140.873 133.609 139.13 134.084C130.649 136.066 122.09 137.73 113.689 140.028C106.793 141.931 105.129 144.705 105.525 151.996C106.397 167.213 108.458 182.272 106.635 197.727C105.367 208.506 99.5018 215.877 93.2405 223.327C90.308 226.893 88.5644 230.856 89.991 235.374C92.765 243.775 92.448 251.463 85.3149 257.882C83.9676 259.071 82.7787 260.577 81.6691 262.004C74.1398 271.831 74.6946 283.561 83.492 292.438C88.9607 297.907 94.9049 302.979 100.611 308.21C104.891 312.094 109.647 315.66 113.372 320.019C119.95 327.549 125.022 336.029 121.694 346.649C118.84 355.922 124.15 363.531 126.37 371.774C126.766 373.121 128.827 373.993 130.095 375.102C132.869 377.638 136.039 379.937 138.258 382.949C140.398 385.802 142.538 388.021 146.184 388.021C153.237 387.942 158.389 391.429 162.907 396.422C163.779 397.373 164.809 398.404 165.918 398.879C172.021 401.732 174.716 406.726 175.112 413.066C175.429 418.535 178.916 420.595 183.434 421.546C189.775 422.894 196.115 423.845 202.456 425.113C207.766 426.223 213.076 427.094 218.228 428.759C226.391 431.453 234.396 434.465 242.242 437.873C246.76 439.855 251.674 442.153 254.844 445.64C259.282 450.554 264.434 453.804 270.457 456.023C282.425 460.303 294.076 465.137 304.617 472.429C308.58 475.203 313.335 476.392 318.249 475.124C326.174 473.063 334.021 470.844 341.867 468.783C349.951 466.643 357.005 463.077 362.236 456.181C367.784 448.89 374.838 442.629 375.472 432.484C375.63 430.106 377.849 427.491 379.831 425.747C385.379 421.071 389.183 415.602 391.64 408.786C392.829 405.457 395.444 402.604 397.426 399.513C401.072 393.965 404.876 388.417 408.442 382.79C409.156 381.681 409.156 380.016 409.473 378.59C409.869 376.767 410.107 374.865 410.82 373.279C413.515 367.573 416.13 361.787 419.221 356.239C423.263 349.027 423.342 341.577 421.123 334.048C418.429 324.854 414.466 315.898 412.564 306.546C411.058 299.175 411.85 291.408 411.454 283.799C411.296 280.312 411.85 276.032 410.027 273.654C405.985 268.106 405.193 262.083 404.638 255.742C404.242 250.591 404.48 245.439 403.766 240.367C403.37 237.672 402.181 234.819 400.437 232.758C397.743 229.588 394.255 227.052 391.164 224.119C388.628 221.662 386.251 218.968 383.952 216.273C381.495 213.42 381.416 210.487 384.428 207.951C386.013 206.445 387.757 205.177 389.421 203.909Z" fill="#E3DECA"/>
<path d="M222.983 138.84C229.403 137.73 234.713 139.553 238.913 144.705C239.389 145.259 240.102 145.814 240.816 146.131C252.07 151.283 263.324 155.404 276.164 150.966C282.98 148.588 290.43 147.161 297.404 150.649C303.824 153.819 311.116 155.721 315.633 161.982C316.584 163.25 318.487 163.805 319.834 164.836C322.687 166.976 325.62 168.957 328.077 171.493C331.009 174.505 333.942 176.962 338.221 177.913C339.886 178.309 341.788 179.26 342.977 180.528C348.762 186.948 354.231 193.764 360.175 200.105C362.553 202.641 365.644 204.701 368.735 206.207C373.649 208.506 375.947 212.389 377.691 217.145C378.483 219.285 379.672 221.504 381.178 223.168C387.202 229.905 391.719 237.276 393.067 246.39C394.176 254.078 395.207 261.766 396.712 269.375C397.505 273.337 399.249 277.142 400.834 280.867C402.894 285.701 403.925 290.615 403.053 295.925C401.943 302.583 402.577 308.844 405.193 315.264C408.918 324.616 411.85 334.365 409.314 344.589C408.442 348.234 407.57 352.435 405.193 354.971C400.12 360.281 399.011 366.622 397.505 373.2C395.524 382.156 393.304 391.191 390.372 399.83C389.183 403.318 386.013 406.329 383.239 408.945C380.227 411.877 376.185 413.779 373.253 416.712C370.003 420.041 366.674 423.686 364.693 427.728C361.523 434.227 357.322 439.617 351.299 443.5C344.245 447.939 337.191 452.377 329.979 456.419C323.242 460.223 316.03 461.095 308.183 459.748C297.167 457.846 286.784 454.676 277.67 448.414C273.152 445.323 269.506 440.964 265.623 437.081C261.66 433.197 257.856 429.155 254.051 425.192C249.613 420.675 243.748 419.565 237.962 418.218C228.372 415.999 218.703 415.285 208.955 414.968C187.159 414.176 170.912 403.952 160.212 384.851C158.785 382.235 155.694 380.333 153 378.748C149.037 376.45 144.519 375.182 140.556 372.883C133.265 368.683 130.808 361.708 129.778 353.703C128.034 339.675 127.321 325.25 119.474 312.728C118.92 311.856 118.523 310.746 117.731 310.112C112.975 306.466 108.458 302.028 103.148 299.413C92.1309 294.102 88.9607 284.592 87.1378 273.813C86.1074 267.393 88.1681 261.607 92.4479 257.011C97.5996 251.542 98.5507 244.964 98.7884 237.989C98.8677 235.849 98.9469 233.788 99.264 231.649C99.9773 226.655 102.513 223.089 107.348 221.266C108.458 220.87 109.488 220.236 110.598 219.76C118.999 216.035 120.108 213.895 118.444 204.781C117.334 198.837 115.511 192.813 115.591 186.869C115.67 179.577 116.7 172.206 118.682 165.153C120.267 159.288 125.815 156.276 131.521 155.008C141.19 152.868 150.939 151.283 160.608 149.46C178.52 146.131 196.353 142.802 214.265 139.474C216.88 139.394 219.971 139.236 222.983 138.84ZM225.044 142.406C221.239 142.961 217.435 143.278 213.71 143.991C197.462 147.003 181.294 150.094 165.126 153.106C154.109 155.166 143.093 156.989 132.076 159.288C127.321 160.318 122.882 162.854 121.614 167.927C119.395 176.724 117.731 185.759 120.188 194.874C120.98 197.648 121.376 200.58 121.773 203.433C123.833 216.669 122.803 219.047 110.439 224.278C104.97 226.576 102.751 230.222 102.751 235.77C102.83 245.043 100.849 253.365 94.6671 261.053C86.8208 270.88 92.2102 288.634 103.148 294.895C109.488 298.541 116.463 302.504 120.663 308.131C125.577 314.709 128.668 323.031 130.808 331.036C133.106 339.516 133.186 348.472 134.454 357.19C135.088 361.787 137.228 365.909 141.27 368.366C145.312 370.743 149.592 372.883 153.951 374.468C157.993 375.974 161.401 377.956 163.382 381.76C172.259 398.641 185.891 408.469 205.15 410.451C215.454 411.481 225.915 410.451 236.139 413.383C243.589 415.523 251.436 416.316 257.222 422.339C263.324 428.759 269.506 435.02 275.688 441.281C276.877 442.47 278.224 443.58 279.651 444.531C288.765 450.475 298.91 453.566 309.531 455.468C316.267 456.657 322.449 455.468 328.156 452.219C334.972 448.414 341.55 444.214 348.128 440.092C353.914 436.447 357.718 431.374 360.73 425.271C362.949 420.912 366.357 417.108 369.845 413.542C372.856 410.451 376.898 408.469 380.148 405.537C382.605 403.318 385.379 400.623 386.409 397.611C389.183 389.289 391.085 380.65 393.463 372.17C394.969 366.622 394.731 360.44 399.249 356.002C407.333 348.234 406.857 338.407 405.193 328.737C404.242 323.11 401.547 317.721 400.041 312.173C399.169 308.923 398.456 305.436 398.852 302.107C399.724 293.706 399.962 285.622 395.682 277.934C394.255 275.319 393.463 272.228 392.908 269.295C391.64 261.766 390.61 254.237 389.659 246.707C388.549 238.544 384.507 231.886 379.355 225.704C377.374 223.327 375.789 220.553 374.679 217.62C373.173 213.816 371.43 210.804 367.467 208.744C363.742 206.841 360.175 204.067 357.243 200.976C351.536 194.794 346.305 188.216 340.837 181.796C340.361 181.242 339.569 180.766 338.855 180.528C332.753 178.547 327.68 175.218 322.687 171.097C315.871 165.47 308.183 160.873 300.733 156.117C295.185 152.63 289.241 151.283 282.583 153.026C277.115 154.453 271.488 155.483 265.86 156.197C262.69 156.593 259.124 156.751 256.112 155.8C250.088 153.898 244.382 151.283 238.517 148.905C237.566 148.509 236.694 147.716 236.06 146.924C233.286 143.595 229.72 141.772 225.044 142.406Z" fill="#E3DECA"/>
<path d="M222.666 397.294C218.861 397.294 214.978 397.215 211.174 397.294C204.595 397.452 199.047 395.471 193.579 391.429C186.129 385.881 177.965 381.126 169.96 376.291C165.522 373.596 160.687 371.377 156.091 368.841C153.713 367.494 151.177 366.067 149.512 364.086C146.263 360.202 143.172 356.001 140.636 351.563C138.971 348.71 137.624 345.223 137.545 341.973C137.465 335.157 138.099 328.262 138.733 321.446C139.209 317.007 138.416 313.362 134.454 310.746C133.265 309.954 132.076 308.923 131.283 307.814C126.766 301.632 120.505 297.748 113.689 294.657C106.159 291.249 102.434 285.226 101.879 277.3C100.849 264.54 104.416 252.414 108.775 240.684C111.073 234.66 116.145 230.697 122.169 228.399C126.687 226.655 131.442 225.387 136.039 223.802C137.069 223.406 137.941 222.534 138.892 221.9C138.258 220.949 137.782 219.839 136.911 219.205C132.71 216.352 131.204 212.706 131.521 207.396C131.838 202.165 130.412 196.776 129.778 191.466C129.698 190.594 129.381 189.643 129.143 188.771C126.052 176.011 128.034 171.255 140.319 166.738C151.335 162.696 162.827 159.525 174.161 156.514C177.41 155.642 181.373 155.88 184.623 156.91C190.963 158.891 196.749 158.336 202.772 156.038C206.26 154.691 210.223 153.581 213.789 153.819C217.435 154.057 222.032 155.087 224.251 157.544C232.573 167.134 243.035 167.213 254.051 165.787C260.154 164.994 266.257 163.647 272.439 163.013C281.078 162.141 289.241 164.756 297.008 168.085C299.307 169.115 300.892 171.81 302.952 173.633C304.696 175.218 306.598 176.645 308.579 177.913C309.293 178.388 310.323 178.388 311.274 178.547C320.468 179.973 327.046 185.363 333.545 191.783C342.184 200.342 349.793 210.012 360.809 216.273C367.942 220.315 371.826 227.844 372.698 236.008C373.728 244.963 377.136 252.651 382.129 259.784C385.379 264.461 387.043 269.137 385.062 274.922C383.477 279.757 382.446 284.909 381.891 289.902C381.654 292.438 382.526 295.45 383.794 297.748C387.677 304.564 389.024 311.142 385.537 318.83C384.269 321.604 385.458 325.805 386.409 329.054C389.183 338.724 392.433 348.155 390.372 358.458C389.342 363.61 387.36 368.128 383.794 372.17C378.087 378.352 372.46 384.692 367.546 391.429C365.089 394.837 364.217 399.355 362.553 403.397C357.639 415.285 349.951 424.637 338.063 430.185C331.167 433.435 324.272 432.404 317.298 430.106C312.701 428.6 307.945 427.49 303.349 426.222C299.861 425.271 296.216 424.4 292.808 423.131C287.894 421.309 282.98 419.327 278.145 417.266C271.725 414.492 266.098 410.609 261.66 405.219C258.41 401.336 254.527 399.434 249.375 398.958C240.498 398.166 231.701 396.818 222.824 395.709C222.745 396.501 222.745 396.898 222.666 397.294ZM222.904 392.459C222.983 392.063 222.983 391.667 223.062 391.191C233.207 392.459 243.431 393.331 253.496 395.075C256.904 395.63 260.947 397.611 262.928 400.226C272.28 412.432 287.101 414.651 299.624 421.071C300.812 421.705 302.477 421.388 303.903 421.705C308.5 422.735 313.256 423.369 317.615 425.192C325.382 428.362 332.673 428.6 339.886 424.003C350.585 417.266 356.688 407.201 360.413 395.392C361.206 392.935 362.236 390.319 363.821 388.338C368.893 381.997 374.204 375.736 379.752 369.792C383.001 366.225 384.982 362.342 385.854 357.666C387.677 348.314 384.824 339.675 382.446 330.877C381.337 326.835 379.831 321.763 381.178 318.355C384.111 311.222 383.08 305.515 379.514 299.254C378.008 296.639 377.136 293.231 377.374 290.298C377.929 284.829 379.197 279.361 380.861 274.13C382.367 269.533 381.178 265.966 378.563 262.321C373.015 254.633 369.527 246.311 368.339 236.721C367.308 228.557 363.028 221.979 355.42 217.937C353.438 216.907 351.536 215.639 349.951 214.054C342.977 207.396 335.923 200.897 329.424 193.843C324.193 188.137 318.407 184.095 310.719 182.906C309.134 182.668 307.391 182.43 306.202 181.638C303.903 180.132 301.843 178.23 299.861 176.328C298.276 174.822 297.167 172.444 295.264 171.652C285.674 167.609 275.767 165.47 265.147 167.689C258.331 169.115 251.357 169.591 244.382 170.225C236.377 170.938 229.561 168.402 224.092 162.379C221.477 159.525 218.307 157.544 214.423 157.702C211.094 157.861 207.607 158.336 204.516 159.605C197.462 162.379 190.646 163.33 183.355 160.635C180.898 159.763 177.807 159.684 175.191 160.239C164.65 162.696 154.03 165.073 143.727 168.402C130.332 172.761 128.509 177.754 132.869 191.228C134.533 196.459 134.929 202.244 135.008 207.872C135.088 211.597 136.118 213.974 138.971 216.273C140.794 217.779 143.013 220.553 142.696 222.455C142.379 224.357 139.526 226.418 137.307 227.369C132.869 229.271 128.034 230.38 123.437 232.124C118.285 234.026 113.926 237.434 112.183 242.665C108.458 253.999 104.653 265.491 106.397 277.855C107.269 283.878 110.281 287.762 115.591 290.774C121.614 294.182 127.083 298.541 132.71 302.583C134.612 303.93 135.96 306.149 137.782 307.497C142.379 310.905 143.964 315.343 143.489 320.97C142.855 327.786 142.221 334.682 142.3 341.498C142.3 344.192 143.568 347.125 144.995 349.502C147.214 353.307 149.988 356.873 152.762 360.361C153.871 361.787 155.219 363.372 156.804 363.927C171.466 368.92 182.483 379.937 195.719 387.308C201.584 390.557 206.815 392.935 213.393 392.538C216.563 392.38 219.733 392.459 222.904 392.459Z" fill="#E3DECA"/>
<path d="M177.807 171.969C189.14 173.633 200.474 175.298 211.808 177.041C221.873 178.547 231.86 180.132 241.925 181.717C248.741 182.827 255.399 182.034 261.66 179.102C270.219 175.06 277.749 177.913 284.486 182.985C288.369 185.997 291.936 188.533 297.087 188.771C300.02 188.93 303.111 190.039 305.647 191.545C315.713 197.886 325.382 204.702 333.624 213.42C339.014 219.126 345.117 224.278 351.14 229.35C355.658 233.234 358.115 238.068 358.035 243.854C357.956 250.908 359.7 257.011 365.248 261.925C371.033 266.997 372.618 273.575 369.369 280.629C366.833 286.177 366.754 291.725 367.546 297.59C369.131 309.478 370.32 321.446 371.43 333.334C371.747 336.901 372.064 340.626 371.192 343.955C370.162 348.076 368.418 352.277 365.882 355.685C361.681 361.232 356.45 365.988 351.933 371.377C350.189 373.517 349.238 376.291 348.208 378.907C347.494 380.73 347.574 382.949 346.622 384.613C342.501 391.508 338.38 398.404 333.783 404.982C331.167 408.707 326.967 409.817 322.529 409.341C314.286 408.39 306.123 407.122 297.88 406.409C290.192 405.774 284.644 400.861 278.304 397.373C270.854 393.252 263.562 388.497 255.636 385.643C247.235 382.632 238.993 377.797 229.403 378.907C223.379 379.62 217.435 380.65 211.411 381.601C202.297 383.028 195.243 380.254 189.854 372.487C188.11 369.951 185.098 368.049 182.324 366.384C175.35 362.184 168.058 358.459 161.163 354.099C152.286 348.393 150.78 341.894 156.725 332.066C161.163 324.616 158.706 316.928 159.499 309.32C155.694 305.119 153.792 299.175 147.769 297.114C141.824 295.054 137.307 292.2 134.612 285.701C132.71 281.105 128.351 277.3 124.467 273.813C118.602 268.582 116.938 263.43 120.425 256.297C123.516 249.957 127.955 244.964 134.533 241.793C141.666 238.385 148.641 234.66 155.536 230.777C160.45 228.003 160.45 226.497 156.725 222.217C154.664 219.839 152.683 217.303 150.463 215.084C146.104 210.567 147.135 204.226 144.519 199.074C144.281 198.52 144.281 197.648 144.598 197.093C147.452 191.069 149.671 184.491 153.554 179.26C157.438 174.029 164.095 173.237 170.436 172.92C172.814 172.841 175.191 172.92 177.569 172.92C177.728 172.603 177.728 172.286 177.807 171.969ZM180.343 175.932C173.368 176.566 168.455 176.249 164.016 177.596C160.37 178.706 156.645 181.242 154.347 184.253C151.732 187.503 150.384 191.941 148.958 195.983C148.403 197.489 149.037 199.471 149.433 201.214C149.829 203.275 151.494 205.494 151.018 207.158C149.829 210.963 151.969 213.103 153.951 215.48C155.377 217.145 157.121 218.651 158.627 220.315C164.095 225.863 163.778 229.588 157.121 233.472C150.305 237.434 143.33 241.318 136.277 244.805C130.491 247.658 126.607 252.097 123.833 257.645C120.98 263.351 122.327 266.918 127.004 271.198C131.125 275.002 135.722 279.044 137.941 283.958C140.477 289.743 144.519 291.963 149.671 293.944C151.89 294.816 153.871 296.48 155.615 298.145C157.596 300.047 159.34 302.266 160.846 304.564C161.956 306.387 163.224 308.527 163.224 310.509C163.303 319.464 164.888 328.817 159.023 336.901C158.785 337.218 158.706 337.614 158.627 338.01C156.725 343.875 157.121 346.095 162.193 349.582C168.058 353.624 174.082 357.428 180.422 360.678C186.208 363.689 191.677 366.622 195.56 372.328C197.225 374.785 201.029 376.846 204.041 377.242C208.479 377.797 213.234 377.084 217.673 376.212C228.134 374.231 238.359 373.834 248.266 378.748C249.771 379.541 251.515 379.858 253.179 380.333C263.007 383.107 272.28 387.229 280.444 393.569C287.656 399.196 295.502 402.842 305.171 402.446C310.165 402.208 315.316 403.872 320.309 404.665C324.034 405.299 328.077 405.774 330.533 402.287C334.972 395.947 338.935 389.21 342.977 382.632C343.531 381.681 343.848 380.413 343.848 379.224C344.007 374.231 346.781 370.743 350.03 367.256C354.865 362.184 359.62 357.032 363.9 351.484C365.644 349.186 366.833 345.936 366.912 343.083C367.15 337.773 366.437 332.383 365.961 326.994C365.168 317.404 364.376 307.814 363.266 298.224C362.553 291.963 361.998 285.939 365.01 280.074C367.705 274.685 367.15 269.612 362.474 265.333C356.45 259.864 353.756 253.206 353.756 244.964C353.756 241.318 352.25 236.8 349.713 234.264C341.233 225.625 332.277 217.383 323.163 209.457C316.981 204.147 310.165 199.55 303.507 194.874C301.605 193.606 299.148 192.813 296.85 192.655C290.985 192.338 286.546 189.801 282.108 185.918C277.59 181.955 271.329 179.102 265.702 181.717C254.685 186.869 243.748 186.156 232.414 184.174C214.185 181.242 196.273 178.468 180.343 175.932Z" fill="#E3DECA"/>
<path d="M180.977 189.246C192.707 189.326 203.803 191.624 214.978 195.666C228.135 200.422 242.084 202.799 256.191 200.818C259.679 200.342 262.928 198.123 266.415 197.093C269.189 196.3 272.439 194.953 274.975 195.745C286.784 199.391 298.831 202.72 307.47 212.706C309.451 215.005 312.463 216.431 315.158 218.016C320.151 220.949 325.382 223.485 330.375 226.418C335.21 229.271 338.063 233.709 338.697 239.257C339.331 244.805 341.709 248.926 346.464 251.938C351.774 255.346 352.091 260.577 351.061 265.966C350.189 270.88 349.555 275.398 352.805 279.915C353.914 281.501 353.676 284.671 353.042 286.811C351.378 292.121 351.14 297.51 352.17 302.821C354.073 312.411 350.11 320.415 345.988 328.341C342.897 334.285 339.41 339.992 334.179 344.509C330.613 347.521 327.284 351.325 325.303 355.447C323.4 359.489 322.529 364.323 322.449 368.92C322.212 382.949 314.048 385.564 302.398 381.68C291.619 378.035 280.998 374.23 270.14 370.822C265.781 369.475 261.184 368.841 256.588 368.286C250.326 367.414 243.986 366.622 237.725 366.225C228.372 365.671 219.02 365.433 209.668 365.433C204.199 365.433 199.206 364.323 194.609 361.391C187.318 356.715 180.026 351.88 172.655 347.283C165.126 342.528 163.779 338.327 167.821 330.402C171.07 324.061 171.466 317.562 170.991 310.508C170.436 300.601 166.79 294.182 157.28 290.774C153.237 289.347 149.512 286.811 146.025 284.275C138.813 278.885 138.258 270.88 138.654 262.875C138.734 260.815 140.953 258.437 142.855 257.09C146.104 254.712 149.75 252.731 153.396 250.908C161.084 247.183 166.949 241.318 172.417 234.977C174.637 232.362 175.429 229.35 173.844 226.101C171.546 221.345 169.406 216.511 166.553 212.072C163.065 206.762 162.273 201.531 164.492 195.587C166.156 191.149 169.168 189.088 173.844 189.088C176.222 189.246 178.599 189.246 180.977 189.246ZM182.087 192.734C180.105 192.734 178.124 192.734 176.143 192.734C168.534 192.654 164.175 198.916 167.187 205.969C169.485 211.438 172.18 216.748 174.874 221.979C177.49 227.131 178.679 232.203 174.557 237.117C169.009 243.695 163.144 249.957 155.14 253.761C151.732 255.425 148.324 257.327 145.153 259.467C143.727 260.418 141.825 262.162 141.825 263.589C141.825 270.167 141.745 277.221 147.769 281.501C152.445 284.909 157.676 287.524 162.907 289.981C169.089 292.993 173.369 296.956 173.448 304.326C173.448 306.308 173.844 308.289 174.24 310.191C175.667 317.879 174.716 325.091 170.991 332.066C167.821 338.01 168.613 340.546 174.399 344.113C180.422 347.838 186.921 351.008 192.469 355.367C198.651 360.202 205.309 362.263 212.997 362.104C219.892 361.946 226.866 361.391 233.603 362.342C251.515 364.878 269.982 365.116 286.863 373.041C289.241 374.151 291.857 374.785 294.393 375.419C300.02 376.846 305.568 378.589 311.274 379.382C315.396 379.937 317.536 377.559 318.09 373.359C318.407 370.743 318.407 368.048 318.962 365.512C319.992 360.915 320.547 356.001 322.687 351.959C324.669 348.076 327.918 344.589 331.326 341.735C336.557 337.455 339.648 331.828 342.422 326.043C345.592 319.385 349.793 312.886 348.287 304.723C347.177 298.382 347.098 291.883 349.079 285.543C349.555 284.116 349.634 282.055 348.842 280.946C345.434 276.111 345.83 271.197 347.177 265.808C348.445 260.656 347.811 256.059 342.263 253.048C338.301 250.908 336.002 247.024 335.527 242.348C334.813 235.056 330.93 230.222 324.589 226.972C320.944 225.149 317.219 223.327 313.731 221.345C310.799 219.681 307.47 218.096 305.33 215.639C297.325 206.524 286.467 202.958 275.688 198.916C272.439 197.727 269.744 198.202 266.812 200.104C264.038 201.927 260.63 203.275 257.38 203.75C242.559 206.207 227.976 203.75 214.106 198.916C203.565 195.508 193.103 193.13 182.087 192.734Z" fill="#E3DECA"/>
<path d="M200.791 202.244C206.339 203.671 212.045 204.701 217.514 206.524C222.507 208.189 227.104 210.963 232.018 212.706C240.181 215.718 248.503 214.608 256.508 212.151C270.14 207.951 283.614 208.664 293.996 218.492C302.635 226.655 313.018 231.014 322.687 236.879C326.729 239.336 329.741 242.586 329.186 247.737C328.869 250.749 330.137 252.176 332.594 253.127C333.07 253.285 333.545 253.523 334.1 253.682C344.086 256.773 343.214 264.857 339.41 271.752C337.984 274.368 336.319 276.983 335.051 279.678C333.862 282.293 333.545 284.75 336.081 287.207C338.776 289.743 338.935 293.151 336.874 296.321C335.051 299.175 332.99 301.949 330.692 304.485C327.601 307.893 325.065 311.459 323.004 315.818C319.675 322.952 315.158 329.53 311.036 336.267C308.342 340.784 305.647 345.302 302.715 349.661C301.526 351.405 299.782 353.227 297.88 354.02C290.43 357.032 282.663 357.587 275.054 354.813C265.068 351.167 254.765 350.136 244.303 350.216C240.895 350.216 237.407 350.136 233.999 350.453C221.001 351.959 208.875 347.838 196.749 344.351C191.677 342.924 187.555 339.754 185.495 334.523C184.068 330.798 184.623 327.548 187.793 324.933C188.823 324.061 189.933 323.348 190.884 322.476C196.273 317.879 197.066 313.996 193.341 308.21C191.518 305.436 188.903 303.137 186.763 300.601C185.415 299.016 183.83 297.431 183.117 295.529C181.611 291.645 178.599 289.347 175.588 286.652C170.594 282.214 165.839 277.379 161.956 271.99C158.151 266.68 159.102 262.796 163.62 259.784C168.296 256.614 172.576 252.81 176.459 248.688C180.422 244.409 184.385 239.733 187 234.581C188.982 230.539 188.903 225.466 189.695 220.87C190.012 218.809 190.091 216.748 190.409 214.688C190.488 213.895 191.122 212.865 190.805 212.468C189.854 211.2 187.476 210.329 189.616 208.506C192.073 206.445 193.341 202.561 197.621 203.275C198.493 203.433 199.444 203.275 200.395 203.275C200.633 202.799 200.712 202.482 200.791 202.244ZM202.138 204.305C200.078 205.177 196.67 205.494 196.115 206.92C194.53 211.121 194.054 215.718 193.262 220.156C192.39 225.308 192.628 230.935 190.488 235.453C187.714 241.238 183.434 246.549 179.075 251.383C175.508 255.425 170.991 258.516 166.949 262.004C163.224 265.174 162.748 266.917 165.839 270.484C170.119 275.398 175.033 279.836 179.55 284.592C181.928 287.128 184.068 289.902 186.208 292.676C187.635 294.499 188.744 296.797 190.567 298.144C195.56 301.632 197.383 307.1 199.999 312.014C200.553 313.045 200.474 314.867 199.919 315.818C197.938 319.227 196.115 322.872 193.341 325.488C188.031 330.639 187.952 334.285 194.451 338.327C196.432 339.595 198.73 340.388 200.95 341.18C215.057 346.015 229.561 346.808 244.303 346.094C255.557 345.54 266.653 346.966 277.353 350.929C283.535 353.227 289.875 352.752 295.978 350.533C297.563 349.978 298.99 348.472 299.941 347.045C302.794 342.924 305.409 338.644 308.025 334.364C312.146 327.628 316.822 321.129 320.151 313.996C322.291 309.478 324.906 305.594 328.156 301.949C330.216 299.729 331.881 297.193 333.704 294.816C335.447 292.517 335.13 290.298 333.07 288.475C330.216 285.939 330.375 282.769 331.485 279.757C332.673 276.587 334.179 273.416 336.081 270.642C340.916 263.509 339.886 259.388 331.96 256.139C328.077 254.553 325.382 252.334 326.174 247.579C326.808 243.933 324.589 241.397 321.815 239.812C315.792 236.325 309.451 233.392 303.428 229.826C300.495 228.161 297.642 226.021 295.502 223.485C289.241 216.035 280.681 213.42 271.725 212.944C266.257 212.627 260.629 214.767 255.082 215.956C244.54 218.096 234.554 217.779 224.885 212.072C217.99 208.189 210.54 205.256 202.138 204.305Z" fill="#E3DECA"/>
<path d="M214.106 223.168C217.197 223.961 220.922 224.595 224.33 225.863C234.633 229.667 245.175 228.082 255.716 227.21C256.35 227.131 256.984 226.814 257.539 226.497C268.476 219.919 281.078 221.504 290.747 230.063C294.076 232.996 298.118 235.215 302.001 237.355C307.391 240.367 311.671 243.933 312.939 250.432C313.256 252.176 315.396 253.761 316.981 255.029C318.407 256.139 320.309 256.693 321.974 257.407C331.247 261.607 333.545 269.137 329.424 278.489C326.571 285.067 322.766 290.536 317.298 295.212C315.396 296.876 314.603 299.888 313.493 302.424C311.433 307.259 309.451 312.093 307.549 317.007C305.964 321.049 304.22 325.012 303.269 329.213C302.001 334.919 298.435 338.724 292.649 338.169C287.894 337.772 283.297 335.87 278.541 335.078C274.896 334.444 270.933 333.73 267.446 334.523C252.942 338.09 238.676 339.912 224.489 333.572C220.684 331.828 216.563 330.481 213.076 328.182C208.4 325.171 207.766 321.208 209.985 316.136C211.411 312.886 212.917 309.637 213.71 306.229C214.027 304.723 213.234 302.266 212.045 301.315C209.826 299.333 206.973 297.986 204.358 296.559C199.84 294.261 197.066 290.615 195.877 285.701C195.322 283.561 194.688 281.342 194.213 279.202C193.182 274.288 190.409 270.96 185.97 268.74C183.751 267.631 181.532 266.283 179.63 264.698C174.874 260.656 174.954 257.803 179.63 253.682C185.098 248.926 190.567 244.25 196.115 239.495C198.334 237.593 199.919 235.849 198.176 232.441C196.828 229.826 199.047 226.18 202.059 225.387C205.943 224.436 209.747 223.961 214.106 223.168ZM214.106 226.021C209.826 226.735 206.577 227.21 203.407 227.844C201.267 228.24 200.395 229.746 201.504 231.648C203.961 235.691 202.138 238.782 199.285 241.476C194.53 245.915 189.774 250.194 184.861 254.395C178.679 259.547 178.679 260.26 185.891 264.302C187.238 265.095 188.586 265.966 190.012 266.68C194.134 268.82 196.432 272.465 197.779 276.745C198.493 279.044 199.047 281.342 199.602 283.641C200.633 288.158 202.931 291.408 207.29 293.468C210.54 295.053 213.789 297.114 216.325 299.65C217.752 301.156 218.624 304.247 218.148 306.308C217.356 310.271 215.533 313.996 213.868 317.721C212.363 321.049 212.838 323.823 216.008 325.488C219.733 327.469 223.617 329.134 227.5 330.719C239.944 335.87 252.625 334.681 265.068 331.194C271.091 329.53 276.243 329.688 281.791 332.304C285.357 333.968 289.558 334.681 293.521 335.078C297.167 335.395 298.99 332.859 300.02 329.451C301.367 324.774 303.032 320.257 304.775 315.66C306.519 310.984 308.421 306.387 310.402 301.869C311.75 298.858 312.701 295.212 314.999 293.31C320.547 288.713 324.352 283.244 327.284 276.745C330.454 269.533 328.394 262.955 321.181 259.864C319.279 259.071 317.139 258.358 315.475 257.09C313.573 255.584 311.036 253.682 310.64 251.621C309.531 245.36 305.409 242.348 300.416 239.574C296.295 237.276 292.094 234.819 288.765 231.569C284.486 227.369 279.651 225.149 273.945 225.229C268.555 225.229 262.69 223.802 258.569 229.112C258.173 229.667 257.142 229.905 256.429 229.984C245.65 231.014 234.951 232.52 224.33 228.637C220.764 227.369 216.959 226.735 214.106 226.021Z" fill="#E3DECA"/>
<path d="M211.332 243.061C211.015 237.593 212.759 235.928 219.099 235.373C232.89 234.185 246.601 232.599 260.392 231.569C265.543 231.173 271.091 231.173 275.926 232.599C280.047 233.868 283.535 237.434 287.18 240.129C290.668 242.744 294.076 245.36 297.325 248.213C301.05 251.621 304.537 255.425 308.104 258.992C309.689 260.577 311.195 262.162 312.859 263.589C313.969 264.54 315.316 265.174 316.426 266.046C322.529 271.039 322.212 275.953 315.713 280.312C312.225 282.61 308.342 284.75 305.647 287.841C303.507 290.298 302.477 294.102 302.001 297.431C301.526 300.839 302.08 304.485 302.556 308.051C303.111 312.173 301.763 314.947 298.038 316.77C293.759 318.909 289.796 321.842 285.357 323.189C279.096 325.091 272.597 326.597 266.098 327.073C258.41 327.548 250.564 327.073 242.797 326.28C234.95 325.488 228.689 321.208 223.934 315.026C220.764 310.905 219.733 306.466 222.111 301.315C222.904 299.571 222.428 296.718 221.635 294.816C219.496 289.585 217.039 284.512 214.344 279.519C212.838 276.745 210.936 273.892 208.479 271.99C203.882 268.502 200.474 264.46 199.047 258.754C198.096 254.791 199.127 251.7 202.297 249.322C205.229 247.262 208.241 245.201 211.332 243.061ZM218.386 239.019C220.288 242.427 217.276 243.537 214.819 245.201C211.411 247.5 208.003 249.719 204.992 252.493C203.724 253.682 203.01 256.218 203.248 257.961C203.882 262.717 206.973 266.046 210.936 268.502C214.74 270.801 216.88 274.288 218.465 278.33C220.367 283.086 222.507 287.762 225.123 292.2C227.342 296.004 228.055 299.412 226.312 303.771C225.44 305.832 225.757 309.24 226.866 311.142C230.037 316.294 234.792 320.495 240.815 321.446C258.014 324.299 275.133 325.091 291.064 315.581C298.276 311.301 297.959 311.697 297.167 303.534C296.295 294.974 296.85 286.494 306.043 281.659C308.896 280.153 311.353 277.775 314.048 275.953C316.743 274.13 316.743 272.228 314.365 270.246C313.097 269.137 311.591 268.265 310.323 267.155C308.262 265.332 306.36 263.43 304.458 261.449C301.129 258.12 298.038 254.553 294.63 251.383C291.539 248.53 287.577 246.469 285.12 243.22C279.889 236.166 273.073 233.471 264.83 234.185C249.534 235.611 234.237 237.355 218.386 239.019Z" fill="#E3DECA"/>
<path d="M252.228 246.469C255.557 246.469 258.807 246.469 262.136 246.469C271.091 246.469 278.938 249.64 285.833 255.029C287.735 256.535 289.241 258.675 290.588 260.735C292.966 264.302 294.948 268.185 297.563 271.673C299.861 274.764 299.703 277.458 297.167 280.153C296.057 281.263 295.027 282.689 293.679 283.323C288.607 285.701 287.894 289.664 289.162 294.578C290.192 298.461 289.4 302.028 287.418 305.594C283.693 312.41 277.511 314.55 270.457 314.233C259.441 313.837 249.534 310.271 241.608 302.266C238.2 298.858 235.109 295.053 235.664 289.822C236.932 278.251 230.275 270.88 222.587 263.985C221.239 262.796 219.337 261.766 218.703 260.181C217.99 258.516 217.99 256.297 218.465 254.474C220.13 247.103 226.074 246.549 232.177 246.469C238.834 246.39 245.571 246.469 252.228 246.469ZM295.027 276.19C291.936 270.88 289.241 266.204 286.467 261.687C285.595 260.26 284.327 258.913 282.98 257.961C277.194 253.919 270.933 250.828 263.641 250.67C254.923 250.511 246.205 250.353 237.487 250.353C233.524 250.353 229.482 250.432 225.678 251.383C223.696 251.859 221.715 254.236 220.843 256.218C220.447 257.169 222.19 259.864 223.617 260.656C229.799 264.302 233.366 270.088 237.091 275.873C239.389 279.361 240.419 283.086 239.627 287.128C238.755 292.042 240.736 295.846 244.144 299.175C251.04 305.991 259.52 309.319 269.031 309.795C280.681 310.429 285.912 304.485 284.248 293.072C283.455 287.524 285.041 283.323 290.034 280.391C292.015 279.361 293.521 277.538 295.027 276.19Z" fill="#E3DECA"/>
<path d="M267.604 279.281C268.238 283.72 269.11 286.969 268.951 290.219C268.793 293.548 266.812 296.322 263.324 297.114C259.837 297.907 256.667 297.193 254.21 294.023C251.277 290.377 249.296 286.573 250.088 281.738C250.881 277.062 248.583 274.13 245.016 271.435C242.876 269.85 240.578 267.789 239.468 265.491C238.279 262.955 237.011 258.913 238.2 257.248C239.627 255.188 243.748 253.761 246.522 253.999C256.191 254.95 265.781 256.693 275.371 258.199C277.353 258.516 279.096 258.833 278.145 261.687C277.987 262.241 278.938 263.43 279.651 263.985C284.169 268.027 283.693 271.673 278.224 274.368C274.341 276.27 270.457 277.934 267.604 279.281ZM242.163 258.913C241.846 259.467 241.529 259.943 241.212 260.498C243.193 262.796 244.858 265.57 247.235 267.314C252.545 271.197 255.716 275.715 254.844 282.69C254.606 284.671 255.716 286.969 256.667 288.871C257.697 290.853 259.441 293.072 261.977 291.487C264.513 289.902 264.196 287.207 262.928 284.75C259.995 279.044 260.154 277.934 265.543 274.685C269.11 272.545 272.914 270.88 276.005 269.295C275.847 260.339 269.506 261.132 263.8 260.577C258.49 260.101 253.179 259.071 247.869 258.516C246.046 258.437 244.065 258.833 242.163 258.913Z" fill="#E3DECA"/>
</g>
</svg>
