<svg width="390" height="669" viewBox="0 0 390 669" fill="none" xmlns="http://www.w3.org/2000/svg">
<g opacity="0.08">
<path d="M-22.2766 272.992C-21.5746 271.062 -21.3991 269.833 -20.6971 268.956C-18.0647 265.358 -15.169 261.848 -12.4488 258.251C-7.35941 251.494 -3.32301 244.299 -6.13094 235.348C-6.92067 232.979 -8.50013 230.61 -10.1673 228.767C-15.6955 222.449 -18.2401 215.079 -19.2931 206.918C-21.1358 192.176 -19.2931 177.523 -19.1176 162.781C-19.1176 160.587 -17.8014 158.393 -17.1872 156.112C-16.1342 152.076 -14.6425 148.039 -14.116 143.827C-11.5713 120.662 -9.7286 97.4087 -6.65742 74.331C-5.25346 63.538 -1.65579 53.0082 1.23989 42.4785C3.25809 34.9322 9.66369 31.6855 15.8938 28.3511C21.5974 25.2799 27.4765 22.2087 32.5659 18.1723C35.9003 15.4521 37.743 10.977 40.6387 7.64258C42.8324 5.09789 45.2893 1.85122 48.185 1.06149C54.6784 -0.868969 61.6105 -2.09744 68.367 -2.44843C86.8819 -3.41366 104.782 -7.7133 122.595 -12.3639C132.686 -14.9964 142.865 -16.0494 153.395 -13.6802C164.627 -11.1355 175.946 -8.32754 187.353 -7.27457C199.111 -6.22159 210.957 -7.18682 222.803 -7.01132C230.525 -6.92357 238.335 -7.01132 245.969 -6.13384C249.83 -5.6951 254.305 -3.94014 256.937 -1.30771C264.659 6.85285 274.662 8.9588 284.841 11.0647C291.422 12.381 298.091 12.9075 304.76 13.8727C306.778 14.1359 308.972 14.2237 310.727 15.0134C322.397 20.1028 334.945 20.1028 347.142 21.77C352.846 22.5597 358.374 24.4024 363.902 26.1574C370.395 28.2633 376.538 31.6855 383.119 33.1772C391.279 35.0199 395.14 41.25 400.142 46.6904C409.706 57.0446 413.918 70.2946 420.587 82.2283C424.624 89.4236 429.976 94.864 436.82 98.9882C446.648 104.78 456.652 110.483 463.847 119.609C467.532 124.26 470.779 129.261 474.201 134.175C483.678 148.039 495.436 159.71 508.686 169.976C511.318 172.082 513.512 174.978 515.267 177.961C521.409 188.052 526.587 198.67 537.029 205.602C541.767 208.761 542.294 213.06 540.539 218.413C538.169 225.433 536.941 232.365 542.732 238.595C547.032 243.333 546.067 248.072 542.908 252.986C541.591 254.916 540.451 257.022 539.573 259.128C537.029 265.972 537.818 268.166 543.698 272.553C553.35 279.837 559.404 289.489 562.388 301.335C564.055 307.74 567.126 313.707 569.32 320.025C572.83 330.028 576.427 340.032 579.411 350.21C580.288 353.106 579.937 356.616 579.148 359.599C577.919 364.513 578.621 368.988 579.85 373.815C581.956 382.238 584.237 390.838 584.939 399.437C585.378 404.351 583.359 409.703 581.78 414.617C580.376 418.917 579.148 422.778 581.078 427.253C583.184 432.255 583.096 437.432 581.517 442.697C578.182 454.104 573.883 464.985 568.004 475.251C564.23 481.745 563.441 489.028 564.23 496.486C565.196 505.787 563.09 509.385 554.49 513.158C549.577 515.352 544.575 517.458 539.573 519.564C534.308 521.845 531.852 525.794 532.817 531.41C535.098 543.782 530.799 555.102 527.201 566.509C526.85 567.562 526.323 568.79 525.534 569.58C517.812 578.092 510.353 586.867 502.193 595.027C493.769 603.451 483.151 608.365 471.393 610.646C462.706 612.313 455.686 617.14 448.666 622.229C440.769 627.932 432.17 632.583 423.834 637.673C422.869 638.287 421.64 638.638 420.763 639.252C403.125 652.677 381.627 657.065 361.533 664.523C355.566 666.717 349.073 668.297 342.755 668.56C333.892 668.911 324.942 668.297 316.079 667.244C309.498 666.454 303.18 663.119 296.599 662.768C288.965 662.33 281.243 663.646 273.609 664.787C265.975 665.927 258.692 668.121 250.707 667.068C242.02 666.015 236.931 660.838 231.841 654.871C229.56 652.239 227.191 649.606 224.383 647.676C218.416 643.727 214.643 638.726 212.361 631.706C210.08 624.598 205.429 618.631 196.83 617.403C191.39 616.613 185.861 615.385 180.684 613.542C170.769 610.207 167.873 602.573 172.261 593.184C176.209 584.673 173.665 578.18 164.539 576.074C153.307 573.441 141.812 572.125 130.58 569.317C122.859 567.386 115.575 564.052 108.117 561.156C101.273 558.524 94.6914 554.488 87.5838 553.084C76.3521 550.89 67.2263 545.625 58.7148 538.43C49.6767 530.708 43.7099 520.792 37.392 510.877C32.3904 502.98 25.8971 495.609 18.614 489.817C7.03125 480.516 -0.690567 469.197 -3.93724 454.894C-4.72697 451.384 -4.37598 447.611 -4.63922 444.013C-5.5167 434.273 -9.64085 425.498 -12.9753 416.46C-15.4322 409.879 -17.0994 403.122 -19.4686 396.541C-20.8726 392.68 -22.2766 388.293 -25.0845 385.485C-30.7881 379.869 -32.1921 373.113 -32.1921 365.917C-32.2798 355.563 -31.7533 345.209 -31.4901 334.767C-31.4901 333.012 -31.3146 331.081 -31.9288 329.59C-35.9652 319.762 -34.4735 309.408 -35 299.229C-35 298.527 -34.9123 297.737 -34.649 297.035C-32.3676 291.595 -32.1043 286.067 -32.9818 280.275C-33.6838 275.274 -30.9636 271.413 -26.2252 269.921C-25.1722 269.57 -23.856 270.184 -22.7153 270.36C-23.154 271.501 -23.3295 273.255 -24.0315 273.519C-29.5596 275.712 -28.9454 279.837 -28.3312 284.487C-27.8924 287.558 -28.2434 290.981 -29.1209 293.964C-31.9288 304.582 -30.1739 314.936 -28.5067 325.553C-27.2782 332.924 -27.6292 340.558 -27.4537 348.104C-27.1904 356.265 -27.5414 364.426 -26.7517 372.586C-26.4885 375.57 -24.207 378.641 -22.1888 381.098C-18.5034 385.748 -15.169 390.223 -14.3792 396.454C-13.8528 400.753 -12.1855 404.965 -10.6938 409.001C-8.32463 415.407 -5.25346 421.637 -3.323 428.218C-1.56805 434.01 -0.0763321 440.152 0.0991669 446.119C0.450157 462.264 7.03125 474.9 19.4915 484.64C29.2315 492.274 37.392 501.049 43.1834 512.281C50.642 526.671 61.7859 537.991 75.9134 546.064C78.9845 547.819 82.67 548.872 86.2676 549.574C98.5523 551.943 108.819 558.875 119.612 564.403C121.542 565.368 123.648 566.158 125.754 566.421C137.776 568.088 149.797 569.492 161.819 571.16C164.1 571.511 166.381 572.125 168.575 573.002C177.525 576.424 180.948 583.971 177.087 592.746C175.156 597.045 172.524 601.608 176.297 605.206C179.456 608.189 184.194 609.593 188.406 611.26C190.775 612.138 193.583 612.05 196.216 612.401C208.676 613.893 214.643 622.229 218.24 634.25C219.206 637.409 222.101 640.13 224.471 642.762C228.068 646.711 233.245 649.782 235.439 654.345C239.914 663.47 247.724 663.909 255.709 664.172C260.447 664.348 265.186 662.944 269.924 662.066C273.258 661.452 276.505 660.75 279.752 659.873C291.335 656.714 301.952 660.838 312.569 664.523C320.73 667.331 328.715 667.331 337.227 666.366C356.794 664.085 374.695 656.275 393.034 650.133C400.581 647.676 408.478 645.482 414.708 639.252C419.008 634.952 425.413 632.846 430.678 629.512C438.137 624.686 445.332 619.421 452.878 614.77C456.827 612.313 461.127 610.12 465.602 609.067C484.38 604.592 499.736 595.115 511.231 579.496C511.757 578.794 512.284 578.092 512.986 577.477C527.815 565.456 530.448 548.959 529.921 531.322C529.658 523.688 531.237 520.792 537.906 517.37C544.312 514.123 550.454 510.614 556.684 507.104C559.843 505.261 560.984 502.629 560.545 498.68C559.229 488.326 561.335 478.849 566.424 469.284C571.777 459.106 574.672 447.611 578.007 436.467C578.797 434.01 577.831 430.587 576.691 427.955C574.848 423.655 574.76 419.531 576.691 415.67C583.184 402.684 580.815 389.785 576.34 376.974C573.97 370.305 573.005 363.811 575.111 356.879C575.725 354.773 575.55 352.229 574.936 350.123C571.514 339.417 568.53 328.624 564.055 318.358C561.072 311.514 558.966 304.582 556.86 297.474C554.139 288.611 548.875 280.977 541.153 275.361C534.221 270.36 533.08 266.411 535.8 258.338C536.414 256.408 537.38 254.565 538.433 252.81C542.995 245.088 542.908 245.176 537.643 237.805C532.992 231.224 534.396 224.117 536.765 217.185C538.082 213.324 537.643 210.34 534.396 208.322C524.305 201.916 518.514 192.001 513.161 181.998C509.476 175.241 503.948 170.678 498.244 166.291C486.047 157.077 476.57 145.407 468.498 132.683C462.706 123.47 455.423 115.924 446.473 109.957C441.734 106.798 436.733 103.99 431.994 100.919C419.973 93.1968 414.445 80.8243 409.18 68.4519C404.705 57.8344 396.72 49.8493 389.875 40.9868C388.471 39.1441 385.313 38.7053 382.856 37.7401C375.923 35.0199 369.079 32.2997 362.059 29.8428C357.584 28.2633 352.934 26.6839 348.283 25.9819C339.333 24.5779 329.944 25.0167 321.432 22.472C304.672 17.3826 287.035 17.5581 270.451 12.1177C265.361 10.4505 260.535 7.29159 256.235 3.95717C251.848 0.622746 247.461 -2.00969 242.02 -2.00969C225.611 -1.92194 209.29 -1.6587 192.881 -1.4832C191.477 -1.4832 189.986 -1.57095 188.582 -1.92194C179.982 -3.94014 171.383 -6.22159 162.696 -8.15204C156.817 -9.46826 151.026 -10.7845 145.059 -11.5742C136.459 -12.7149 128.299 -10.6967 120.138 -8.0643C103.642 -2.62393 86.7064 0.184006 69.42 1.41248C62.9267 1.85122 56.4333 3.07969 50.0277 4.5714C48.0095 5.09789 45.5526 7.20384 44.7629 9.13429C40.6387 19.1376 32.5659 24.9289 23.5279 29.6673C20.1934 31.4223 16.6835 32.914 13.2614 34.6689C8.08422 37.2136 5.89053 41.7765 4.74981 47.2169C3.52133 53.1837 1.59088 59.0629 0.537907 65.1175C-1.65579 78.1919 -3.674 91.3541 -5.42896 104.429C-6.83292 114.958 -7.88589 125.576 -8.93887 136.193C-9.28986 139.966 -8.32463 144.091 -9.64085 147.513C-13.6773 158.393 -14.7302 169.625 -15.0812 180.945C-15.52 194.107 -16.4852 207.62 -10.3428 220.08C-8.93887 222.888 -6.74517 225.345 -4.81472 227.978C-1.3048 232.716 0.186913 237.805 -1.12931 243.684C-3.76174 255.267 -11.3958 263.691 -19.0299 272.203C-19.7319 272.553 -20.6093 272.553 -22.2766 272.992Z" fill="#3C3A1E"/>
<path d="M153.57 545.8C149.973 545.8 147.428 545.625 144.971 545.8C119.349 548.257 98.6401 536.675 79.7743 521.582C69.8588 513.685 64.4184 502.453 63.0145 489.379C62.7512 486.834 60.8208 484.026 58.8026 482.359C55.4681 479.639 51.6072 477.182 47.6586 475.514C41.0775 472.706 38.6205 467.529 38.0063 461.124C37.3043 453.841 33.5312 448.4 27.652 444.627C17.8243 438.309 10.7167 430.324 8.87399 418.478C8.6985 417.337 8.172 416.197 7.47002 415.319C-1.21702 404 -0.86603 390.838 0.186945 377.675C0.888929 368.988 -0.515038 360.477 -4.37595 353.106C-10.6938 341.085 -13.6772 328.712 -13.414 315.199C-13.3262 313.093 -14.2915 310.987 -14.9057 308.881C-16.1342 304.845 -16.2219 300.984 -14.116 297.035C-13.2385 295.368 -13.765 293.086 -13.5017 291.068C-13.2385 288.962 -13.3262 286.593 -12.2733 284.926C-10.6061 282.469 -8.23685 280.451 -6.04316 278.345C-0.602785 273.168 3.17038 267.289 5.18858 259.918C6.41705 255.53 9.75147 251.845 11.6819 247.633C12.7349 245.439 13.5246 242.631 13.0859 240.35C10.7167 228.328 8.523 216.395 2.55614 205.339C0.0991974 200.863 0.625685 194.633 0.362442 189.193C0.0991974 185.42 0.45019 181.559 1.06442 177.873C2.02965 172.521 3.34587 167.168 4.74984 161.903C7.64552 151.374 13.9634 141.458 10.629 129.788C9.75147 126.716 8.78624 123.645 7.47002 120.75C5.45182 116.362 5.27632 111.711 8.61074 108.377C14.4899 102.498 17.0345 95.4781 19.2282 87.8441C20.5445 83.1934 21.8607 78.806 20.72 74.1554C19.1405 67.662 22.6504 63.1869 27.652 59.8525C29.407 58.7118 31.6884 58.1853 33.8821 57.8343C45.5526 56.0793 55.3804 50.8144 64.5062 43.7069C72.228 37.74 80.564 32.5629 88.5491 26.947C99.5176 19.2252 111.802 18.962 124.35 20.3659C140.145 22.1209 155.764 20.9802 171.559 18.9619C182.088 17.558 192.794 17.558 203.499 17.558C211.396 17.558 218.241 21.5944 223.769 26.947C230.438 33.3526 238.51 35.7218 247.11 36.687C253.164 37.389 259.394 37.2135 265.449 37.6523C283.7 38.8807 301.864 40.1969 320.116 41.5132C325.469 41.8642 330.909 42.0396 336.262 42.8294C343.983 43.9701 351.705 45.4618 359.339 47.2168C368.026 49.235 373.905 54.8508 377.942 62.6604C380.925 68.364 383.996 73.9799 387.331 79.4203C389.788 83.4567 390.051 87.5808 389.437 92.056C387.77 103.814 387.945 103.99 398.65 109.079C401.458 110.395 404.178 111.711 406.986 112.94C414.62 116.362 421.816 120.223 427.607 126.629C432.082 131.543 437.172 136.193 442.612 139.966C447.614 143.388 453.493 145.582 458.933 148.215C462.443 149.882 464.9 152.339 465.075 156.551C465.163 157.516 465.69 158.481 466.304 159.271C471.306 165.501 476.395 171.731 481.397 177.961C482.186 179.014 483.239 179.979 483.678 181.12C488.68 196.564 502.456 206.304 509.213 220.607C509.388 220.958 509.651 221.396 510.002 221.66C518.514 227.363 521.848 236.489 523.954 245.615C525.885 253.775 527.376 262.462 526.499 270.623C525.271 282.82 527.991 293.086 535.098 302.651C536.678 304.845 537.994 307.565 538.433 310.11C539.749 318.446 542.557 326.167 547.12 333.275C550.542 338.54 551.419 344.243 549.138 350.035C543.698 364.25 548.261 376.886 554.578 389.434C558.088 396.366 561.423 403.298 564.669 410.318C566.688 414.617 566.6 419.092 564.582 423.48C563.353 426.112 562.563 429.008 561.072 431.553C555.105 441.38 553.525 452.261 551.946 463.317C551.595 466.038 550.279 468.933 548.611 471.215C540.977 481.92 532.027 491.748 525.622 503.155C519.567 513.86 511.143 521.582 502.368 529.479C498.507 532.901 495.612 537.464 492.541 541.676C484.029 553.171 476.219 565.28 467.094 576.249C459.372 585.638 448.316 589.411 436.119 589.06C426.466 588.797 422.43 591.166 419.534 600.467C417.165 608.014 412.339 613.805 407.425 619.596C406.109 621.176 403.827 622.404 401.809 622.668C394.877 623.721 387.945 625.037 381.013 624.686C371.097 624.159 362.323 625.212 354.864 632.671C345.124 642.411 333.015 644.166 319.589 642.586C300.022 640.217 280.98 635.479 262.729 628.459C255.709 625.739 249.83 619.684 244.214 614.332C240.704 610.909 238.686 605.82 235.966 601.608C234.913 600.029 233.772 598.449 232.368 597.308C225.173 591.605 217.714 586.252 210.694 580.373C204.376 575.02 201.656 567.913 203.411 559.665C204.025 556.681 202.095 556.33 200.515 555.189C185.862 544.484 169.277 544.484 153.57 545.8ZM150.236 540.448C169.365 539.044 187.88 540.097 204.464 551.592C208.676 554.487 209.553 555.891 207.974 560.542C206.307 565.456 209.027 573.792 213.239 577.039C220.61 582.742 228.068 588.358 235.264 594.325C237.37 596.08 238.861 598.537 240.441 600.818C243.161 604.943 245.179 609.769 248.601 613.103C252.989 617.49 257.903 622.141 263.518 624.159C281.858 631.004 300.899 635.83 320.291 638.462C331.874 640.042 342.755 638.813 351.705 630.214C353.285 628.722 354.952 627.143 356.882 626.177C360.831 624.247 364.955 621.79 369.167 621.176C375.485 620.386 382.066 621.615 388.384 620.913C393.736 620.386 400.142 619.772 404.091 616.613C408.829 612.84 412.339 606.697 414.708 600.906C420.236 587.568 423.22 585.199 437.347 585.024C447.965 584.936 457.441 581.426 464.198 573.178C472.71 562.736 480.695 551.943 487.978 540.711C492.365 533.954 497.279 528.075 503.334 522.898C509.915 517.37 516.759 512.105 520.093 503.681C521.41 500.435 524.305 497.802 526.499 494.819C528.868 491.484 531.237 488.238 533.607 484.903C536.941 480.253 540.012 475.427 543.61 471.039C546.33 467.705 547.646 464.195 548.436 460.071C549.752 452.524 551.419 444.89 553.701 437.607C555.28 432.518 558.001 427.692 560.457 422.866C562.563 418.741 562.476 414.705 560.545 410.669C557.211 403.649 553.701 396.804 550.366 389.785C544.312 376.973 539.924 363.987 545.54 349.772C547.91 343.805 545.804 338.628 543.171 333.099C540.012 326.606 538.17 319.499 535.625 312.742C534.309 309.232 532.992 305.722 531.062 302.563C525.885 294.052 522.112 285.277 522.989 274.923C523.428 269.043 523.428 262.989 522.638 257.11C521.585 250.09 519.742 243.246 517.724 236.489C516.847 233.593 514.653 230.961 512.81 228.416C509.564 224.029 505.966 219.817 502.632 215.43C498.946 210.516 495.348 205.602 491.751 200.6C489.382 197.353 486.31 194.282 484.819 190.685C480.782 180.506 473.499 172.784 467.094 164.36C464.9 161.465 463.32 158.042 461.39 154.883C460.688 153.83 459.986 152.602 458.933 151.988C456.037 150.233 453.23 148.127 450.071 147.337C441.822 145.231 435.855 139.615 430.327 133.999C421.991 125.488 412.953 118.468 401.809 114.256C398.387 112.94 395.228 111.097 391.894 109.606C386.892 107.324 384.611 103.551 385.049 98.0228C385.225 95.7414 385.839 93.3722 385.664 91.0907C385.4 87.6686 385.313 84.0709 383.909 81.0875C380.837 74.5064 377.152 68.1008 373.379 61.8707C370.132 56.5181 365.569 52.5694 359.339 50.5512C350.915 47.9188 342.492 46.1638 333.629 45.6373C306.778 44.2333 280.103 40.0215 253.164 40.5479C250.532 40.6357 247.899 40.2847 245.267 39.846C237.106 38.442 229.121 36.687 222.891 30.7202C215.345 23.3493 206.395 19.7517 195.953 20.1904C188.757 20.4537 181.474 20.3659 174.542 21.6821C154.36 25.543 134.09 24.7533 113.821 22.9984C107.415 22.4719 101.185 23.5248 95.6567 26.947C86.5309 32.6506 77.1419 38.091 68.6303 44.7598C57.9251 53.0959 46.6933 59.5015 33.0047 61.5197C26.4236 62.4849 23.5279 66.7846 24.3176 73.3657C25.0196 78.8938 24.6686 84.0709 22.0362 89.0725C21.5097 90.0378 21.1587 91.2662 21.071 92.407C20.5445 98.5493 17.912 103.463 13.2614 107.587C9.57597 110.834 8.43525 114.958 10.8922 119.784C13.7879 125.488 16.1571 131.63 14.8408 137.948C12.9981 146.723 10.5412 155.41 7.47002 163.834C3.25812 175.416 4.04786 187.35 4.04786 199.196C4.04786 200.337 4.48659 201.565 5.10083 202.531C12.0329 213.675 13.8756 226.223 16.4203 238.507C17.21 242.193 17.0345 245.527 15.1041 249.037C11.9452 254.741 9.31273 260.707 6.3293 266.499C3.78461 271.325 1.59091 276.063 -2.79649 279.924C-5.86766 282.644 -10.606 285.452 -8.85109 291.507C-8.23686 293.701 -9.28983 296.333 -9.55308 298.79C-9.90407 301.51 -10.6061 304.318 -10.4306 307.038C-10.2551 310.461 -8.85109 313.795 -8.76334 317.217C-8.58785 328.01 -7.09613 338.364 -1.39252 347.929C3.43362 356.002 4.57434 365.303 5.27632 374.429C5.80281 382.238 5.01308 390.136 5.62732 397.945C5.97831 401.982 8.08426 405.842 9.57597 409.703C10.8044 412.775 13.0859 415.582 13.7879 418.741C15.4551 427.341 19.9302 433.834 27.2133 438.397C36.2513 444.013 42.1305 451.735 43.1834 462.703C43.5344 466.389 45.3771 469.021 48.9748 470.776C53.4499 472.97 57.5741 475.778 61.786 478.41C65.4714 480.691 67.6651 483.85 67.9283 488.413C68.5426 498.943 72.93 508.069 80.2131 515.264C92.6733 527.637 108.38 534.832 124.964 540.185C125.754 540.448 126.719 540.448 127.597 540.448C135.055 540.448 142.69 540.448 150.236 540.448Z" fill="#3C3A1E"/>
<path d="M349.16 114.344C354.952 116.45 360.041 118.556 365.306 120.047C370.22 121.451 374.783 123.294 377.591 127.769C382.943 136.105 391.63 139.791 399.879 144.178C407.513 148.215 414.971 152.514 422.43 156.726C423.746 157.516 424.975 158.657 426.028 159.885C431.556 166.115 436.733 172.608 442.436 178.575C446.473 182.787 451.387 186.034 455.686 189.983C459.723 193.668 463.759 197.441 467.357 201.565C469.989 204.636 472.095 208.234 474.201 211.744C477.097 216.57 479.642 221.66 482.537 226.573C487.188 234.471 492.277 242.017 496.489 250.09C502.368 261.497 510.353 272.202 511.494 285.628C511.67 287.383 511.757 289.138 511.319 290.805C509.564 298.351 507.896 305.81 505.79 313.268C504.211 318.972 505.79 323.359 509.739 327.571C517.373 335.644 523.428 344.77 525.007 356.089C525.27 358.195 524.481 360.389 523.516 362.495C526.148 369.603 526.587 377.061 525.095 384.695C524.656 387.064 524.393 389.872 525.183 392.066C526.762 396.366 525.358 399.261 522.375 402.245C516.847 407.773 516.759 409.177 522.199 415.231C527.815 421.462 532.992 427.867 533.958 436.73C534.835 444.803 533.607 447.435 526.148 450.769C513.425 456.561 500.701 462.44 487.802 468.056C484.292 469.547 482.362 471.741 482.186 475.602C481.66 484.114 478.15 491.572 473.938 498.855C471.569 502.892 470.077 507.718 469.287 512.368C467.883 520.968 464.022 527.549 456.827 532.55C451.913 535.885 447.614 540.097 443.226 544.133C442.085 545.098 441.559 546.853 440.945 548.257C437.874 554.926 433.223 560.016 426.115 562.385C406.021 568.966 388.033 579.32 370.659 591.166C363.814 595.817 356.268 599.502 348.809 603.188C346.528 604.328 343.281 604.767 340.824 604.065C325.907 600.029 310.815 599.678 295.546 599.765C281.244 599.765 268.345 595.29 256.148 588.095C251.673 585.462 246.759 583.444 242.108 581.163C232.631 576.512 224.295 570.282 218.592 561.332C212.186 551.329 204.025 543.87 192.794 539.921C183.054 536.499 173.138 533.34 163.574 529.392C155.413 525.969 147.516 521.757 139.618 517.721C134.968 515.352 130.229 512.895 125.842 509.999C118.647 505.436 113.733 498.855 110.311 491.046C108.994 488.15 107.415 485.43 106.011 482.534C104.958 480.34 103.466 477.971 103.466 475.69C103.466 472.092 101.975 469.986 99.0788 468.231C91.8835 463.844 84.6882 459.456 77.4929 454.981C74.5972 453.139 71.877 450.857 69.0691 448.839C65.9979 446.645 62.9267 444.539 59.8555 442.346C54.4152 438.397 48.887 434.624 43.6222 430.5C42.3059 429.534 41.604 427.692 40.6387 426.2C38.5328 422.866 36.8656 419.268 34.3209 416.372C30.0212 411.283 28.0908 406.018 29.8457 399.437C30.811 395.664 31.2497 391.627 31.2497 387.766C31.2497 385.66 30.109 383.467 29.1438 381.448C28.003 379.079 26.5113 376.973 25.2828 374.692C22.4749 369.603 21.1587 364.425 22.4749 358.371C23.0014 356.089 21.3342 353.106 20.1057 350.649C16.1571 342.839 11.7697 335.293 7.82101 327.484C5.10083 322.131 6.06605 317.48 10.7167 313.356C12.5594 311.689 13.9634 309.144 14.7531 306.775C16.5958 301.598 15.3673 298.965 10.7167 296.07C1.06442 290.103 0.888928 283.434 10.278 276.853C14.3144 273.957 18.7895 271.764 22.6504 268.605C24.8441 266.762 26.0726 263.691 27.7398 261.146C31.162 255.706 33.3557 249.827 32.2149 243.333C30.3722 232.804 31.6884 222.362 33.4434 212.007C33.8821 209.55 34.2331 207.006 33.8821 204.636C33.0047 197.792 32.8292 191.562 36.1636 184.805C38.094 180.945 35.9881 175.153 35.6371 170.152C35.5494 169.099 35.1106 167.87 35.5494 167.168C41.6917 157.253 37.1288 146.635 37.3043 136.369C37.3921 129.963 39.2348 124.259 42.4814 118.994C43.5344 117.24 45.9914 115.66 48.0973 115.309C57.0476 113.817 60.2065 108.026 60.2943 99.8654C60.382 95.5658 62.3125 92.5824 65.7346 89.9499C75.5624 82.4914 87.0574 78.5427 98.1136 73.6288C114.347 66.4335 131.107 61.6951 149.007 62.5726C158.309 63.0113 167.522 64.5908 176.824 65.7315C182.79 66.4335 188.669 67.311 194.636 67.8375C201.744 68.3639 208.588 67.7497 215.608 65.0295C228.595 60.0279 241.406 60.4666 252.462 70.5576C257.815 75.4715 264.396 76.7877 271.152 76.7C283.262 76.7 295.459 75.3838 307.48 76.0858C319.853 76.7877 330.821 81.9649 339.157 91.6171C340.21 92.7579 341.526 93.7231 342.93 94.6006C344.861 95.9168 347.054 96.882 348.897 98.1982C354.338 102.147 354.776 104.779 351.354 110.395C350.828 111.448 350.301 112.413 349.16 114.344ZM149.534 65.1173C140.408 66.0825 132.511 66.0825 125.052 67.9252C116.014 70.1189 107.239 73.4533 98.7279 77.1387C88.7246 81.4384 78.9846 86.5278 69.2446 91.4417C65.2082 93.4599 63.3654 96.882 63.2777 101.357C63.19 110.922 58.5393 116.538 49.0625 118.38C47.3076 118.731 45.4649 120.574 44.4119 122.241C38.9715 130.84 39.7613 140.229 41.3407 149.794C41.8672 152.865 42.2182 156.463 40.9897 159.095C37.8308 166.203 38.7083 173.31 39.3225 180.594C39.5858 183.84 38.1818 187.262 37.4798 190.509C37.0411 192.703 36.0758 194.896 36.0758 197.09C35.8126 204.461 35.9003 211.92 35.6371 219.29C35.4616 225.52 34.4964 231.751 34.8474 237.981C35.1984 244.913 36.2513 251.757 32.7414 258.075C30.109 262.901 27.652 268.078 24.0544 272.115C21.0709 275.537 16.5081 277.555 12.7349 280.275C6.06605 284.926 6.1538 288.436 12.9981 292.648C17.2978 295.28 20.1935 298.702 19.667 304.055C19.2282 308.881 17.561 313.268 13.7001 316.34C10.278 319.147 9.66372 322.306 11.5942 325.992C15.6306 333.714 19.8425 341.348 23.7034 349.245C25.1074 352.141 26.9501 355.738 26.4236 358.634C25.3706 364.074 26.3358 368.637 28.8805 373.2C30.109 375.306 31.6007 377.324 32.5659 379.518C33.7067 382.063 35.1984 384.871 35.1984 387.503C35.1984 391.803 34.5841 396.278 33.5312 400.49C32.2149 405.579 33.7066 409.616 36.7778 413.476C38.6205 415.758 40.9897 417.864 42.0427 420.496C45.7281 430.061 54.2397 434.185 61.9615 439.274C65.2082 441.468 68.3671 443.75 71.526 446.031C74.2462 447.961 76.7909 450.155 79.5988 451.91C86.7941 456.561 94.165 460.948 101.448 465.511C104.695 467.529 106.713 470.249 106.888 474.374C106.976 476.479 108.556 478.585 109.696 480.604C110.662 482.359 112.329 483.938 112.943 485.781C116.19 496.749 122.859 504.647 133.388 509.385C136.723 510.877 139.618 513.158 142.865 514.825C151.64 519.388 159.362 525.618 169.365 528.163C179.368 530.708 189.108 534.393 198.76 537.991C208.413 541.588 215.257 548.696 220.961 557.12C227.542 566.86 235.79 574.669 247.285 578.618C250.444 579.671 253.427 581.426 256.148 583.269C268.257 591.429 281.419 595.729 296.073 595.904C311.429 596.08 326.785 595.904 341.702 600.818C343.369 601.345 345.826 600.818 347.493 599.941C354.513 596.343 361.796 593.096 368.202 588.621C385.751 576.512 404.178 566.246 424.448 559.489C430.152 557.559 434.188 553.785 437.084 548.608C441.647 540.36 448.316 533.954 455.423 528.075C459.986 524.302 462.618 519.564 464.11 513.86C465.953 506.928 468.673 500.171 470.954 493.327C472.797 487.887 475.254 482.446 476.219 476.83C477.36 469.811 480.168 465.16 487.012 462.352C498.595 457.614 509.915 452.086 521.322 446.821C528.956 443.311 530.184 440.591 527.376 432.518C526.148 429.183 523.954 426.112 521.936 423.129C520.444 420.847 518.251 418.917 516.671 416.635C511.67 409.177 511.933 406.106 518.251 399.876C520.532 397.682 521.41 395.576 520.971 392.242C520.444 388.381 521.322 384.432 521.41 380.483C521.497 376.184 521.585 371.796 521.41 367.497C521.234 363.548 517.724 359.863 520.708 355.651C520.971 355.3 520.795 354.422 520.62 353.983C518.777 349.421 517.285 344.594 514.741 340.382C511.845 335.644 508.072 331.52 504.65 327.22C502.017 323.974 500.526 320.551 501.491 316.34C503.509 307.828 505.439 299.404 507.37 290.893C507.721 289.313 507.896 287.734 507.809 286.154C507.019 273.168 499.56 262.813 493.33 252.371C487.627 242.895 480.958 234.12 477.272 223.59C476.746 221.923 475.868 220.431 474.903 218.939C471.306 213.587 467.971 208.059 463.935 203.057C460.863 199.284 457.178 195.949 453.493 192.703C448.842 188.491 443.665 184.893 439.278 180.418C433.311 174.276 427.958 167.431 422.342 161.026C421.816 160.412 421.026 159.797 420.324 159.446C412.778 155.322 405.231 151.198 397.597 147.249C388.998 142.862 380.135 138.913 374.695 130.314C372.326 126.629 368.816 125.049 364.692 123.821C359.515 122.329 354.425 120.398 349.424 118.293C344.949 116.362 344.51 113.993 347.054 110.044C350.74 104.428 350.389 103.288 344.685 99.8654C341.965 98.1982 338.718 96.9698 336.7 94.6006C328.54 85.0361 317.922 80.2099 305.813 79.6834C294.318 79.2447 282.735 80.3854 271.24 80.3854C262.378 80.3854 254.393 77.9285 247.724 71.3474C245.355 69.0659 241.757 67.4865 238.51 66.7845C230.525 64.9418 222.716 65.6438 214.906 68.8027C210.168 70.7331 204.727 71.4351 199.638 71.4351C193.057 71.4351 186.564 70.2944 179.982 69.5047C169.628 68.013 158.923 66.4335 149.534 65.1173Z" fill="#3C3A1E"/>
<path d="M33.7067 291.946C35.6371 290.366 37.3921 289.489 38.1818 288.173C38.9716 286.856 38.7961 285.014 39.0593 283.434C39.849 279.573 39.9368 275.361 41.5162 271.939C43.5344 267.727 45.0262 263.954 44.0609 259.04C43.6222 256.759 45.7281 254.039 46.7811 251.494C48.0096 248.51 49.3258 245.527 50.642 242.544C51.5195 240.613 52.397 238.595 53.6255 236.84C55.5559 234.12 56.1701 231.575 54.8539 228.241C52.748 223.151 51.4318 217.886 52.3092 212.095C53.1867 205.865 52.9235 199.547 53.3622 193.317C53.6255 190.421 53.8009 187.175 55.2049 184.893C60.1188 177.084 60.8208 168.572 61.2595 159.71C61.6105 152.339 62.9267 144.968 64.1552 137.685C64.4184 136.193 65.7347 134.35 67.0509 133.561C70.824 131.455 75.0359 130.051 78.8969 128.033C83.1088 125.839 87.1452 123.294 91.2693 121.013C97.3239 117.591 103.203 113.466 109.609 110.922C123.385 105.481 137.512 101.357 152.517 100.831C156.642 100.655 160.766 98.8125 164.89 98.1983C171.208 97.3208 177.613 96.1801 183.931 96.4433C192.794 96.882 201.656 98.1105 210.431 99.69C221.048 101.62 231.841 103.375 241.932 106.885C252.638 110.483 263.08 110.22 273.873 109.342C282.297 108.728 290.808 108.465 299.32 108.728C306.954 108.991 312.306 114.344 317.747 118.907C322.222 122.68 325.819 127.418 330.382 131.016C333.629 133.561 337.665 135.403 341.614 136.632C348.107 138.738 354.25 141.107 360.129 145.143C369.606 151.637 380.135 156.463 389.788 162.693C394.263 165.589 398.036 169.888 401.634 174.012C404.354 177.171 405.758 181.647 408.741 184.454C412.69 188.14 417.428 191.387 422.342 193.58C432.609 198.055 441.033 204.461 447.087 213.762C448.93 216.57 450.07 220.08 450.86 223.502C452.703 231.136 453.493 239.121 455.95 246.58C457.529 251.582 460.776 256.145 463.847 260.532C469.112 268.166 472.446 276.502 472.885 285.803C473.236 292.384 475.254 298.176 479.817 302.914C486.574 309.934 488.855 318.446 488.943 327.747C489.031 334.503 488.767 341.26 489.118 347.929C489.294 351 489.908 354.685 491.663 356.967C497.191 364.25 496.489 371.884 493.33 379.43C490.698 385.66 490.084 391.189 493.944 397.243C496.401 401.192 496.752 405.755 495.261 410.405C492.979 416.986 493.594 423.129 497.454 429.271C500.526 434.097 499.824 436.554 495.875 440.503C485.959 450.331 474.728 457.965 461.302 462.089C460.425 462.352 459.635 462.703 458.845 462.966C449.983 466.389 450.071 466.389 449.72 475.514C449.281 485.869 447.526 495.872 439.629 503.594C438.751 504.471 437.961 505.7 437.61 506.928C433.486 518.862 426.203 528.953 418.832 538.868C415.673 543.168 410.408 546.941 405.319 548.608C396.369 551.592 388.822 556.506 381.364 561.946C379.433 563.35 377.503 564.578 375.573 565.895C356.18 579.496 334.156 580.022 311.955 577.828C293.616 575.986 275.891 570.633 258.605 564.052C251.848 561.507 246.759 557.032 242.722 550.89C236.668 541.589 229.034 533.779 219.118 528.426C201.13 518.686 183.317 508.683 165.153 499.206C157.958 495.433 150.324 492.011 142.514 489.993C122.595 484.64 110.574 471.039 102.413 453.226C100.922 449.892 98.9911 447.874 95.6567 446.47C89.3389 443.837 83.372 440.327 77.0542 437.607C68.1039 433.659 65.2959 425.323 64.6817 417.337C63.9797 408.299 59.6801 401.455 55.8192 393.997C53.7132 389.785 51.4318 384.958 51.6073 380.483C51.8705 375.043 50.4665 370.48 48.0973 366.005C46.9566 363.899 45.6404 361.705 43.8854 360.038C37.3043 353.896 33.8822 346.437 35.5494 337.662C36.7779 331.081 35.7249 324.939 32.7414 319.411C28.5295 311.689 28.4418 304.845 34.4964 298.088C35.7249 296.245 37.6553 293.964 33.7067 291.946ZM484.468 336.258C484.468 333.45 484.468 330.73 484.468 327.922C484.555 319.148 482.274 311.25 476.044 304.669C470.516 298.79 469.638 291.331 468.322 283.697C467.181 276.941 465.163 269.745 461.302 264.305C454.633 254.828 450.334 244.737 449.281 233.33C447.614 215.956 438.312 204.285 422.693 197.88C413.655 194.194 406.284 189.193 401.634 180.418C400.581 178.488 399.615 176.382 398.124 174.89C394.965 171.556 391.894 167.87 388.121 165.501C377.591 158.832 366.622 152.602 355.829 146.284C353.197 144.792 350.652 143.037 347.844 141.984C343.018 140.054 337.402 139.44 333.103 136.72C327.311 132.946 322.397 127.857 317.22 123.119C309.674 116.187 301.777 110.834 290.72 112.062C282.121 113.028 273.522 113.466 264.922 113.642C259.394 113.73 253.603 113.905 248.426 112.326C232.28 107.5 216.135 103.024 199.199 102.322C197.181 102.235 195.163 101.796 193.232 101.182C183.756 98.286 174.367 98.0228 164.802 101.094C160.239 102.498 155.413 103.551 150.675 103.902C133.388 105.043 116.979 109.605 101.799 117.766C92.2345 122.855 84.3372 130.928 73.0177 132.683C71.4383 132.946 69.9466 134.35 68.5426 135.403C67.7529 136.018 66.7876 136.895 66.6999 137.773C65.8224 145.758 64.243 153.743 64.5062 161.64C64.6817 169.537 63.7165 176.733 59.7678 183.489C59.0658 184.718 58.0129 186.034 57.9251 187.438C56.5211 200.863 53.45 214.377 58.1006 227.714C59.6801 232.189 58.7148 235.612 55.7314 239.034C54.5907 240.35 53.9764 242.193 53.1867 243.948C51.9582 246.843 51.2563 250.178 49.4136 252.547C47.2199 255.443 46.9566 258.163 47.1321 261.497C47.3076 264.481 46.6056 267.64 45.8159 270.623C45.1139 273.168 43.5344 275.361 42.8325 277.906C42.3937 279.485 42.3937 282.03 43.3589 282.908C47.0444 286.505 45.1139 289.401 42.9202 292.472C40.551 295.807 38.1818 299.141 35.7249 302.3C32.4782 306.424 32.215 310.636 34.7597 315.374C38.7961 322.745 40.902 330.467 39.0593 338.979C37.7431 345.209 40.0245 351 44.2364 355.036C51.7827 362.232 55.7314 370.305 55.3804 380.834C55.2927 384.344 57.3986 388.03 58.7148 391.54C59.1536 392.768 60.1188 393.733 60.733 394.874C64.243 401.543 67.7529 407.773 68.1916 415.934C68.7181 424.708 72.579 432.869 82.4068 435.94C85.4779 436.905 88.1104 439.011 91.0938 439.976C99.6931 442.784 105.484 448.137 108.292 456.824C110.837 464.458 117.506 469.109 122.595 474.812C124.614 477.006 127.07 479.2 129.703 480.34C136.81 483.324 144.445 485.167 151.464 488.413C162.696 493.678 173.577 499.645 184.545 505.349C197.269 512.017 209.992 518.511 222.54 525.443C231.929 530.62 239.388 538.254 245.091 547.117C249.391 553.61 254.568 558.085 261.764 560.542C267.028 562.297 272.293 564.14 277.558 565.631C297.038 570.984 316.43 576.424 337.051 573.88C348.195 572.476 359.076 570.896 368.553 564.315C372.501 561.595 376.626 559.05 380.574 556.33C387.506 551.504 394.614 547.204 402.862 544.484C407.425 542.992 412.251 539.658 414.884 535.709C421.465 525.969 426.817 515.44 432.609 505.173C433.662 503.418 434.539 501.488 435.943 500.084C443.928 491.748 444.981 481.306 444.191 470.688C443.84 466.301 445.244 463.932 448.667 462.264C452.352 460.509 456.125 458.93 460.074 457.701C472.446 453.665 482.713 446.47 492.102 437.607C494.383 435.501 494.734 433.571 493.067 431.114C488.416 424.27 488.504 417.074 490.347 409.265C491.137 406.018 490.873 401.631 489.206 398.823C485.17 391.891 485.608 385.485 488.68 378.377C491.488 371.884 492.19 365.391 487.276 358.897C485.17 356.089 484.643 351.878 484.204 348.192C484.029 344.156 484.468 340.207 484.468 336.258Z" fill="#3C3A1E"/>
<path d="M52.3969 268.254C54.2396 265.885 55.9946 263.867 57.3986 261.673C58.0128 260.795 58.3638 259.567 58.4515 258.514C58.627 256.145 58.627 253.863 58.627 251.494C58.7148 240.087 61.435 229.557 70.3853 221.923C79.6865 213.85 75.1236 204.549 74.0707 195.16C73.1054 186.824 72.9299 178.312 73.3687 169.976C73.7197 163.922 76.0011 158.043 76.9663 151.988C77.9316 146.548 80.6518 142.95 86.0044 141.37C93.8139 139.089 101.009 135.842 106.011 128.822C107.064 127.331 109.784 126.629 111.802 126.278C120.577 124.874 129.527 123.996 138.214 122.329C144.006 121.188 149.797 119.433 155.237 117.24C159.888 115.309 164.363 114.344 169.189 115.836C177.613 118.468 186.037 118.029 194.724 116.713C210.343 114.344 225.875 115.573 241.318 118.644C255.621 121.364 269.31 125.488 282.209 132.508C287.474 135.316 293.879 136.018 299.846 137.422C315.728 141.283 330.821 146.548 343.632 157.428C348.283 161.289 354.425 164.36 360.304 165.589C375.222 168.836 384.786 177.874 389.788 191.562C393.122 200.6 398.826 205.777 408.039 207.883C411.9 208.761 415.586 210.165 419.183 211.744C425.501 214.464 426.993 217.623 425.326 224.204C424.185 228.592 424.887 232.541 428.397 235.348C433.837 239.648 434.802 245.79 435.943 252.021C437.873 262.463 439.716 272.905 441.91 283.259C442.261 285.102 443.928 286.769 445.332 288.173C448.491 291.419 450.071 294.929 449.807 299.58C449.281 307.916 448.754 316.252 449.193 324.588C449.369 328.537 450.772 333.012 453.054 336.259C461.829 349.157 467.006 362.846 464.9 378.641C464.549 381.536 463.759 384.432 462.618 387.065C456.476 400.841 449.368 414.266 444.279 428.394C440.857 437.871 434.627 445.241 429.362 453.314C427.958 455.42 426.993 458.053 426.466 460.51C425.238 465.95 423.22 470.776 418.481 474.198C417.779 474.725 417.34 475.602 416.639 476.041C407.6 481.745 404.88 489.905 405.933 500.347C406.986 510.614 402.687 519.476 396.106 527.198C394.877 528.602 393.385 530.006 392.683 531.761C387.945 543.431 377.415 547.556 366.71 550.714C351.881 555.19 336.525 556.067 321.169 553.961C315.465 553.171 309.937 550.714 304.672 548.345C291.598 542.466 279.401 535.622 269.573 524.39C262.027 515.703 252.638 508.069 242.81 502.014C236.053 497.802 227.191 496.749 219.118 494.907C206.044 492.011 192.794 489.73 179.719 487.009C173.752 485.781 168.487 483.149 164.1 478.673C162.521 477.094 160.239 476.041 158.045 475.251C153.658 473.76 150.762 470.864 149.709 466.476C147.34 456.122 140.847 450.594 130.493 448.839C124.964 447.874 121.104 444.364 117.945 439.362C115.751 435.852 112.241 432.606 108.643 430.5C102.062 426.814 97.7626 421.199 94.1649 415.056C92.6732 412.599 92.059 409.177 92.3222 406.281C93.2875 393.821 89.5143 381.975 87.2328 370.041C86.7941 367.936 84.8637 365.391 82.8455 364.426C65.6469 355.826 55.3804 340.558 45.2893 325.378C38.796 315.726 41.6039 304.845 45.3771 294.578C47.3953 288.962 50.291 283.961 55.0294 279.837C59.68 275.8 58.8025 272.027 52.3969 268.254ZM59.0658 267.376C61.1717 274.835 62.6634 276.941 54.5906 284.487C53.4499 285.54 52.1337 286.681 51.5194 288.085C48.0973 295.895 45.4648 303.792 45.5526 312.567C45.6403 317.393 47.0443 321.429 50.1155 325.027C51.2562 326.343 52.3092 327.747 53.3622 329.151C62.1369 341.787 71.6137 353.72 85.8289 361.003C88.4613 362.32 91.0938 365.83 91.6202 368.638C93.6384 379.781 98.0258 390.575 96.9729 402.245C95.9199 413.915 102.676 420.76 111.627 426.551C115.575 429.096 119.524 432.342 122.069 436.203C124.877 440.503 128.036 443.399 132.862 444.276C144.444 446.294 151.728 452.876 154.535 464.371C155.325 467.617 157.343 469.46 160.502 470.688C163.574 471.917 166.206 474.111 169.014 475.865C171.734 477.533 174.279 479.902 177.174 480.604C184.107 482.359 191.214 483.061 198.146 484.553C210.87 487.273 223.505 490.168 236.141 493.24C239.914 494.205 243.951 495.521 246.934 497.802C256.06 504.91 265.712 511.579 273.258 520.178C281.858 530.006 292.3 536.412 303.619 541.94C313.798 546.941 324.503 550.363 336.086 549.749C343.369 549.31 350.74 549.047 357.847 547.556C370.483 544.923 383.119 541.852 389.086 528.163C389.612 527.022 390.577 525.97 391.455 525.004C398.036 517.633 402.862 509.034 401.458 499.206C399.44 485.518 406.46 477.445 416.024 469.811C418.481 467.88 420.675 464.634 421.289 461.563C423.132 452.7 428.484 446.119 433.925 439.362C435.066 437.958 436.206 436.291 436.908 434.624C438.751 430.412 440.33 425.937 442.261 421.725C444.806 416.109 448.228 410.844 449.895 405.053C451.913 398.209 454.721 391.978 458.143 385.836C459.723 383.028 460.337 379.431 460.688 376.184C461.916 362.144 457.266 349.859 449.193 338.54C446.912 335.381 445.157 331.169 444.893 327.396C444.367 318.533 444.718 309.583 445.069 300.721C445.244 296.421 444.63 292.736 440.945 289.84C439.541 288.787 438.312 286.856 437.961 285.102C435.768 274.396 433.662 263.691 431.731 252.986C430.766 247.37 429.801 241.93 425.062 237.805C420.938 234.208 419.534 229.382 420.85 223.853C422.167 218.325 421.465 216.834 415.849 214.728C410.672 212.797 405.319 211.13 400.054 209.463C394.263 207.532 390.49 203.496 388.033 198.056C387.067 195.95 386.278 193.756 385.313 191.65C380.223 180.418 372.765 172.082 359.778 169.976C351.881 168.66 345.563 164.185 339.245 159.622C333.629 155.586 327.662 151.549 321.344 148.917C312.745 145.407 303.707 142.774 294.581 140.756C284.49 138.563 275.979 133.034 266.59 129.612C243.073 121.013 218.679 117.766 193.759 120.399C185.16 121.276 176.648 121.539 168.224 118.731C165.416 117.766 161.643 117.942 158.923 119.082C148.656 123.558 137.776 124.435 126.895 125.664C118.032 126.717 109.345 126.541 102.501 134.526C98.8156 138.826 92.059 140.581 86.4431 142.95C82.5822 144.617 80.213 146.811 79.511 151.11C78.4581 157.253 76.1766 163.307 75.7379 169.538C75.2114 177.172 75.5624 184.981 76.2644 192.615C76.7908 198.231 78.8091 203.759 79.4233 209.375C79.6865 211.92 78.7213 214.903 77.4051 217.185C75.7379 220.168 73.2809 222.888 70.9117 225.433C65.3836 231.224 62.6634 238.069 62.2247 245.966C61.9614 250.792 61.7859 255.618 61.3472 260.444C61.1717 262.55 60.1187 264.393 59.0658 267.376Z" fill="#3C3A1E"/>
<path d="M223.856 132.333C237.457 132.508 249.654 137.246 261.149 143.915C267.994 147.864 274.838 149.97 282.735 149.882C289.229 149.794 295.897 150.584 302.303 151.549C309.147 152.602 315.202 155.761 320.993 159.71C328.101 164.536 335.647 168.748 343.281 172.784C350.213 176.557 356.268 180.945 360.831 187.526C362.586 190.071 366.008 191.562 368.553 193.581C371.361 195.774 374.958 197.617 376.538 200.513C381.627 209.814 389.349 215.43 398.914 218.852C401.634 219.817 404.529 220.431 407.25 221.572C411.11 223.239 411.637 225.872 409.005 229.206C408.917 229.294 408.829 229.469 408.741 229.557C406.811 231.839 402.862 234.822 403.389 236.314C404.442 239.648 407.601 242.456 410.233 245.089C413.48 248.423 417.165 251.406 420.675 254.39C425.238 258.251 427.168 263.165 427.081 269.132C426.993 273.694 427.168 278.17 427.519 282.732C428.046 289.577 428.309 296.421 433.311 302.037C434.802 303.792 435.329 306.863 435.329 309.408C435.417 315.375 434.539 321.429 434.802 327.396C434.978 332.222 436.119 337.136 437.172 341.875C440.243 354.861 444.016 367.76 446.561 380.922C447.35 384.871 445.859 389.609 444.455 393.646C442.612 398.823 440.155 403.912 437.523 408.738C434.802 413.74 433.311 419.18 431.468 424.533C429.274 431.026 425.15 436.993 421.026 442.521C417.165 447.699 413.041 452.437 411.198 458.842C409.268 465.687 404.354 470.513 399.177 475.164C397.159 477.006 394.877 479.814 394.789 482.359C394.175 493.503 386.453 500.26 380.399 508.245C369.079 523.337 351.793 525.706 335.56 530.533C332.664 531.41 329.417 532.288 326.521 531.937C320.993 531.322 314.676 531.322 310.2 528.514C298.53 521.407 286.333 515.615 273.522 511.053C265.624 508.245 258.341 504.559 253.164 497.276C251.585 494.995 248.338 493.415 245.618 492.362C231.841 487.185 218.065 481.833 204.025 477.533C195.426 474.9 186.213 474.374 177.438 472.531C168.487 470.689 165.504 467.53 164.188 458.667C163.398 453.402 161.292 449.541 156.378 446.821C153.219 445.154 151.026 441.819 148.042 439.801C145.234 437.959 141.9 436.204 138.741 435.853C132.16 435.151 127.158 433.045 123.648 426.99C121.981 424.182 118.822 421.988 115.926 420.146C112.153 417.689 109.609 414.618 108.819 410.142C108.731 409.528 108.643 408.914 108.38 408.475C102.94 398.735 104.432 388.732 105.748 378.29C106.713 370.656 102.062 363.724 96.6219 358.108C92.6733 354.072 88.1981 350.474 83.9862 346.613C77.3174 340.471 70.3853 334.591 64.243 328.098C54.5029 317.744 49.7646 300.809 63.7165 286.418C64.3307 285.804 64.8572 285.102 65.5592 284.487C73.1055 277.906 74.0707 270.097 70.6486 261.059C69.8588 258.953 69.9466 255.969 70.9118 253.951C72.6668 250.178 75.2992 246.844 77.4929 243.246C83.2843 233.857 88.1981 224.819 89.4266 212.885C91.0938 197.529 87.4084 182.963 87.7594 167.958C88.0226 159.183 90.8306 154.445 99.1666 152.076C108.994 149.356 118.998 147.337 129.001 144.968C130.405 144.617 131.984 144.442 133.125 143.652C143.041 136.632 154.623 136.895 165.943 136.018C179.368 135.053 192.706 133.912 206.131 132.859C211.923 133.035 217.89 132.771 223.856 132.333ZM406.109 227.364C405.846 226.837 405.495 226.223 405.231 225.696C402.511 224.819 399.703 224.117 396.983 223.064C386.541 219.203 378.117 212.973 372.677 202.882C371.536 200.688 368.728 199.372 366.622 197.705C363.463 195.248 359.602 193.317 357.233 190.246C352.934 184.543 347.756 180.418 341.702 177.084C333.366 172.521 325.118 167.783 317.132 162.693C310.99 158.657 304.409 156.112 297.214 155.235C292.124 154.533 287.035 154.269 281.946 154.445C273.609 154.708 266.326 152.251 259.131 148.127C245.618 140.318 231.315 135.667 215.257 137.334C196.567 139.265 177.701 140.142 158.923 141.546C150.411 142.16 142.075 143.038 134.792 148.215C133.213 149.356 130.931 149.531 129.001 150.058C119.612 152.251 110.135 154.094 100.834 156.639C93.1998 158.745 91.3571 161.816 91.7958 169.889C92.761 186.736 95.0425 203.408 93.0243 220.519C91.6203 232.453 85.127 240.613 78.1949 248.862C74.9482 252.81 73.0177 257.198 74.5972 262.199C77.6684 271.501 77.3174 280.012 69.4201 287.12C67.9284 288.436 66.6122 290.103 65.3837 291.683C57.0476 302.563 57.6619 315.55 67.4019 325.378C73.4565 331.433 80.0376 337.048 86.3554 342.84C91.0938 347.139 96.3587 351.088 100.483 355.914C107.766 364.25 113.382 373.639 109.696 385.398C106.537 395.664 112.417 404.088 114.874 413.214C115.312 414.705 117.594 415.671 118.998 416.899C122.069 419.707 125.579 422.252 128.036 425.586C130.405 428.745 132.774 431.202 136.81 431.202C144.62 431.114 150.324 434.975 155.325 440.503C156.291 441.556 157.431 442.697 158.66 443.223C165.416 446.382 168.4 451.91 168.838 458.93C169.189 464.985 173.05 467.266 178.052 468.319C185.072 469.811 192.092 470.864 199.112 472.268C204.991 473.496 210.87 474.462 216.573 476.304C225.611 479.288 234.474 482.622 243.161 486.395C248.163 488.589 253.603 491.134 257.113 494.995C262.027 500.435 267.73 504.033 274.399 506.49C287.649 511.228 300.548 516.581 312.219 524.653C316.606 527.725 321.871 529.041 327.311 527.637C336.086 525.355 344.773 522.898 353.46 520.617C362.41 518.248 370.22 514.299 376.011 506.665C382.154 498.592 389.963 491.66 390.665 480.429C390.841 477.796 393.298 474.9 395.491 472.97C401.634 467.793 405.846 461.738 408.566 454.192C409.882 450.506 412.778 447.348 414.971 443.925C419.008 437.783 423.22 431.641 427.168 425.411C427.958 424.182 427.958 422.339 428.309 420.76C428.748 418.742 429.011 416.636 429.801 414.881C432.784 408.563 435.68 402.157 439.102 396.015C443.577 388.03 443.665 379.782 441.208 371.446C438.225 361.267 433.837 351.351 431.731 340.997C430.064 332.837 430.942 324.237 430.503 315.813C430.327 311.953 430.941 307.214 428.923 304.582C424.448 298.439 423.571 291.77 422.956 284.751C422.518 279.047 422.781 273.343 421.991 267.728C421.552 264.744 420.236 261.585 418.306 259.304C415.322 255.794 411.461 252.986 408.039 249.739C405.231 247.019 402.599 244.036 400.054 241.052C397.334 237.893 397.246 234.647 400.581 231.839C402.336 230.171 404.266 228.767 406.109 227.364Z" fill="#3C3A1E"/>
<path d="M221.838 155.323C228.946 154.094 234.825 156.112 239.476 161.816C240.002 162.43 240.792 163.044 241.581 163.395C254.042 169.099 266.502 173.662 280.717 168.748C288.263 166.116 296.512 164.536 304.233 168.397C311.341 171.907 319.414 174.013 324.416 180.945C325.468 182.349 327.574 182.963 329.066 184.104C332.225 186.473 335.472 188.667 338.192 191.475C341.439 194.809 344.685 197.529 349.424 198.582C351.266 199.021 353.372 200.074 354.689 201.478C361.094 208.586 367.149 216.132 373.73 223.152C376.362 225.96 379.784 228.241 383.207 229.908C388.647 232.453 391.192 236.753 393.122 242.017C394 244.387 395.316 246.844 396.983 248.686C403.652 256.145 408.654 264.305 410.145 274.396C411.374 282.908 412.514 291.42 414.182 299.843C415.059 304.231 416.99 308.443 418.745 312.567C421.026 317.919 422.167 323.36 421.201 329.239C419.973 336.61 420.675 343.542 423.571 350.649C427.695 361.004 430.941 371.797 428.134 383.116C427.168 387.152 426.203 391.803 423.571 394.611C417.955 400.49 416.726 407.51 415.059 414.793C412.865 424.709 410.408 434.712 407.162 444.276C405.846 448.137 402.336 451.472 399.264 454.367C395.93 457.614 391.455 459.72 388.208 462.967C384.611 466.652 380.925 470.689 378.731 475.164C375.222 482.359 370.571 488.326 363.902 492.625C356.093 497.539 348.283 502.453 340.298 506.928C332.839 511.14 324.854 512.106 316.167 510.614C303.97 508.508 292.475 504.998 282.384 498.066C277.383 494.644 273.346 489.818 269.047 485.518C264.659 481.218 260.447 476.743 256.235 472.356C251.321 467.354 244.828 466.126 238.423 464.634C227.805 462.177 217.1 461.387 206.307 461.036C182.176 460.159 164.188 448.839 152.342 427.692C150.762 424.796 147.34 422.69 144.357 420.935C139.969 418.391 134.968 416.987 130.58 414.442C122.508 409.791 119.787 402.07 118.647 393.207C116.716 377.676 115.926 361.706 107.239 347.841C106.625 346.876 106.186 345.648 105.309 344.946C100.044 340.909 95.0425 335.995 89.1634 333.1C76.9664 327.221 73.4565 316.691 71.4383 304.757C70.2976 297.65 72.579 291.244 77.3174 286.155C83.021 280.1 84.074 272.817 84.3372 265.095C84.425 262.726 84.5127 260.445 84.8637 258.075C85.6535 252.547 88.4614 248.599 93.814 246.58C95.0425 246.142 96.1832 245.44 97.4117 244.913C106.713 240.789 107.941 238.42 106.099 228.329C104.87 221.748 102.852 215.079 102.94 208.498C103.028 200.425 104.168 192.264 106.362 184.455C108.117 177.961 114.259 174.627 120.577 173.223C131.282 170.854 142.075 169.099 152.781 167.081C172.612 163.395 192.355 159.71 212.186 156.024C215.082 155.937 218.504 155.761 221.838 155.323ZM224.12 159.271C219.908 159.885 215.696 160.236 211.572 161.026C193.583 164.361 175.683 167.783 157.782 171.117C145.585 173.399 133.388 175.417 121.191 177.961C115.926 179.102 111.013 181.91 109.609 187.526C107.152 197.266 105.309 207.269 108.029 217.36C108.907 220.431 109.345 223.678 109.784 226.837C112.066 241.491 110.925 244.123 97.2362 249.915C91.1816 252.459 88.7246 256.496 88.7246 262.638C88.8124 272.905 86.6187 282.118 79.7743 290.63C71.0873 301.511 77.0542 321.166 89.1634 328.098C96.1832 332.135 103.905 336.522 108.556 342.752C113.996 350.035 117.418 359.249 119.787 368.111C122.332 377.5 122.42 387.416 123.824 397.068C124.526 402.157 126.895 406.72 131.37 409.44C135.845 412.073 140.584 414.442 145.41 416.197C149.885 417.864 153.658 420.058 155.852 424.27C165.68 442.96 180.772 453.841 202.095 456.035C213.502 457.175 225.085 456.035 236.404 459.281C244.653 461.65 253.34 462.528 259.745 469.197C266.502 476.304 273.346 483.236 280.191 490.169C281.507 491.485 282.998 492.713 284.578 493.766C294.669 500.347 305.901 503.77 317.659 505.875C325.117 507.192 331.962 505.875 338.28 502.278C345.826 498.066 353.109 493.415 360.392 488.852C366.798 484.816 371.01 479.2 374.344 472.443C376.801 467.617 380.574 463.405 384.435 459.457C387.769 456.035 392.245 453.841 395.842 450.594C398.562 448.137 401.634 445.154 402.774 441.819C405.846 432.606 407.952 423.041 410.584 413.652C412.251 407.51 411.988 400.666 416.99 395.752C425.94 387.153 425.413 376.272 423.571 365.567C422.518 359.336 419.534 353.37 417.867 347.227C416.902 343.63 416.112 339.769 416.551 336.083C417.516 326.782 417.779 317.832 413.041 309.32C411.461 306.424 410.584 303.002 409.97 299.756C408.566 291.42 407.425 283.083 406.372 274.747C405.144 265.709 400.668 258.339 394.965 251.494C392.771 248.862 391.016 245.791 389.788 242.544C388.12 238.332 386.19 234.998 381.803 232.716C377.678 230.61 373.73 227.539 370.483 224.117C364.165 217.273 358.374 209.989 352.319 202.882C351.793 202.268 350.915 201.741 350.126 201.478C343.369 199.284 337.753 195.599 332.225 191.036C324.679 184.806 316.167 179.716 307.919 174.452C301.777 170.591 295.195 169.099 287.825 171.029C281.77 172.609 275.54 173.75 269.31 174.539C265.8 174.978 261.851 175.154 258.517 174.101C251.848 171.995 245.53 169.099 239.037 166.466C237.984 166.028 237.019 165.15 236.317 164.273C233.245 160.587 229.297 158.569 224.12 159.271Z" fill="#3C3A1E"/>
<path d="M221.487 441.468C217.275 441.468 212.976 441.38 208.764 441.468C201.481 441.644 195.338 439.45 189.284 434.975C181.035 428.832 171.997 423.568 163.135 418.215C158.221 415.232 152.868 412.775 147.779 409.967C145.146 408.475 142.339 406.895 140.496 404.702C136.898 400.402 133.476 395.752 130.668 390.838C128.825 387.679 127.334 383.818 127.246 380.22C127.158 372.674 127.86 365.04 128.562 357.493C129.089 352.58 128.211 348.543 123.824 345.647C122.508 344.77 121.191 343.629 120.314 342.401C115.312 335.556 108.38 331.257 100.834 327.835C92.4977 324.061 88.3736 317.393 87.7594 308.618C86.6186 294.49 90.5673 281.065 95.3934 268.078C97.9381 261.409 103.554 257.022 110.223 254.477C115.224 252.547 120.489 251.143 125.579 249.388C126.719 248.949 127.685 247.984 128.738 247.282C128.036 246.229 127.509 245.001 126.544 244.299C121.893 241.14 120.226 237.103 120.577 231.224C120.928 225.433 119.349 219.466 118.647 213.587C118.559 212.622 118.208 211.569 117.945 210.603C114.522 196.476 116.716 191.211 130.317 186.209C142.514 181.734 155.237 178.224 167.785 174.89C171.383 173.925 175.771 174.188 179.368 175.329C186.388 177.522 192.794 176.908 199.462 174.364C203.323 172.872 207.711 171.643 211.659 171.907C215.696 172.17 220.785 173.311 223.242 176.031C232.456 186.648 244.038 186.736 256.235 185.157C262.992 184.279 269.749 182.787 276.593 182.085C286.157 181.12 295.195 184.016 303.795 187.701C306.339 188.842 308.094 191.825 310.376 193.844C312.306 195.599 314.412 197.178 316.606 198.582C317.396 199.108 318.536 199.108 319.589 199.284C329.768 200.863 337.051 206.83 344.246 213.938C353.811 223.415 362.235 234.12 374.432 241.052C382.329 245.527 386.629 253.863 387.594 262.901C388.735 272.817 392.508 281.328 398.036 289.226C401.634 294.403 403.476 299.58 401.283 305.985C399.528 311.338 398.387 317.042 397.773 322.57C397.509 325.378 398.475 328.712 399.879 331.257C404.178 338.803 405.67 346.086 401.809 354.598C400.405 357.669 401.721 362.32 402.774 365.917C405.846 376.622 409.443 387.064 407.162 398.472C406.021 404.175 403.827 409.177 399.879 413.652C393.561 420.496 387.331 427.516 381.89 434.975C379.17 438.748 378.205 443.75 376.362 448.225C370.922 461.387 362.41 471.741 349.248 477.884C341.614 481.481 333.98 480.34 326.258 477.796C321.169 476.129 315.904 474.9 310.815 473.496C306.954 472.443 302.917 471.478 299.144 470.074C293.704 468.056 288.263 465.862 282.911 463.581C275.803 460.509 269.573 456.21 264.659 450.243C261.061 445.943 256.762 443.837 251.058 443.311C241.23 442.433 231.49 440.942 221.663 439.713C221.575 440.591 221.575 441.029 221.487 441.468ZM221.75 436.116C221.838 435.677 221.838 435.238 221.926 434.712C233.158 436.116 244.477 437.081 255.621 439.011C259.394 439.625 263.869 441.819 266.063 444.715C276.417 458.228 292.826 460.685 306.69 467.793C308.007 468.495 309.849 468.143 311.429 468.495C316.518 469.635 321.783 470.337 326.609 472.355C335.208 475.865 343.281 476.129 351.266 471.039C363.112 463.581 369.869 452.437 373.993 439.362C374.871 436.642 376.011 433.746 377.766 431.553C383.382 424.533 389.261 417.601 395.404 411.02C399.001 407.071 401.195 402.771 402.16 397.594C404.178 387.24 401.019 377.675 398.387 367.935C397.158 363.46 395.491 357.844 396.983 354.071C400.23 346.174 399.089 339.856 395.14 332.924C393.473 330.028 392.508 326.255 392.771 323.008C393.385 316.954 394.789 310.899 396.632 305.108C398.299 300.019 396.983 296.07 394.087 292.033C387.945 283.522 384.084 274.308 382.768 263.691C381.627 254.653 376.889 247.37 368.465 242.895C366.271 241.754 364.165 240.35 362.41 238.595C354.688 231.224 346.879 224.029 339.684 216.219C333.892 209.901 327.487 205.426 318.975 204.11C317.22 203.847 315.29 203.584 313.973 202.706C311.429 201.039 309.147 198.933 306.954 196.827C305.199 195.16 303.97 192.527 301.864 191.65C291.247 187.175 280.278 184.806 268.52 187.262C260.974 188.842 253.252 189.368 245.53 190.07C236.668 190.86 229.121 188.052 223.067 181.383C220.171 178.224 216.661 176.031 212.361 176.206C208.676 176.382 204.815 176.908 201.393 178.312C193.583 181.383 186.037 182.436 177.964 179.453C175.244 178.488 171.822 178.4 168.926 179.014C157.256 181.734 145.497 184.367 134.09 188.052C119.261 192.878 117.243 198.406 122.069 213.324C123.911 219.115 124.35 225.521 124.438 231.751C124.526 235.875 125.666 238.507 128.825 241.052C130.844 242.719 133.301 245.79 132.95 247.896C132.599 250.002 129.44 252.284 126.983 253.337C122.069 255.443 116.716 256.671 111.627 258.602C105.923 260.707 101.097 264.481 99.1666 270.272C95.0424 282.82 90.8305 295.543 92.761 309.232C93.7262 315.901 97.0606 320.201 102.94 323.535C109.609 327.308 115.663 332.134 121.893 336.609C123.999 338.101 125.491 340.558 127.509 342.05C132.599 345.823 134.353 350.737 133.827 356.967C133.125 364.513 132.423 372.147 132.511 379.694C132.511 382.677 133.915 385.924 135.494 388.556C137.951 392.768 141.022 396.717 144.094 400.578C145.322 402.157 146.814 403.912 148.569 404.526C164.802 410.054 176.999 422.251 191.653 430.412C198.146 434.01 203.938 436.642 211.221 436.203C214.731 436.028 218.241 436.116 221.75 436.116Z" fill="#3C3A1E"/>
<path d="M171.822 192.001C184.37 193.844 196.918 195.686 209.466 197.617C220.61 199.284 231.666 201.039 242.81 202.794C250.356 204.022 257.727 203.145 264.659 199.898C274.136 195.423 282.472 198.582 289.931 204.198C294.23 207.532 298.179 210.34 303.882 210.604C307.129 210.779 310.551 212.008 313.359 213.675C324.503 220.695 335.208 228.241 344.334 237.893C350.301 244.211 357.058 249.915 363.727 255.53C368.728 259.83 371.448 265.183 371.361 271.588C371.273 279.398 373.203 286.154 379.346 291.595C385.751 297.211 387.506 304.494 383.909 312.303C381.101 318.446 381.013 324.588 381.89 331.081C383.645 344.244 384.962 357.494 386.19 370.656C386.541 374.604 386.892 378.729 385.927 382.414C384.786 386.977 382.856 391.627 380.048 395.401C375.397 401.543 369.606 406.808 364.604 412.775C362.674 415.144 361.621 418.215 360.48 421.111C359.69 423.129 359.778 425.586 358.725 427.429C354.162 435.063 349.599 442.697 344.51 449.98C341.614 454.104 336.963 455.332 332.05 454.806C322.924 453.753 313.886 452.349 304.76 451.559C296.248 450.857 290.106 445.417 283.086 441.556C274.838 436.993 266.765 431.728 257.99 428.569C248.689 425.235 239.563 419.882 228.946 421.111C222.277 421.901 215.696 423.041 209.027 424.094C198.936 425.674 191.126 422.603 185.16 414.003C183.229 411.195 179.895 409.089 176.824 407.247C169.102 402.596 161.029 398.472 153.395 393.646C143.567 387.328 141.9 380.133 148.481 369.252C153.395 361.003 150.675 352.492 151.552 344.068C147.34 339.417 145.234 332.836 138.565 330.555C131.984 328.273 126.983 325.115 123.999 317.919C121.893 312.83 117.067 308.618 112.768 304.757C106.274 298.966 104.431 293.262 108.292 285.365C111.715 278.345 116.628 272.817 123.912 269.307C131.809 265.534 139.531 261.41 147.165 257.11C152.605 254.039 152.605 252.372 148.481 247.633C146.199 245.001 144.006 242.193 141.549 239.736C136.723 234.734 137.863 227.714 134.968 222.011C134.705 221.397 134.704 220.431 135.055 219.817C138.214 213.148 140.671 205.865 144.971 200.074C149.271 194.282 156.641 193.405 163.661 193.054C166.294 192.966 168.926 193.054 171.559 193.054C171.734 192.703 171.734 192.352 171.822 192.001ZM174.63 196.388C166.908 197.09 161.468 196.739 156.554 198.231C152.517 199.46 148.393 202.267 145.848 205.602C142.953 209.2 141.461 214.113 139.882 218.589C139.267 220.256 139.969 222.449 140.408 224.38C140.847 226.661 142.69 229.118 142.163 230.961C140.847 235.173 143.216 237.542 145.41 240.175C146.989 242.017 148.92 243.685 150.587 245.527C156.641 251.67 156.29 255.794 148.92 260.093C141.373 264.481 133.652 268.78 125.842 272.641C119.436 275.8 115.137 280.714 112.066 286.856C108.907 293.174 110.398 297.123 115.575 301.861C120.138 306.073 125.228 310.548 127.685 315.989C130.493 322.394 134.968 324.851 140.671 327.045C143.128 328.01 145.322 329.853 147.252 331.696C149.446 333.802 151.377 336.259 153.044 338.803C154.272 340.821 155.676 343.191 155.676 345.384C155.764 355.3 157.519 365.654 151.026 374.604C150.762 374.955 150.675 375.394 150.587 375.833C148.481 382.326 148.92 384.783 154.536 388.644C161.029 393.119 167.698 397.331 174.718 400.929C181.123 404.263 187.178 407.51 191.477 413.828C193.32 416.548 197.532 418.829 200.866 419.268C205.78 419.882 211.045 419.093 215.959 418.127C227.542 415.934 238.861 415.495 249.83 420.935C251.497 421.813 253.427 422.164 255.27 422.69C266.151 425.761 276.417 430.324 285.455 437.344C293.44 443.574 302.128 447.611 312.833 447.172C318.361 446.909 324.064 448.751 329.593 449.629C333.717 450.331 338.192 450.857 340.912 446.996C345.826 439.977 350.213 432.518 354.689 425.235C355.303 424.182 355.654 422.778 355.654 421.462C355.829 415.934 358.9 412.073 362.498 408.212C367.851 402.596 373.116 396.892 377.854 390.75C379.784 388.205 381.101 384.608 381.188 381.449C381.452 375.57 380.662 369.603 380.135 363.636C379.258 353.018 378.38 342.401 377.152 331.783C376.362 324.851 375.748 318.182 379.082 311.689C382.066 305.722 381.452 300.106 376.275 295.368C369.606 289.313 366.622 281.943 366.622 272.817C366.622 268.78 364.955 263.779 362.147 260.971C352.758 251.406 342.843 242.281 332.752 233.506C325.907 227.627 318.361 222.537 310.99 217.36C308.884 215.956 306.164 215.079 303.619 214.903C297.126 214.552 292.212 211.744 287.298 207.445C282.296 203.057 275.364 199.898 269.134 202.794C256.937 208.498 244.828 207.708 232.28 205.514C212.098 202.267 192.267 199.196 174.63 196.388Z" fill="#3C3A1E"/>
<path d="M175.332 211.13C188.319 211.218 200.603 213.763 212.976 218.238C227.542 223.503 242.985 226.135 258.605 223.941C262.466 223.415 266.063 220.958 269.924 219.817C272.995 218.94 276.593 217.448 279.401 218.325C292.475 222.362 305.813 226.047 315.378 237.103C317.571 239.648 320.906 241.228 323.889 242.983C329.417 246.229 335.209 249.037 340.737 252.284C346.089 255.443 349.248 260.357 349.95 266.499C350.652 272.641 353.285 277.204 358.549 280.539C364.429 284.312 364.78 290.103 363.639 296.07C362.674 301.51 361.972 306.512 365.569 311.514C366.798 313.269 366.535 316.779 365.833 319.148C363.99 325.027 363.727 330.994 364.867 336.873C366.973 347.49 362.586 356.353 358.023 365.128C354.601 371.709 350.74 378.027 344.949 383.028C341 386.363 337.315 390.575 335.121 395.137C333.015 399.613 332.05 404.965 331.962 410.055C331.699 425.586 322.661 428.482 309.762 424.182C297.828 420.146 286.07 415.934 274.048 412.161C269.222 410.669 264.133 409.967 259.043 409.353C252.111 408.387 245.091 407.51 238.159 407.071C227.805 406.457 217.451 406.194 207.097 406.194C201.042 406.194 195.514 404.965 190.424 401.719C182.352 396.541 174.279 391.189 166.118 386.099C157.782 380.835 156.291 376.184 160.766 367.409C164.363 360.389 164.802 353.194 164.276 345.384C163.661 334.416 159.625 327.308 149.095 323.535C144.62 321.956 140.496 319.148 136.635 316.34C128.65 310.373 128.036 301.51 128.474 292.648C128.562 290.366 131.019 287.734 133.125 286.242C136.723 283.61 140.759 281.416 144.796 279.398C153.307 275.274 159.8 268.78 165.855 261.761C168.312 258.865 169.19 255.531 167.435 251.933C164.89 246.668 162.521 241.315 159.362 236.401C155.501 230.522 154.623 224.731 157.08 218.15C158.923 213.236 162.257 210.955 167.435 210.955C170.067 211.13 172.699 211.13 175.332 211.13ZM176.56 214.991C174.367 214.991 172.173 214.991 169.979 214.991C161.555 214.903 156.729 221.835 160.064 229.645C162.608 235.699 165.592 241.579 168.575 247.37C171.471 253.074 172.787 258.689 168.224 264.13C162.082 271.413 155.589 278.345 146.726 282.557C142.953 284.4 139.18 286.506 135.67 288.875C134.09 289.928 131.984 291.858 131.984 293.438C131.984 300.721 131.897 308.53 138.565 313.269C143.743 317.042 149.534 319.937 155.325 322.658C162.17 325.992 166.908 330.38 166.996 338.54C166.996 340.734 167.435 342.927 167.873 345.033C169.453 353.545 168.4 361.53 164.276 369.252C160.766 375.833 161.643 378.641 168.049 382.59C174.718 386.714 181.913 390.224 188.055 395.05C194.9 400.402 202.27 402.684 210.782 402.508C218.416 402.333 226.138 401.719 233.596 402.772C253.427 405.579 273.873 405.843 292.563 414.618C295.196 415.846 298.091 416.548 300.899 417.25C307.129 418.829 313.272 420.76 319.589 421.637C324.152 422.252 326.522 419.619 327.136 414.969C327.487 412.073 327.487 409.089 328.101 406.281C329.242 401.192 329.856 395.752 332.225 391.277C334.419 386.977 338.016 383.116 341.79 379.957C347.581 375.219 351.003 368.989 354.074 362.583C357.584 355.212 362.235 348.017 360.568 338.979C359.339 331.959 359.251 324.764 361.445 317.744C361.972 316.164 362.059 313.883 361.182 312.654C357.409 307.302 357.848 301.861 359.339 295.895C360.743 290.191 360.041 285.102 353.899 281.767C349.511 279.398 346.967 275.098 346.44 269.921C345.651 261.848 341.351 256.496 334.331 252.898C330.295 250.88 326.171 248.862 322.31 246.668C319.063 244.825 315.378 243.07 313.008 240.35C304.146 230.259 292.124 226.31 280.191 221.835C276.593 220.519 273.61 221.046 270.363 223.152C267.292 225.17 263.519 226.661 259.921 227.188C243.512 229.908 227.366 227.188 212.01 221.835C200.34 218.062 188.757 215.43 176.56 214.991Z" fill="#3C3A1E"/>
<path d="M197.269 225.521C203.411 227.1 209.729 228.241 215.783 230.259C221.312 232.102 226.401 235.173 231.841 237.103C240.879 240.438 250.093 239.209 258.955 236.489C274.048 231.838 288.965 232.628 300.46 243.509C310.025 252.547 321.52 257.373 332.225 263.866C336.7 266.587 340.035 270.184 339.42 275.888C339.069 279.222 340.473 280.802 343.193 281.855C343.72 282.03 344.246 282.293 344.861 282.469C355.917 285.891 354.952 294.841 350.74 302.475C349.16 305.371 347.318 308.267 345.914 311.25C344.597 314.146 344.246 316.866 347.054 319.586C350.038 322.394 350.213 326.167 347.932 329.677C345.914 332.836 343.632 335.907 341.087 338.715C337.665 342.488 334.857 346.437 332.576 351.263C328.891 359.161 323.889 366.444 319.326 373.902C316.343 378.904 313.359 383.905 310.112 388.732C308.796 390.662 306.866 392.68 304.76 393.558C296.512 396.892 287.912 397.506 279.488 394.435C268.432 390.399 257.025 389.258 245.442 389.346C241.669 389.346 237.808 389.258 234.035 389.609C219.644 391.276 206.219 386.713 192.794 382.853C187.178 381.273 182.615 377.763 180.333 371.972C178.754 367.848 179.368 364.25 182.878 361.354C184.019 360.389 185.247 359.599 186.3 358.634C192.267 353.545 193.144 349.245 189.02 342.839C187.002 339.768 184.106 337.224 181.737 334.416C180.246 332.661 178.491 330.906 177.701 328.8C176.034 324.5 172.699 321.955 169.365 318.972C163.837 314.058 158.572 308.706 154.272 302.739C150.06 296.86 151.113 292.56 156.115 289.225C161.292 285.716 166.03 281.504 170.33 276.941C174.717 272.202 179.105 267.025 182.001 261.322C184.194 256.847 184.106 251.231 184.984 246.141C185.335 243.86 185.423 241.578 185.774 239.297C185.861 238.419 186.563 237.279 186.212 236.84C185.159 235.436 182.527 234.471 184.896 232.453C187.616 230.171 189.02 225.871 193.759 226.661C194.724 226.837 195.777 226.661 196.83 226.661C197.093 226.135 197.181 225.784 197.269 225.521ZM198.76 227.802C196.479 228.767 192.706 229.118 192.092 230.698C190.337 235.348 189.81 240.438 188.933 245.352C187.967 251.055 188.231 257.285 185.861 262.287C182.79 268.692 178.052 274.572 173.226 279.924C169.277 284.399 164.275 287.822 159.8 291.682C155.676 295.192 155.15 297.123 158.572 301.071C163.31 306.512 168.751 311.426 173.752 316.691C176.385 319.499 178.754 322.57 181.123 325.641C182.702 327.659 183.931 330.204 185.949 331.695C191.477 335.556 193.495 341.611 196.391 347.051C197.005 348.192 196.918 350.21 196.303 351.263C194.11 355.036 192.092 359.073 189.02 361.969C183.141 367.672 183.053 371.709 190.249 376.184C192.443 377.588 194.987 378.465 197.444 379.343C213.063 384.695 229.121 385.573 245.442 384.783C257.902 384.169 270.187 385.748 282.033 390.136C288.878 392.68 295.897 392.154 302.654 389.697C304.409 389.083 305.988 387.415 307.041 385.836C310.2 381.273 313.096 376.535 315.992 371.796C320.554 364.338 325.732 357.142 329.417 349.245C331.786 344.243 334.682 339.944 338.28 335.907C340.561 333.45 342.404 330.642 344.422 328.01C346.352 325.465 346.001 323.008 343.72 320.99C340.561 318.182 340.737 314.672 341.965 311.338C343.281 307.828 344.948 304.318 347.054 301.247C352.407 293.35 351.266 288.787 342.491 285.189C338.192 283.434 335.208 280.977 336.086 275.712C336.788 271.676 334.331 268.868 331.26 267.113C324.591 263.252 317.571 260.005 310.902 256.057C307.656 254.214 304.497 251.845 302.127 249.037C295.195 240.789 285.719 237.893 275.803 237.366C269.748 237.015 263.518 239.385 257.376 240.701C245.706 243.07 234.649 242.719 223.944 236.401C216.31 232.102 208.062 228.855 198.76 227.802Z" fill="#3C3A1E"/>
<path d="M212.01 248.686C215.433 249.564 219.557 250.265 223.33 251.669C234.737 255.881 246.408 254.126 258.078 253.161C258.78 253.073 259.482 252.722 260.096 252.371C272.205 245.088 286.157 246.843 296.863 256.32C300.548 259.567 305.023 262.024 309.323 264.393C315.29 267.727 320.028 271.676 321.432 278.871C321.783 280.802 324.152 282.557 325.907 283.961C327.487 285.189 329.593 285.803 331.435 286.593C341.702 291.244 344.247 299.58 339.684 309.934C336.525 317.217 332.313 323.272 326.258 328.449C324.152 330.292 323.275 333.626 322.046 336.434C319.765 341.787 317.571 347.139 315.465 352.58C313.71 357.055 311.78 361.442 310.727 366.093C309.323 372.411 305.374 376.622 298.969 376.008C293.704 375.57 288.614 373.464 283.349 372.586C279.313 371.884 274.926 371.094 271.065 371.972C255.007 375.92 239.212 377.939 223.505 370.919C219.293 368.988 214.731 367.497 210.87 364.952C205.693 361.618 204.991 357.23 207.448 351.614C209.027 348.017 210.694 344.419 211.572 340.646C211.923 338.979 211.045 336.258 209.729 335.205C207.272 333.012 204.113 331.52 201.217 329.941C196.216 327.396 193.145 323.359 191.828 317.919C191.214 315.55 190.512 313.093 189.986 310.724C188.845 305.283 185.774 301.598 180.86 299.141C178.403 297.913 175.946 296.421 173.84 294.666C168.575 290.191 168.663 287.032 173.84 282.469C179.895 277.204 185.949 272.027 192.092 266.762C194.549 264.656 196.304 262.726 194.373 258.953C192.881 256.057 195.338 252.02 198.673 251.143C202.972 250.09 207.184 249.564 212.01 248.686ZM212.01 251.845C207.272 252.635 203.674 253.161 200.164 253.863C197.795 254.302 196.83 255.969 198.058 258.075C200.779 262.55 198.76 265.972 195.602 268.956C190.337 273.87 185.072 278.608 179.631 283.259C172.787 288.962 172.787 289.752 180.772 294.227C182.264 295.105 183.756 296.07 185.335 296.86C189.898 299.229 192.443 303.265 193.934 308.004C194.724 310.548 195.338 313.093 195.953 315.638C197.093 320.639 199.638 324.237 204.464 326.518C208.062 328.273 211.659 330.555 214.467 333.363C216.047 335.03 217.012 338.452 216.486 340.734C215.608 345.121 213.59 349.245 211.747 353.369C210.08 357.055 210.606 360.126 214.116 361.969C218.24 364.162 222.54 366.005 226.84 367.76C240.616 373.464 254.656 372.147 268.432 368.286C275.101 366.444 280.805 366.619 286.947 369.515C290.896 371.358 295.546 372.147 299.934 372.586C303.97 372.937 305.988 370.129 307.129 366.356C308.621 361.179 310.464 356.177 312.394 351.088C314.324 345.911 316.43 340.821 318.624 335.82C320.116 332.485 321.169 328.449 323.714 326.343C329.856 321.254 334.068 315.199 337.314 308.004C340.824 300.019 338.543 292.735 330.558 289.313C328.452 288.436 326.083 287.646 324.24 286.242C322.134 284.575 319.326 282.469 318.887 280.188C317.659 273.255 313.096 269.921 307.568 266.85C303.005 264.305 298.354 261.585 294.669 257.987C289.931 253.337 284.578 250.88 278.26 250.967C272.293 250.967 265.8 249.388 261.237 255.267C260.798 255.881 259.658 256.145 258.868 256.232C246.934 257.373 235.088 259.04 223.33 254.741C219.381 253.337 215.169 252.635 212.01 251.845Z" fill="#3C3A1E"/>
<path d="M208.939 270.711C208.588 264.656 210.519 262.814 217.538 262.199C232.807 260.883 247.987 259.128 263.255 257.987C268.959 257.549 275.101 257.549 280.454 259.128C285.017 260.532 288.878 264.481 292.914 267.464C296.775 270.36 300.548 273.256 304.146 276.414C308.27 280.188 312.131 284.4 316.079 288.348C317.834 290.103 319.502 291.858 321.344 293.438C322.573 294.491 324.064 295.193 325.293 296.158C332.049 301.686 331.699 307.126 324.503 311.952C320.642 314.497 316.343 316.866 313.359 320.288C310.99 323.009 309.849 327.22 309.323 330.906C308.796 334.679 309.411 338.715 309.937 342.664C310.551 347.227 309.06 350.298 304.935 352.316C300.197 354.686 295.81 357.932 290.896 359.424C283.964 361.53 276.768 363.197 269.573 363.724C261.061 364.25 252.374 363.724 243.775 362.846C235.088 361.969 228.156 357.23 222.891 350.386C219.381 345.823 218.24 340.909 220.873 335.206C221.75 333.275 221.224 330.116 220.346 328.01C217.977 322.219 215.257 316.603 212.274 311.075C210.606 308.004 208.5 304.845 205.78 302.739C200.691 298.878 196.918 294.403 195.338 288.085C194.285 283.698 195.426 280.275 198.936 277.643C202.183 275.361 205.517 273.08 208.939 270.711ZM216.749 266.236C218.855 270.009 215.52 271.237 212.8 273.08C209.027 275.625 205.254 278.082 201.919 281.153C200.515 282.469 199.726 285.277 199.989 287.207C200.691 292.472 204.113 296.158 208.5 298.878C212.712 301.423 215.082 305.284 216.836 309.759C218.942 315.024 221.312 320.201 224.207 325.115C226.664 329.326 227.454 333.1 225.524 337.926C224.558 340.207 224.909 343.98 226.138 346.086C229.648 351.79 234.913 356.441 241.581 357.494C260.623 360.652 279.576 361.53 297.214 351C305.199 346.262 304.848 346.701 303.97 337.663C303.005 328.186 303.619 318.797 313.798 313.444C316.957 311.777 319.677 309.144 322.66 307.126C325.644 305.108 325.644 303.002 323.011 300.808C321.607 299.58 319.94 298.615 318.536 297.386C316.255 295.368 314.149 293.262 312.043 291.068C308.358 287.383 304.935 283.434 301.162 279.924C297.74 276.765 293.353 274.484 290.632 270.886C284.841 263.077 277.295 260.093 268.169 260.883C251.234 262.463 234.298 264.393 216.749 266.236Z" fill="#3C3A1E"/>
<path d="M254.217 274.484C257.903 274.484 261.5 274.484 265.186 274.484C275.101 274.484 283.788 277.994 291.422 283.961C293.528 285.628 295.195 287.997 296.687 290.278C299.32 294.227 301.513 298.527 304.409 302.388C306.954 305.81 306.778 308.793 303.97 311.777C302.742 313.005 301.601 314.585 300.109 315.287C294.493 317.919 293.704 322.306 295.108 327.747C296.248 332.046 295.371 335.995 293.177 339.944C289.053 347.49 282.209 349.859 274.399 349.508C262.202 349.07 251.234 345.121 242.459 336.258C238.686 332.485 235.264 328.273 235.878 322.482C237.282 309.671 229.911 301.51 221.4 293.876C219.908 292.56 217.802 291.419 217.1 289.664C216.31 287.821 216.31 285.365 216.837 283.346C218.679 275.186 225.26 274.572 232.017 274.484C239.388 274.396 246.846 274.484 254.217 274.484ZM301.601 307.389C298.179 301.51 295.195 296.333 292.124 291.331C291.159 289.752 289.755 288.26 288.263 287.207C281.858 282.732 274.926 279.31 266.853 279.134C257.201 278.959 247.548 278.783 237.896 278.783C233.509 278.783 229.034 278.871 224.822 279.924C222.628 280.451 220.434 283.083 219.469 285.277C219.03 286.33 220.961 289.313 222.54 290.191C229.385 294.227 233.333 300.633 237.457 307.038C240.002 310.899 241.143 315.023 240.265 319.498C239.3 324.939 241.494 329.151 245.267 332.836C252.901 340.382 262.29 344.068 272.82 344.594C285.719 345.296 291.51 338.715 289.667 326.08C288.79 319.937 290.545 315.287 296.073 312.04C298.267 310.899 299.934 308.881 301.601 307.389Z" fill="#3C3A1E"/>
<path d="M271.24 310.812C271.942 315.726 272.908 319.323 272.732 322.921C272.557 326.606 270.363 329.678 266.502 330.555C262.641 331.432 259.131 330.643 256.411 327.133C253.164 323.096 250.971 318.885 251.848 313.532C252.725 308.355 250.181 305.108 246.232 302.125C243.863 300.37 241.318 298.088 240.09 295.544C238.774 292.736 237.37 288.261 238.686 286.418C240.265 284.136 244.828 282.557 247.899 282.82C258.605 283.873 269.222 285.804 279.84 287.471C282.033 287.822 283.964 288.173 282.911 291.332C282.735 291.946 283.788 293.262 284.578 293.876C289.58 298.352 289.053 302.388 282.999 305.371C278.699 307.477 274.399 309.32 271.24 310.812ZM243.073 288.261C242.722 288.875 242.371 289.401 242.02 290.015C244.214 292.56 246.057 295.631 248.689 297.562C254.568 301.861 258.078 306.863 257.113 314.585C256.85 316.779 258.078 319.323 259.131 321.429C260.272 323.623 262.202 326.08 265.01 324.325C267.818 322.57 267.467 319.587 266.063 316.866C262.816 310.548 262.992 309.32 268.959 305.722C272.907 303.353 277.119 301.51 280.542 299.755C280.366 289.84 273.346 290.717 267.028 290.103C261.149 289.577 255.27 288.436 249.391 287.822C247.373 287.734 245.179 288.173 243.073 288.261Z" fill="#3C3A1E"/>
</g>
</svg>
