<svg width="66" height="66" viewBox="0 0 66 66" fill="none" xmlns="http://www.w3.org/2000/svg">
<path d="M29.8083 52.9905C28.659 52.9905 28.0235 51.6506 28.7504 50.7604C29.3287 50.0522 29.9118 49.3464 30.5084 48.6497C32.9064 45.8415 35.3707 43.0999 37.7212 40.2537C39.2283 38.426 40.2519 36.2937 41.0765 34.0757C41.92 31.7815 42.7257 29.4683 43.4555 27.1361C43.9294 25.594 44.2137 23.9852 44.081 22.367C44.0242 21.7101 43.7967 21.0533 43.5408 20.4346C43.3418 19.9491 42.8584 19.7301 42.3655 19.5588C41.1902 19.1495 40.0434 19.3494 38.8776 19.5969C36.9535 19.9967 35.02 20.3394 33.0959 20.7392C30.8022 21.2151 28.4896 21.3389 26.1579 21.4341C24.5656 21.5007 22.9828 21.7292 21.3905 21.7197C19.9213 21.7101 18.4522 21.4722 16.9831 21.3389C16.0018 21.2526 15.0205 21.1717 14.0229 21.0921C13.4736 21.0483 13.0497 20.625 13.0497 20.074C13.0497 19.4601 13.5719 18.9349 14.184 18.9823C14.3177 18.9926 14.4514 19.0037 14.5852 19.0162C15.1823 19.0733 15.7699 19.178 16.3671 19.1875C19.4474 19.2351 22.5278 19.3303 25.5987 19.2637C27.4944 19.2256 29.3805 18.921 31.2761 18.7211C33.8447 18.445 36.2806 17.674 38.7354 16.9219C41.2281 16.1604 43.6261 16.465 45.8535 17.8453C46.6022 18.3118 46.8771 19.1019 47.0287 19.9205C47.3226 21.4912 47.0193 23.0333 46.6117 24.5183C45.7492 27.6692 44.754 30.7915 43.8251 33.9234C43.6261 34.6088 43.4365 35.2846 43.247 35.9795C42.9152 37.198 42.2802 38.2737 41.6357 39.3398C40.7068 40.882 39.8064 42.4336 38.8776 43.9757C37.8445 45.6892 36.546 47.1837 35.0579 48.5259C33.5909 49.8511 32.1795 51.2401 30.751 52.6126C30.4983 52.8554 30.1588 52.9905 29.8083 52.9905Z" fill="#E3DECA"/>
<path d="M17.2404 52.9917C16.4094 52.9906 16.1088 51.887 16.8315 51.4768C18.7461 50.3725 20.6322 49.2302 22.5847 48.2117C23.5609 47.7071 24.3192 46.9742 24.9637 46.165C27.1911 43.3378 29.6743 40.7581 32.205 38.2069C34.148 36.2555 35.7214 34.0279 36.4701 31.3245C36.8493 29.9727 36.9535 28.5924 36.9156 27.1931C36.9061 26.7076 36.6028 26.4125 36.1763 26.3269C35.5508 26.2031 34.9062 26.0984 34.2617 26.0889C32.1765 26.0698 30.1387 26.4411 28.101 26.8409C25.8167 27.2883 23.5135 27.6881 21.2009 27.9071C19.6086 28.0594 17.9878 27.8595 16.386 27.8023C15.7105 27.7789 15.0349 27.7448 14.3506 27.7108C13.6236 27.6748 13.0497 27.0895 13.0497 26.3616C13.0497 25.5563 13.746 24.9192 14.546 25.012C15.2286 25.0913 15.9084 25.165 16.5945 25.2036C17.9783 25.2797 19.3716 25.3464 20.7459 25.2607C22.8216 25.1369 24.8879 24.899 26.9541 24.661C29.0298 24.4135 31.096 24.0803 33.1623 23.8138C34.2902 23.671 35.4181 23.5377 36.546 23.4996C37.4653 23.4616 38.3942 23.5853 39.2377 24.0422C40.0623 24.4896 40.4415 25.2036 40.5173 26.1174C40.631 27.5263 40.2519 28.8495 39.7211 30.125C38.8586 32.2098 37.9866 34.2945 37.0293 36.3411C36.0341 38.4734 34.4418 40.1584 32.5557 41.5101C30.9444 42.6619 29.7312 44.1565 28.5938 45.7176C27.6555 47.0027 26.556 48.1165 25.3049 49.0779C23.8263 50.2107 22.3288 51.2959 20.8312 52.4001C20.6544 52.5262 20.4741 52.6454 20.2924 52.7639C20.0566 52.9177 19.7806 52.9991 19.4991 52.9979C18.745 52.9946 17.9923 52.9928 17.2404 52.9917Z" fill="#E3DECA"/>
<path d="M37.6454 52.983C37.6454 52.985 37.6482 52.9858 37.6492 52.984C38.1029 52.196 38.5566 51.3986 39.0198 50.6202C40.7827 47.6787 42.5267 44.7278 43.7873 41.5198C44.7825 38.9781 45.7208 36.4079 46.6591 33.8377C47.4742 31.5911 48.3083 29.3541 49.0192 27.079C49.8627 24.4041 50.6589 21.7768 51.7583 19.2351C52.0616 18.5402 52.2891 17.8263 52.4408 17.0838C52.7251 15.6844 52.8009 14.4374 53 13V23.3843C53 23.6305 52.9546 23.8746 52.8655 24.1041C52.6148 24.7501 52.3625 25.3971 52.1375 26.0509C50.7158 30.1823 49.313 34.3327 47.8818 38.4641C47.4742 39.6445 47.0667 40.8344 46.5169 41.9386C45.3891 44.2137 44.1379 46.4317 42.9721 48.6878C42.4313 49.7388 41.9218 50.8055 41.4087 51.8685C41.0796 52.5504 40.3882 52.981 39.6311 52.981H37.6474C37.6463 52.981 37.6454 52.9819 37.6454 52.983Z" fill="#E3DECA"/>
<path d="M44.6485 52.9905C44.5604 52.9905 44.4644 52.8896 44.517 52.8191C45.8914 50.9248 46.7444 48.7925 47.5026 46.603C48.3936 44.0423 49.2371 41.4721 50.1565 38.9305C50.7915 37.1694 51.7109 35.5416 52.8578 34.0566C52.9036 33.999 52.9999 34.0517 52.9999 34.1253C52.9999 35.977 52.9999 37.8208 52.9999 39.6726C52.9999 39.785 52.9467 39.8827 52.9052 39.9871C52.2417 42.0242 51.5403 44.0519 50.9242 46.0985C50.3862 47.8922 49.9071 49.7096 49.4172 51.5226C49.1839 52.3861 48.4019 52.9851 47.5074 52.9876C46.5545 52.9903 45.6015 52.9904 44.6485 52.9905Z" fill="#E3DECA"/>
<path d="M13.3106 47.4922C13.1644 47.5696 13.0024 47.4211 13.0021 47.2557C13.0007 46.3278 12.9948 45.4145 13.0118 44.5089C13.0118 44.4137 13.1635 44.2804 13.2678 44.2423C16.3955 43.1095 19.3053 41.5484 22.1393 39.8254C23.9401 38.7307 25.5893 37.398 27.0679 35.8654C27.2101 35.7226 27.3333 35.5512 27.4565 35.3799C27.9209 34.704 27.7977 34.1424 27.0679 33.7711C26.1769 33.3142 25.2007 33.2476 24.215 33.1809C22.7553 33.0762 21.3715 33.438 19.9877 33.8187C18.3101 34.2757 16.6135 34.5707 14.879 34.5993C14.7907 34.6007 14.7024 34.6029 14.614 34.6057C13.7507 34.6333 13.0308 33.9635 13.0308 33.0997C13.0308 32.8073 13.0308 32.5153 13.0308 32.2212C13.0308 31.9592 13.2242 31.7219 13.4858 31.7054C14.9169 31.6483 16.3576 31.6388 17.7888 31.5436C19.8266 31.4199 21.8549 31.2295 23.8927 31.0772C25.6557 30.9439 27.4281 30.744 29.1341 31.3818C30.0724 31.734 30.8876 32.3052 30.9729 33.3999C31.0108 33.952 30.8686 34.5708 30.6411 35.0943C30.1104 36.3033 29.2479 37.2933 28.2716 38.1786C27.3428 39.0353 26.4423 39.9206 25.4945 40.7488C23.8548 42.1671 22.054 43.3666 20.1678 44.4232C17.9868 45.6465 15.7305 46.6714 13.3615 47.4697C13.3433 47.4758 13.3276 47.4832 13.3106 47.4922Z" fill="#E3DECA"/>
<path d="M39.4463 13C40.5025 13 40.5822 13.7828 39.5523 14.0171C34.2491 15.2234 26.3091 16.9654 14.0739 16.8247C13.4817 16.8179 13.0023 16.3338 13.0023 15.7416C13.0023 15.542 13.0023 15.3392 13.0023 15.1313C13.0023 14.8757 13.2024 14.6651 13.4573 14.6468C15.533 14.5421 17.6182 14.5231 19.6844 14.3232C22.1013 14.0947 24.5088 13.7901 26.8593 13.1333C27.1626 13.0476 27.4754 13 27.7882 13C31.6742 13 35.5602 13 39.4463 13Z" fill="#E3DECA"/>
<path d="M51.0001 52.9904C51.0001 52.9904 51.0001 52.9904 51.0001 52.9904C51.0001 52.9904 51.0001 51.8385 51.8152 50.7914C52.0258 50.5208 52.9999 50.6709 52.9999 51.0138V52.6067C52.9999 52.8238 52.8239 52.9999 52.6067 52.9999H51.0096C51.0043 52.9999 51.0001 52.9956 51.0001 52.9904Z" fill="#E3DECA"/>
<rect x="0.5" y="0.5" width="65" height="65" rx="32.5" stroke="#E3DECA"/>
</svg>
