<svg width="64" height="64" viewBox="0 0 64 64" fill="none" xmlns="http://www.w3.org/2000/svg">
<path d="M47.2185 24.0933C43.8883 25.47 41.7673 28.2421 39.3673 30.6979C39.6092 30.6979 39.9069 30.7165 40.2046 30.6979C41.0976 30.6607 41.6929 31.1258 42.0464 31.87C42.2325 32.2607 42.3627 32.8188 42.2139 33.1723C42.1208 33.3956 41.4697 33.5072 41.0604 33.4886C39.1255 33.4142 37.5441 32.6328 36.3906 31.0514C35.4232 29.7119 35.8139 28.8933 37.3022 28.2607C38.6418 27.684 39.9255 26.9212 41.1162 26.0468C42.9208 24.6886 44.9673 24.1677 47.2185 24.0933Z" fill="white"/>
<path d="M22.7906 30.642C20.5208 28.0746 18.251 25.5072 14.8836 24.2793C14.9208 24.1862 14.9766 24.1118 15.0138 24.0188C15.1999 24.0002 15.4045 23.9444 15.5906 23.963C17.7301 24.1676 19.6464 24.9862 21.3766 26.2327C22.6603 27.163 23.8324 28.1676 25.4696 28.4653C26.251 28.5955 26.4929 29.5444 26.1022 30.4746C25.358 32.3351 22.3627 33.9165 20.4278 33.4327C20.2231 33.3769 19.9627 33.0606 19.9255 32.8188C19.8138 31.9072 20.7068 30.8281 21.6185 30.7165C22.0278 30.6606 22.4185 30.6606 22.7906 30.642Z" fill="white"/>
<path d="M27.9814 13.0605C28.1303 11.9814 28.2977 10.921 28.4466 9.8419C28.5396 9.15353 28.7256 8.46516 28.1861 7.79539C28.0745 7.64655 28.3163 6.92097 28.5396 6.84655C29.507 6.47446 30.4931 6.13957 31.5163 5.97213C32.2233 5.8419 32.8745 6.19539 33.1721 6.92097C33.4698 7.64655 33.3582 8.35353 32.8187 8.89306C32.3721 9.35818 32.2419 9.63725 32.8187 10.1396C33.4884 10.7163 33.4326 11.5721 33.1349 12.2977C32.6884 13.3954 31.9256 14.2698 30.7535 14.6233C30.3628 14.7349 29.8791 14.5489 29.4512 14.4745C29.321 14.4559 29.1721 14.2512 29.0791 14.2698C27.8326 14.6605 28.0745 13.7303 27.9814 13.0605ZM29.2652 13.4326C30.4373 13.2838 31.3861 13.1163 31.7768 12.1117C31.9256 11.7582 31.814 11.2745 31.7024 10.9024C31.6838 10.8093 31.1256 10.921 30.828 10.8652C30.4745 10.8093 30.121 10.6605 29.7861 10.5675C29.9721 10.2512 30.0838 9.87911 30.3256 9.61864C30.7907 9.13492 31.3675 8.76283 31.7768 8.2419C31.907 8.07446 31.7954 7.47911 31.6094 7.34888C31.0698 6.97678 30.028 7.4419 29.9163 8.11167C29.6559 9.8419 29.4884 11.5907 29.2652 13.4326Z" fill="white"/>
<path d="M13.8791 51.2001C13.321 51.0513 12.9303 50.9768 12.5582 50.8466C10.9582 50.3257 10.4558 48.8745 11.3675 47.4606C12.7256 45.3768 16.614 44.3722 18.6419 45.6187C19.014 45.8606 19.3675 46.1954 19.6093 46.5861C20 47.2001 19.7023 47.9257 19.0326 48.1861C18.5675 48.3536 18.1023 48.3536 18.1582 47.6838C18.2326 46.828 17.6372 46.5675 17.0233 46.5117C15.3861 46.3443 13.8791 46.7164 12.707 47.9257C12 48.6699 12.1675 49.321 13.1349 49.6931C14.214 50.1024 15.2 50.1582 16.1675 49.3582C16.3721 49.1908 16.8558 49.3582 17.2093 49.3582C17.1163 49.7303 17.1349 50.2326 16.893 50.4559C15.9442 51.3675 14.921 52.2047 13.8791 53.0233C13.6186 53.228 13.1721 53.1722 12.8186 53.2466C12.8558 52.8187 12.8186 52.3722 12.9675 52.0001C13.0977 51.7024 13.4698 51.535 13.8791 51.2001Z" fill="white"/>
<path d="M40.6139 52.7627C41.4325 52.186 42.1767 51.7208 42.8465 51.1627C43.0139 51.0325 43.0325 50.6046 42.9581 50.3441C42.7721 49.5999 42.4558 48.8743 42.3256 48.1301C42.2697 47.8325 42.5488 47.4604 42.6977 47.1255C42.9767 47.3487 43.4418 47.4976 43.5349 47.7766C44.279 50.0092 44.9674 52.2418 45.6 54.4929C45.693 54.8464 45.4139 55.3115 45.3023 55.7208C44.986 55.4418 44.5581 55.2185 44.3907 54.8836C44.0744 54.1953 43.907 53.4325 43.6279 52.5394C42.7535 53.0418 41.9535 53.4325 41.2465 53.9348C41.079 54.0464 41.0418 54.5301 41.0977 54.8092C41.2465 55.4976 41.5442 56.1673 41.6558 56.8557C41.693 57.1348 41.4139 57.4511 41.2651 57.7487C40.986 57.5441 40.5581 57.3953 40.4651 57.1348C40.1302 56.1673 39.9442 55.1627 39.6651 54.1953C39.3116 52.986 38.8651 51.7953 38.5674 50.5673C38.4744 50.2325 38.7349 49.8046 38.8279 49.4325C39.1256 49.6743 39.5535 49.8418 39.7023 50.1394C40.0186 50.8836 40.2418 51.7022 40.6139 52.7627Z" fill="white"/>
<path d="M49.8046 48.6885C49.1535 49.8234 48.0558 50.7722 48.6697 52.3908C48.7814 52.6885 48.5395 53.4141 48.279 53.5071C47.6279 53.7676 47.479 53.135 47.3488 52.6513C46.7348 50.4373 46.1395 48.242 45.5442 46.028C45.4697 45.7676 45.3953 45.4699 45.4511 45.2094C45.4883 44.9676 45.6558 44.6699 45.8418 44.5583C45.9907 44.4838 46.3069 44.6141 46.493 44.7257C48.3535 45.9722 50.0837 47.4234 52.3721 47.9443C52.6697 48.0187 52.8558 48.5955 53.0976 48.949C52.7442 49.1164 52.3721 49.4885 52.0744 49.4327C51.3488 49.3211 50.6604 48.9862 49.8046 48.6885ZM47.4418 46.9769C47.3488 47.0513 47.2744 47.1257 47.1814 47.2001C47.3674 47.7955 47.5535 48.3908 47.8511 49.2838C48.186 48.6699 48.6325 48.1862 48.5209 47.9443C48.3535 47.535 47.8139 47.2932 47.4418 46.9769Z" fill="white"/>
<path d="M21.1907 56.4837C21.2465 54.4372 21.2465 54.4744 19.4977 54.1581C18.8279 54.0465 18.3814 54.1209 17.8419 54.586C17.5628 54.8279 16.7814 54.9581 16.5768 54.7721C16.0744 54.2884 16.5396 53.8418 16.9675 53.4884C18.6233 52.1488 20.2791 50.8093 21.9349 49.4697C22.1024 49.3395 22.2698 49.1535 22.4558 49.0977C22.7535 49.0046 23.2744 48.8744 23.3675 49.0046C23.5535 49.2465 23.5721 49.6744 23.5349 50.0093C23.2744 52.2046 22.9768 54.4 22.6977 56.5953C22.6605 56.8372 22.7907 57.1163 22.6977 57.3209C22.5861 57.6 22.3442 57.9721 22.1396 58.0093C21.9163 58.0465 21.507 57.7488 21.3954 57.507C21.2093 57.1535 21.2279 56.6884 21.1907 56.4837ZM21.8977 51.5721C21.7861 51.5349 21.6931 51.4791 21.5814 51.4418C21.1163 51.8697 20.6512 52.2977 20.1861 52.7256C20.2233 52.8 20.2419 52.893 20.2791 52.9674C20.6698 53.0232 21.3396 53.2465 21.4326 53.0977C21.7117 52.6697 21.7675 52.093 21.8977 51.5721Z" fill="white"/>
<path d="M24.8559 55.907C25.228 54.307 25.5628 52.707 25.9907 51.1442C26.0652 50.8838 26.4931 50.7349 26.7721 50.5303C26.9024 50.8838 27.2186 51.2559 27.1628 51.5721C26.9396 52.7628 26.5675 53.9163 26.3442 55.0884C26.2326 55.6838 26.2326 56.3535 26.4186 56.9117C26.5303 57.3024 27.014 57.7861 27.3861 57.8419C27.814 57.8977 28.4838 57.6745 28.7256 57.3396C29.1163 56.8186 29.3024 56.1303 29.4698 55.4791C29.7675 54.3442 29.9349 53.1721 30.2512 52.0373C30.3442 51.721 30.7535 51.4977 31.014 51.2372C31.1628 51.5721 31.4791 51.9442 31.4047 52.2419C31.0326 54.0652 30.6791 55.8884 30.1396 57.6372C29.7675 58.8093 28.2977 59.5349 27.1442 59.3489C25.9721 59.1628 25.2093 58.2698 25.0419 56.8559C25.0047 56.5582 25.0047 56.2419 24.9675 55.9256C24.9303 55.9256 24.8931 55.907 24.8559 55.907Z" fill="white"/>
<path d="M22.3256 15.9255C22.2884 16.186 22.3256 16.4837 22.1954 16.7069C22.0837 16.9116 21.8047 17.2092 21.6558 17.1906C21.414 17.1534 21.1535 16.9116 21.0233 16.6883C20.9116 16.4651 20.9488 16.1488 20.9302 15.8697C20.8744 13.8604 20.8372 11.8511 20.8 9.8418C20.8 9.56273 20.7442 9.26505 20.8372 9.00459C20.9302 8.70691 21.1163 8.35342 21.3581 8.2418C21.507 8.16738 21.8977 8.44645 22.0837 8.6511C23.2 9.8418 24.2605 11.0697 25.3767 12.2604C25.693 12.5767 26.1209 12.7999 26.5116 13.0418C26.9954 13.3395 27.4419 13.786 27.0512 14.2883C26.8837 14.5116 26.1581 14.4557 25.7674 14.3255C25.3767 14.1953 25.0605 13.8418 24.7628 13.5255C24.3721 13.0976 24 13.1162 23.6837 13.5627C23.1628 14.3255 21.9721 14.6604 22.3256 15.9255ZM22.0837 10.9023C22.1209 11.6464 22.1581 12.2418 22.1954 12.8557C23.4233 12.372 23.4233 11.9813 22.0837 10.9023Z" fill="white"/>
<path d="M43.6465 20.2976C43.8512 19.5906 43.9814 19.0511 44.186 18.5488C44.4093 17.972 44.3907 17.5999 43.7767 17.265C42.9209 16.7813 42.1395 16.1674 41.0605 16.7441C40.8186 16.8743 40.186 16.7255 40.0558 16.5023C39.7581 15.9999 40.1302 15.6464 40.614 15.4418C42.0651 14.8464 43.5349 14.2511 44.986 13.6371C45.5256 13.4139 46.0279 13.079 46.586 12.9302C46.9209 12.8371 47.3302 13.0232 47.7023 13.079C47.6465 13.4139 47.6279 13.786 47.5163 14.1023C46.7535 16.1488 45.9907 18.1953 45.1721 20.2232C45.0419 20.5581 44.6698 20.7813 44.3907 21.0604C44.1488 20.7999 43.8884 20.5395 43.6465 20.2976ZM45.7674 14.6232C44.986 15.0139 44.4093 15.3116 43.7953 15.6278C44.8186 16.6511 45.1721 16.5023 45.7674 14.6232Z" fill="white"/>
<path d="M37.6744 15.5347C35.8326 15.5161 34.5674 14.1393 34.9581 12.5393C35.386 10.7533 36.2046 9.06026 36.893 7.34863C36.9674 7.16258 37.3581 6.95793 37.5442 6.99514C37.7116 7.03235 37.9163 7.40445 37.8977 7.6277C37.8791 8.0184 37.7302 8.39049 37.5814 8.76258C37.1163 9.89747 36.5767 11.0137 36.2046 12.1858C36.0744 12.6137 36.2419 13.2835 36.5209 13.637C37.1349 14.4556 38.1395 14.344 38.6419 13.3951C39.2558 12.2603 39.7209 11.051 40.2419 9.86026C40.5023 9.24631 40.7256 8.29747 41.5256 8.61375C42.307 8.93003 41.7488 9.76724 41.507 10.3254C41.0046 11.5533 40.4651 12.7812 39.8698 13.9533C39.3674 14.9951 38.4744 15.5161 37.6744 15.5347Z" fill="white"/>
<path d="M35.6467 51.1441C35.3118 51.4417 35.0141 51.572 34.8839 51.8138C33.9723 53.4882 33.656 55.2371 34.4002 57.0789C34.8653 58.2138 35.7769 58.3627 36.6513 57.4882C36.7443 57.3952 36.8002 57.265 36.8932 57.2092C37.2281 57.0231 37.5816 56.8557 37.9164 56.6882C37.935 57.1162 38.0839 57.6185 37.9164 57.972C37.5257 58.8092 36.8374 59.4231 35.8327 59.4603C34.642 59.4975 33.7676 58.8278 33.3211 57.8417C32.2792 55.5906 32.4653 53.3022 33.5816 51.1254C34.0653 50.158 35.163 49.7673 36.0188 50.065C36.6885 50.3068 37.3397 51.3673 37.2281 52.1859C37.1723 52.5208 36.856 52.7999 36.6699 53.0975C36.4467 52.8557 36.149 52.6324 36.0002 52.3534C35.8327 52.0371 35.7955 51.6464 35.6467 51.1441Z" fill="white"/>
<path d="M25.0789 32.6697C25.4324 33.2836 25.637 33.8046 25.9905 34.2325C26.6789 35.0883 27.4789 35.8511 28.1673 36.6883C28.5022 37.1162 28.9115 37.6185 28.9487 38.1208C29.0417 39.0883 28.9115 40.0929 28.8371 41.079C28.7812 41.6743 28.7998 42.1208 29.451 42.4371C30.251 42.8278 30.5115 43.6092 30.5115 44.465C30.5115 45.2278 30.1766 45.4325 29.4324 45.1534C28.465 44.7813 27.944 43.8325 27.9812 42.5115C28.0557 40.1115 27.144 38.0464 25.4882 36.4464C24.4091 35.4046 24.4464 34.3999 24.7626 33.1906C24.7998 33.0418 24.9115 32.9301 25.0789 32.6697Z" fill="white"/>
<path d="M33.3766 42.1394C33.3208 40.744 33.2464 39.5161 33.2092 38.2882C33.1906 37.5999 33.4138 37.0975 34.065 36.6882C35.2371 35.9254 36.1301 34.865 36.6324 33.5068C36.744 33.2278 36.9115 32.9859 37.0603 32.6882C37.9347 33.8603 37.8603 35.3673 36.9115 36.2417C35.1068 37.8975 34.1952 39.9627 34.251 42.3999C34.2696 43.5906 33.9161 44.5208 32.8557 45.1161C32.0929 45.5627 31.6836 45.3022 31.665 44.4464C31.6464 43.1999 32.4278 42.5487 33.3766 42.1394Z" fill="white"/>
<path d="M19.8884 18.586C19.7396 18.8092 19.628 19.1069 19.4978 19.1255C19.2187 19.1441 18.8466 19.1069 18.6791 18.9209C17.7489 17.8976 16.8187 16.8557 15.9629 15.7767C15.2745 14.8837 15.2187 14.8651 14.5117 15.6837C14.1582 16.1116 13.8791 17.0232 13.135 16.372C12.4652 15.7767 13.1908 15.293 13.5443 14.8278C14.3257 13.8604 15.0698 12.8744 15.814 11.8883C16.0187 11.6278 16.2047 11.2557 16.4838 11.1441C16.7815 11.0139 17.1908 11.0883 17.5443 11.0883C17.5071 11.4232 17.4885 11.7581 17.4512 12.093C17.4512 12.1116 17.414 12.1302 17.3954 12.1674C15.7954 13.9534 15.814 13.5069 17.3582 15.5348C17.9908 16.372 18.735 17.1162 19.4047 17.9162C19.5908 18.1023 19.721 18.3441 19.8884 18.586Z" fill="white"/>
<path d="M34.4 28.5582C33.3768 29.3768 32.3721 30.214 31.3488 31.0326C31.2372 31.1071 30.9581 31.1071 30.8465 31.0326C29.8233 30.214 28.8186 29.3768 27.8512 28.335C28.6698 28.5582 29.4884 28.8373 30.3256 28.9861C30.8651 29.0791 31.4419 29.0791 31.9628 28.9861C32.7628 28.8373 33.5256 28.5582 34.307 28.335C34.3442 28.3908 34.3628 28.4652 34.4 28.5582Z" fill="white"/>
<path d="M31.5162 49.5256C31.2185 49.9163 31.1069 50.1395 30.9394 50.2698C30.4185 50.6977 29.8789 51.107 29.3022 51.4791C29.1162 51.5907 28.7999 51.4977 28.5394 51.4977C28.5394 51.2372 28.4464 50.8651 28.5766 50.7349C29.2092 50.1581 29.8976 49.6186 30.6045 49.1535C30.7162 49.0605 31.1069 49.3395 31.5162 49.5256Z" fill="white"/>
<path d="M21.8047 5.95334C21.5629 6.69753 21.3768 7.33009 21.1349 7.92544C21.0791 8.07427 20.8001 8.26032 20.6698 8.24172C20.521 8.22311 20.2605 7.94404 20.2977 7.81381C20.4652 7.01381 20.6698 6.21381 20.9117 5.41381C20.9303 5.33939 21.3024 5.24637 21.3768 5.30218C21.5629 5.50683 21.6931 5.7673 21.8047 5.95334Z" fill="white"/>
<path d="M32 0C14.3256 0 0 14.3256 0 32C0 49.6744 14.3256 64 32 64C49.6744 64 64 49.6744 64 32C64 14.3256 49.6744 0 32 0ZM32 61.7488C15.5721 61.7488 2.25116 48.4279 2.25116 32C2.25116 15.5721 15.5721 2.25116 32 2.25116C48.4279 2.25116 61.7488 15.5721 61.7488 32C61.7488 48.4279 48.4279 61.7488 32 61.7488Z" fill="white"/>
</svg>
