<svg width="64" height="66" viewBox="0 0 64 66" fill="none" xmlns="http://www.w3.org/2000/svg">
<path d="M16.6131 39.0598L8.53333 58.9402L17.8888 57.7708L23.736 65L30.54 45.2259M47.231 39.0598L55.3107 58.9402L45.9553 57.7708L40.2144 65L33.3041 45.2259" stroke="#FDBA74" stroke-width="2" stroke-miterlimit="10" stroke-linecap="round" stroke-linejoin="round"/>
<path d="M31.922 36.0831C38.9678 36.0831 44.6795 30.3713 44.6795 23.3256C44.6795 16.2798 38.9678 10.5681 31.922 10.5681C24.8763 10.5681 19.1646 16.2798 19.1646 23.3256C19.1646 30.3713 24.8763 36.0831 31.922 36.0831Z" stroke="#FDBA74" stroke-width="2" stroke-miterlimit="10" stroke-linecap="round" stroke-linejoin="round"/>
<path d="M31.922 3.76412L36.7061 1L40.0018 5.46511L45.4237 4.93355L46.5931 10.2492L51.8024 12.0565L50.7393 17.3721L54.7792 21.093L51.5898 25.5581L53.8224 30.6611L49.0383 33.4252V38.8472L43.5101 39.485L41.2775 44.4817L36.0682 42.887L31.922 46.5016L27.7759 42.887L22.5666 44.4817L20.334 39.485L14.8058 38.8472V33.4252L10.0217 30.6611L12.2543 25.5581L9.06489 21.093L13.1048 17.3721L12.0416 12.0565L17.2509 10.2492L18.4204 4.93355L23.8423 5.46511L27.138 1L31.922 3.76412Z" stroke="#FDBA74" stroke-width="2" stroke-miterlimit="10" stroke-linecap="round" stroke-linejoin="round"/>
</svg>
