<svg width="20" height="20" viewBox="0 0 20 20" fill="none" xmlns="http://www.w3.org/2000/svg">
<path d="M10 14.4168L6.91667 16.7709C6.76389 16.8959 6.59722 16.9551 6.41667 16.9484C6.23611 16.9418 6.07639 16.8895 5.9375 16.7918C5.79861 16.6945 5.69111 16.5626 5.615 16.3959C5.53889 16.2293 5.53528 16.0487 5.60417 15.8543L6.79167 12.0001L3.77083 9.85425C3.60417 9.74314 3.5 9.59731 3.45833 9.41675C3.41667 9.2362 3.42361 9.06953 3.47917 8.91675C3.53472 8.76397 3.63195 8.62842 3.77083 8.51009C3.90972 8.39175 4.07639 8.33286 4.27083 8.33342H8L9.20833 4.33342C9.27778 4.13897 9.38556 3.98953 9.53167 3.88509C9.67778 3.78064 9.83389 3.7287 10 3.72925C10.1667 3.72925 10.3231 3.78147 10.4692 3.88592C10.6153 3.99036 10.7228 4.13953 10.7917 4.33342L12 8.33342H15.7292C15.9236 8.33342 16.0903 8.39259 16.2292 8.51092C16.3681 8.62925 16.4653 8.76453 16.5208 8.91675C16.5764 9.06953 16.5833 9.2362 16.5417 9.41675C16.5 9.59731 16.3958 9.74314 16.2292 9.85425L13.2083 12.0001L14.3958 15.8543C14.4653 16.0487 14.4619 16.2293 14.3858 16.3959C14.3097 16.5626 14.2019 16.6945 14.0625 16.7918C13.9236 16.889 13.7639 16.9412 13.5833 16.9484C13.4028 16.9556 13.2361 16.8965 13.0833 16.7709L10 14.4168Z" fill="#FDE047"/>
</svg>
