<svg width="32" height="32" viewBox="0 0 32 32" fill="none" xmlns="http://www.w3.org/2000/svg">
<path fill-rule="evenodd" clip-rule="evenodd" d="M4.75401 6.20157C4.7537 6.30767 4.7237 6.41155 4.66739 6.50147C4.61108 6.59139 4.53072 6.66374 4.4354 6.71033C4.34009 6.75692 4.23363 6.7759 4.12809 6.7651C4.02255 6.7543 3.92214 6.71416 3.83824 6.64923L0.218333 3.83375C0.150329 3.78062 0.0953232 3.71269 0.0574924 3.63513C0.0196616 3.55756 0 3.4724 0 3.3861C0 3.2998 0.0196616 3.21463 0.0574924 3.13706C0.0953232 3.0595 0.150329 2.99157 0.218333 2.93844L3.83824 0.120684C3.92245 0.0555167 4.02327 0.0153279 4.12922 0.00470135C4.23517 -0.00592525 4.34197 0.0134381 4.43745 0.0605829C4.53292 0.107728 4.61322 0.180756 4.6692 0.271338C4.72517 0.36192 4.75455 0.466409 4.75401 0.572888V2.25445L22.9331 2.25435V0.56824C22.933 0.461753 22.9629 0.357402 23.0194 0.267091C23.0758 0.17678 23.1564 0.104145 23.2522 0.057473C23.3479 0.0108006 23.4548 -0.00803056 23.5607 0.00312778C23.6666 0.0142861 23.7672 0.0549847 23.8511 0.120581L27.4687 2.93606C27.5367 2.98919 27.5917 3.05712 27.6296 3.13469C27.6674 3.21225 27.6871 3.29742 27.6871 3.38372C27.6871 3.47002 27.6674 3.55519 27.6296 3.63275C27.5917 3.71032 27.5367 3.77825 27.4687 3.83138L23.8511 6.64913C23.7671 6.71485 23.6662 6.75557 23.5601 6.76665C23.454 6.77772 23.3469 6.75869 23.2511 6.71175C23.1553 6.6648 23.0747 6.59182 23.0184 6.50118C22.9622 6.41053 22.9326 6.30588 22.9331 6.1992V4.52218L4.75401 4.52228V6.20157ZM19.5245 11.3394H3.61782C3.31648 11.3394 3.02748 11.4591 2.81441 11.6722C2.60133 11.8853 2.48162 12.1743 2.48162 12.4756V28.3823C2.48162 28.6836 2.60133 28.9726 2.81441 29.1857C3.02748 29.3988 3.31648 29.5185 3.61782 29.5185H19.5245C19.8258 29.5185 20.1148 29.3988 20.3279 29.1857C20.541 28.9726 20.6607 28.6836 20.6607 28.3823V12.4756C20.6607 12.1743 20.541 11.8853 20.3279 11.6722C20.1148 11.4591 19.8258 11.3394 19.5245 11.3394ZM3.61782 9.06705C2.71381 9.06705 1.84682 9.42616 1.20759 10.0654C0.56836 10.7046 0.209244 11.5716 0.209244 12.4756V28.3823C0.209244 29.2863 0.56836 30.1533 1.20759 30.7925C1.84682 31.4317 2.71381 31.7909 3.61782 31.7909H19.5245C20.4285 31.7909 21.2955 31.4317 21.9347 30.7925C22.5739 30.1533 22.9331 29.2863 22.9331 28.3823V12.4756C22.9331 11.5716 22.5739 10.7046 21.9347 10.0654C21.2955 9.42616 20.4285 9.06705 19.5245 9.06705H3.61782ZM31.3713 9.27629H29.692L29.7502 27.2461H31.4295C31.5356 27.2464 31.6395 27.2764 31.7294 27.3327C31.8193 27.389 31.8917 27.4694 31.9382 27.5647C31.9848 27.66 32.0038 27.7665 31.993 27.872C31.9822 27.9776 31.9421 28.078 31.8771 28.1619L29.0617 31.7818C29.0085 31.8498 28.9406 31.9048 28.863 31.9426C28.7855 31.9804 28.7003 32.0001 28.614 32.0001C28.5277 32.0001 28.4425 31.9804 28.365 31.9426C28.2874 31.9048 28.2195 31.8498 28.1664 31.7818L25.3486 28.1619C25.2836 28.0778 25.2434 27.9772 25.2327 27.8714C25.222 27.7657 25.2411 27.6591 25.288 27.5637C25.3349 27.4683 25.4076 27.388 25.4978 27.3318C25.5881 27.2757 25.6922 27.246 25.7985 27.2461H27.4778L27.4196 9.27629H25.7403C25.6342 9.27599 25.5303 9.24598 25.4404 9.18967C25.3505 9.13337 25.2781 9.053 25.2316 8.95769C25.185 8.86238 25.166 8.75592 25.1768 8.65038C25.1876 8.54484 25.2277 8.44443 25.2927 8.36052L28.1081 4.74062C28.1613 4.67261 28.2292 4.61761 28.3068 4.57978C28.3843 4.54195 28.4695 4.52228 28.5558 4.52228C28.6421 4.52228 28.7273 4.54195 28.8048 4.57978C28.8824 4.61761 28.9503 4.67261 29.0034 4.74062L31.8212 8.36052C31.8862 8.44458 31.9264 8.5452 31.9371 8.65094C31.9478 8.75669 31.9287 8.86331 31.8818 8.95871C31.8349 9.0541 31.7622 9.13443 31.672 9.19057C31.5817 9.24672 31.4776 9.27641 31.3713 9.27629Z" fill="#3C3A1E"/>
</svg>
