<svg width="36" height="36" viewBox="0 0 36 36" fill="none" xmlns="http://www.w3.org/2000/svg">
<path d="M30.7414 12.7414V5.25861H23.2745L17.9682 0L12.7414 5.25861H5.25861V12.7414L0 17.9682L5.25861 23.2745V30.7414H12.7414L17.9682 36L23.2745 30.7414H30.7414V23.2745L36 17.9682L30.7414 12.7414ZM12.932 10.1041C14.489 10.1041 15.744 11.3592 15.744 12.932C15.744 13.6778 15.4478 14.3931 14.9204 14.9204C14.3931 15.4478 13.6778 15.744 12.932 15.744C11.3592 15.744 10.1041 14.489 10.1041 12.932C10.1041 11.3592 11.3592 10.1041 12.932 10.1041ZM23.0838 25.9117C21.5269 25.9117 20.2718 24.6408 20.2718 23.0838C20.2718 22.3381 20.5681 21.6228 21.0955 21.0955C21.6228 20.5681 22.3381 20.2718 23.0838 20.2718C24.6408 20.2718 25.9117 21.5269 25.9117 23.0838C25.9117 23.8339 25.6138 24.5531 25.0835 25.0835C24.5531 25.6138 23.8339 25.9117 23.0838 25.9117ZM12.4078 25.9594L10.0247 23.5763L23.5763 10.0247L25.9594 12.4078L12.4078 25.9594Z" fill="#292524"/>
</svg>
