<svg width="30" height="32" viewBox="0 0 30 32" fill="none" xmlns="http://www.w3.org/2000/svg">
<path d="M11.3567 14.9335C11.2152 14.9335 11.0796 14.9897 10.9796 15.0897C10.8795 15.1897 10.8234 15.3253 10.8234 15.4668V19.7335C10.8234 19.8749 10.8795 20.0106 10.9796 20.1106C11.0796 20.2106 11.2152 20.2668 11.3567 20.2668C11.4981 20.2668 11.6338 20.2106 11.7338 20.1106C11.8338 20.0106 11.89 19.8749 11.89 19.7335V15.4668C11.89 15.3253 11.8338 15.1897 11.7338 15.0897C11.6338 14.9897 11.4981 14.9335 11.3567 14.9335ZM15.09 7.4668C18.0351 7.4668 20.4234 6.5708 20.4234 5.4668C20.4234 4.36173 18.0351 3.4668 15.09 3.4668C12.145 3.4668 9.75668 4.3628 9.75668 5.4668C9.75668 6.57186 12.145 7.4668 15.09 7.4668ZM15.09 6.40013C13.3226 6.40013 11.89 5.92226 11.89 5.33346C11.89 4.74466 13.3226 4.2668 15.09 4.2668C16.8575 4.2668 18.29 4.74466 18.29 5.33346C18.29 5.92226 16.8575 6.40013 15.09 6.40013Z" fill="#3C3A1E"/>
<path d="M27.954 6.64747C27.3697 6.06168 26.5807 5.72587 25.7535 5.71093C25.7076 4.56107 25.1519 3.6192 24.4863 2.9312C23.8004 2.22187 22.9119 1.68 21.9796 1.27253C20.1055 0.453333 17.6692 0 15.0879 0C12.5097 0 10.0724 0.453333 8.19932 1.27253C7.26705 1.68 6.37745 2.22187 5.69265 2.9312C4.99825 3.65013 4.42332 4.64533 4.42332 5.86667V14.8117C3.9293 14.7383 3.42495 14.7817 2.95074 14.9384C2.47652 15.0951 2.04563 15.3608 1.69265 15.7141L0.93745 16.4683C0.640245 16.7654 0.404486 17.1182 0.243637 17.5065C0.0827883 17.8948 0 18.3109 0 18.7312C0 19.1515 0.0827883 19.5676 0.243637 19.9559C0.404486 20.3442 0.640245 20.697 0.93745 20.9941L4.42332 24.48V26.1333C4.42332 27.3547 4.99825 28.3499 5.69265 29.0699C6.37852 29.7781 7.26812 30.3189 8.20038 30.7275C10.0735 31.5467 12.5097 32 15.09 32C17.3087 32 19.4068 31.6651 21.1295 31.0613C22.1663 30.6976 23.1433 30.2091 23.9316 29.5744C24.8639 28.8235 25.7567 27.6683 25.7567 26.1333V14.88L28.7092 11.9275C29.0064 11.6303 29.2421 11.2775 29.403 10.8892C29.5638 10.501 29.6466 10.0848 29.6466 9.66453C29.6466 9.24426 29.5638 8.8281 29.403 8.43982C29.2421 8.05154 29.0064 7.69876 28.7092 7.4016L27.9551 6.64747H27.954ZM6.55665 19.072V9.54133C6.89158 9.7824 7.25105 9.9968 7.62332 10.1877V14.4C7.62332 14.5414 7.67951 14.6771 7.77953 14.7771C7.87955 14.8771 8.0152 14.9333 8.15665 14.9333C8.2981 14.9333 8.43375 14.8771 8.53377 14.7771C8.63379 14.6771 8.68998 14.5414 8.68998 14.4V10.6613C10.4884 11.3547 12.7295 11.7333 15.09 11.7333C17.6692 11.7333 20.1065 11.28 21.9785 10.4608C22.9119 10.0523 23.8015 9.51147 24.4863 8.80213C24.7124 8.56853 24.9257 8.30613 25.1103 8.016C25.3152 7.88275 25.5596 7.82393 25.8027 7.84936C26.0458 7.8748 26.2728 7.98296 26.4457 8.15573L27.2009 8.91093C27.4009 9.11096 27.5132 9.38223 27.5132 9.66507C27.5132 9.94791 27.4009 10.2192 27.2009 10.4192L23.6233 13.9947V26.1333C23.6233 26.7776 23.25 27.3835 22.5929 27.9125C22.2514 28.1819 21.8816 28.4133 21.49 28.6027V24C21.49 23.8586 21.4338 23.7229 21.3338 23.6229C21.2338 23.5229 21.0981 23.4667 20.9567 23.4667C20.8152 23.4667 20.6795 23.5229 20.5795 23.6229C20.4795 23.7229 20.4233 23.8586 20.4233 24V29.0475C18.962 29.5595 17.1081 29.8667 15.09 29.8667C10.3774 29.8667 6.55665 28.1952 6.55665 26.1333V23.5957L2.44572 19.4859C2.34654 19.3868 2.26787 19.2692 2.21419 19.1397C2.16051 19.0102 2.13288 18.8714 2.13288 18.7312C2.13288 18.591 2.16051 18.4522 2.21419 18.3227C2.26787 18.1932 2.34654 18.0756 2.44572 17.9765L3.20092 17.2224C3.40095 17.0224 3.67221 16.9101 3.95505 16.9101C4.23789 16.9101 4.50915 17.0224 4.70918 17.2224L6.55665 19.072ZM23.6233 5.86667C23.6233 7.92853 19.8025 9.6 15.09 9.6C10.3774 9.6 6.55665 7.92853 6.55665 5.86667C6.55665 3.8048 10.3774 2.13333 15.09 2.13333C19.8025 2.13333 23.6233 3.8048 23.6233 5.86667Z" fill="#3C3A1E"/>
</svg>
