<svg width="36" height="30" viewBox="0 0 36 30" fill="none" xmlns="http://www.w3.org/2000/svg">
<path d="M10.5 3C7.2 3 4.5 5.7 4.5 9C4.5 12.3 7.2 15 10.5 15C13.8 15 16.5 12.3 16.5 9C16.5 5.7 13.8 3 10.5 3ZM10.5 12C8.85 12 7.5 10.65 7.5 9C7.5 7.35 8.85 6 10.5 6C12.15 6 13.5 7.35 13.5 9C13.5 10.65 12.15 12 10.5 12ZM10.5 18C4.65 18 0 20.7 0 24V27H16.5V24H3C3 23.1 5.7 21 10.5 21C13.2 21 15.3 21.75 16.5 22.5V19.2C14.85 18.45 12.75 18 10.5 18ZM33 3H22.5C20.85 3 19.5 4.35 19.5 6V24C19.5 25.65 20.85 27 22.5 27H33C34.65 27 36 25.65 36 24V6C36 4.35 34.65 3 33 3ZM24 24H22.5V6H24V24ZM33 24H27V6H33V24Z" fill="#292524"/>
</svg>
