<svg width="32" height="32" viewBox="0 0 32 32" fill="none" xmlns="http://www.w3.org/2000/svg">
<path d="M10.8824 6.61765C10.8824 7.97493 11.4215 9.27662 12.3813 10.2364C13.341 11.1961 14.6427 11.7353 16 11.7353C17.3573 11.7353 18.659 11.1961 19.6187 10.2364C20.5785 9.27662 21.1176 7.97493 21.1176 6.61765C21.1176 5.26036 20.5785 3.95867 19.6187 2.99892C18.659 2.03918 17.3573 1.5 16 1.5C14.6427 1.5 13.341 2.03918 12.3813 2.99892C11.4215 3.95867 10.8824 5.26036 10.8824 6.61765Z" stroke="#3C3A1E" stroke-width="2" stroke-linecap="round" stroke-linejoin="round"/>
<path d="M7.18913 11.7351H24.8109C25.2104 11.735 25.5973 11.8752 25.904 12.1311C26.2108 12.3871 26.418 12.7426 26.4895 13.1356L29.282 28.4886C29.3267 28.7344 29.3169 28.9871 29.2532 29.2288C29.1895 29.4704 29.0735 29.6951 28.9134 29.887C28.7532 30.0789 28.5529 30.2332 28.3265 30.3391C28.1002 30.445 27.8533 30.4999 27.6034 30.4998H4.3966C4.1467 30.4999 3.89984 30.445 3.67348 30.3391C3.44712 30.2332 3.2468 30.0789 3.08667 29.887C2.92654 29.6951 2.81052 29.4704 2.74682 29.2288C2.68311 28.9871 2.67328 28.7344 2.71801 28.4886L5.51054 13.1356C5.58205 12.7426 5.78925 12.3871 6.09601 12.1311C6.40276 11.8752 6.78962 11.735 7.18913 11.7351Z" stroke="#3C3A1E" stroke-width="2" stroke-linecap="round" stroke-linejoin="round"/>
</svg>
