<svg width="29" height="36" viewBox="0 0 29 36" fill="none" xmlns="http://www.w3.org/2000/svg">
<path fill-rule="evenodd" clip-rule="evenodd" d="M13.6897 0.14559C13.9138 0.0495315 14.1551 0 14.3989 0C14.6427 0 14.8839 0.0495315 15.108 0.14559L26.6163 5.079C27.264 5.35664 27.8159 5.81827 28.2037 6.40665C28.5915 6.99503 28.798 7.68428 28.7977 8.38894V20.736C28.7975 22.9569 28.2103 25.1382 27.0955 27.059C25.9806 28.9798 24.3779 30.5718 22.4496 31.6737L15.2916 35.763C15.0197 35.9183 14.712 36 14.3989 36C14.0857 36 13.778 35.9183 13.5061 35.763L6.3481 31.6737C4.41931 30.5715 2.81623 28.979 1.70139 27.0575C0.58655 25.136 -0.00041666 22.9539 2.21907e-07 20.7324V8.38894C7.80131e-05 7.68458 0.206797 6.99572 0.594548 6.4077C0.9823 5.81967 1.53404 5.35832 2.18143 5.0808L13.6897 0.14919V0.14559ZM21.071 15.673C21.3988 15.3335 21.5802 14.8789 21.5761 14.407C21.572 13.935 21.3827 13.4836 21.049 13.1499C20.7153 12.8162 20.2639 12.6269 19.792 12.6228C19.3201 12.6187 18.8654 12.8001 18.526 13.128L12.599 19.0549L10.2718 16.7277C9.93234 16.3998 9.47769 16.2184 9.00577 16.2225C8.53386 16.2266 8.08243 16.4159 7.74872 16.7496C7.41501 17.0833 7.22572 17.5348 7.22162 18.0067C7.21752 18.4786 7.39894 18.9332 7.7268 19.2727L11.3265 22.8724C11.664 23.2098 12.1218 23.3994 12.599 23.3994C13.0763 23.3994 13.534 23.2098 13.8715 22.8724L21.071 15.673Z" fill="#292524"/>
</svg>
