<svg width="36" height="28" viewBox="0 0 36 28" fill="none" xmlns="http://www.w3.org/2000/svg">
<path d="M27.8182 24.6365C29.1764 24.6365 30.2727 23.5401 30.2727 22.1819C30.2727 20.8237 29.1764 19.7274 27.8182 19.7274C26.46 19.7274 25.3636 20.8237 25.3636 22.1819C25.3636 23.5401 26.46 24.6365 27.8182 24.6365ZM30.2727 9.90918H26.1818V14.0001H33.48L30.2727 9.90918ZM8.18182 24.6365C9.54 24.6365 10.6364 23.5401 10.6364 22.1819C10.6364 20.8237 9.54 19.7274 8.18182 19.7274C6.82364 19.7274 5.72727 20.8237 5.72727 22.1819C5.72727 23.5401 6.82364 24.6365 8.18182 24.6365ZM31.0909 7.45463L36 14.0001V22.1819H32.7273C32.7273 24.8983 30.5345 27.091 27.8182 27.091C25.1018 27.091 22.9091 24.8983 22.9091 22.1819H13.0909C13.0909 24.8983 10.8982 27.091 8.18182 27.091C5.46545 27.091 3.27273 24.8983 3.27273 22.1819H0V4.18191C0 2.36554 1.45636 0.90918 3.27273 0.90918H26.1818V7.45463H31.0909ZM3.27273 4.18191V18.9092H4.51636C5.41636 17.911 6.72545 17.2728 8.18182 17.2728C9.63818 17.2728 10.9473 17.911 11.8473 18.9092H22.9091V4.18191H3.27273ZM14.7273 5.81827L20.4545 11.5455L14.7273 17.2728V13.1819H6.54545V9.90918H14.7273V5.81827Z" fill="#292524"/>
</svg>
